<?xml version="1.0" encoding="utf-8"?>
<!-- Generator: Adobe Illustrator 27.5.0, SVG Export Plug-In . SVG Version: 6.00 Build 0)  -->
<svg version="1.1" xmlns="http://www.w3.org/2000/svg" xmlns:xlink="http://www.w3.org/1999/xlink" x="0px" y="0px"
	 viewBox="0 0 3710 3710" style="enable-background:new 0 0 3710 3710;" xml:space="preserve">
<g id="Background">
	<g>
		<g>
			<rect style="fill:#FFFFFF;" width="3710" height="3710"/>
		</g>
	</g>
</g>
<g id="Illustration">
	<g>
		<path style="fill:#F4F7FA;" d="M1068.088,605.418c-97.498,139.574,16.82,365.857-127.85,470.828
			c-140.826,102.182-313.826-65.308-446.544,22.65c-196.881,130.479-160.927,727.529,126.924,1098.488
			c86.567,111.56,158.898,154.967,190.933,281.136c68.789,270.917-172.97,432.075-126.964,566.067
			c103.59,301.699,1696.728,554.86,2335.966-351.845c298.55-423.469,343.22-1034.962,76.474-1499.394
			C2615.023,354.125,1286.857,292.24,1068.088,605.418z"/>
		<g>
			
				<linearGradient id="SVGID_1_" gradientUnits="userSpaceOnUse" x1="660.9018" y1="1492.6255" x2="2445.6094" y2="1492.6255" gradientTransform="matrix(0.9472 0.3206 -0.3206 0.9472 204.6973 -98.6772)">
				<stop  offset="0.0036" style="stop-color:#E38DDD"/>
				<stop  offset="1" style="stop-color:#9571F6"/>
			</linearGradient>
			<path style="fill:url(#SVGID_1_);" d="M1334.909,3086.269c73.313-0.51,196.734-1.368,309.884-81.221
				c205.709-145.178,243.931-457.215,195.431-677.334c-41.658-189.072-176.609-343.925-446.509-653.636
				c-254.191-291.687-354.33-346.286-345.036-475.563c13.25-184.299,230.177-259.803,213.396-477.121
				c-2.015-26.078-8.931-115.645-73.419-167.736c-110.392-89.172-312.012-5.944-416.91,68.47
				c-101.182,71.778-231.091,219.571-212.875,375.671c13.197,113.098,92.937,134.476,82.27,231.725
				c-10.732,97.845-94.691,105.715-174.83,248.17c-32.016,56.911-96.281,171.147-73.63,292.612
				c29.288,157.056,177.375,184.026,169.803,305.142c-5.47,87.51-84.572,102.042-111.237,197.323
				c-35.105,125.436,59.214,253.086,139.123,358.263C684.465,2754.885,938.324,3089.024,1334.909,3086.269z"/>
			<path style="opacity:0.16;fill:#FFFFFF;" d="M1124.754,592.356c52.177,69.424-212.687,214.618-248.683,509.618
				c-38.729,317.405,211.125,614.601,326.591,751.944c197.002,234.33,312.978,236.664,415.43,461.302
				c40.549,88.907,125.025,274.13,45.416,466.264c-7.396,17.851-92.824,215.634-281.777,260.265
				c-214.325,50.625-398.887-134.284-557.918-293.607c-96.094-96.273-288.056-288.59-229.238-410.99
				c35.955-74.825,157.347-106.292,245.841-97.789c126.307,12.133,202.899,107.35,220.247,90.42
				c15.624-15.247-31.484-107.166-110.411-189.782c-157.87-165.247-281.634-124.327-392.547-266.216
				c-13.444-17.197-117.988-155.015-73.77-298.046c25.501-82.493,101.153-168.865,172.905-163.75
				c81.152,5.785,122.293,126.099,144.991,115.753c21.705-9.892-2.724-125.903-43.614-237.033
				c-60.082-163.288-105.639-179.976-116.681-274.46c-16.846-144.153,71.132-259.931,84.017-276.394
				C846.296,585.596,1080.144,533.001,1124.754,592.356z"/>
		</g>
		<g>
			
				<linearGradient id="SVGID_00000083066691716117964120000000117035900735314590_" gradientUnits="userSpaceOnUse" x1="1314.5787" y1="1831.9766" x2="2486.468" y2="-37.4649">
				<stop  offset="0" style="stop-color:#FFC444"/>
				<stop  offset="0.9964" style="stop-color:#F36F56"/>
			</linearGradient>
			<path style="fill:url(#SVGID_00000083066691716117964120000000117035900735314590_);" d="M1152.628,2517.297
				c55.573,30.336,149.129,81.406,268.031,68.521c216.168-23.426,375.784-243.032,431.399-429.569
				c47.772-160.227,10.758-333.707-63.266-680.671c-69.715-326.771-122.452-409.961-61.262-503.685
				c87.233-133.614,282.676-99.727,361.069-270.858c9.406-20.536,41.716-91.067,14.848-157.424
				c-45.991-113.593-233.113-135.233-343.504-122.998c-106.481,11.801-266.507,68.965-318.164,194.47
				c-37.427,90.931,13.827,140.488-34.979,209.452c-49.105,69.386-115.801,40.148-236.008,114.136
				c-48.024,29.558-144.419,88.89-178.214,190.101c-43.697,130.868,56.824,213.286,0.355,301.569
				c-40.8,63.788-106.62,41.615-166.682,102.388c-79.07,80.008-61.339,215.921-45.072,328.826
				C800.332,1994.506,852.008,2353.194,1152.628,2517.297z"/>
			<path style="opacity:0.16;fill:#FFFFFF;" d="M2038.977,546.056c10.308,74.286-250.535,72.937-401.332,280.61
				c-162.249,223.447-98.118,552.56-68.48,704.654c50.565,259.496,137.162,309.857,120.393,522.414
				c-6.637,84.126-20.463,259.388-161.088,371.112c-13.065,10.38-160.451,123.931-321.833,78.454
				c-183.053-51.582-244.934-268.547-298.257-455.494c-32.219-112.964-96.584-338.623-0.88-406.402
				c58.504-41.434,163.355-14.328,226.614,29.175c90.291,62.089,108.228,166.083,128.421,160.569
				c18.187-4.966,21.132-94.115-3.847-189.573c-49.964-190.933-160.567-211.896-184.861-365.514
				c-2.946-18.62-24.137-166.495,69.188-255.97c53.824-51.605,147.142-85.125,199.179-51.195
				c58.854,38.374,39.505,146.463,60.98,148.163c20.534,1.625,50.701-96.212,66.392-197.262
				c23.055-148.477-4.353-180.169,26.902-256.141c47.685-115.91,162.633-166.47,179.261-173.501
				C1831.544,424.268,2030.164,482.543,2038.977,546.056z"/>
		</g>
		<g>
			
				<linearGradient id="SVGID_00000090997688179598690800000002258713425343306932_" gradientUnits="userSpaceOnUse" x1="3127.4133" y1="979.9549" x2="1611.4392" y2="2870.1978">
				<stop  offset="0.0036" style="stop-color:#E38DDD"/>
				<stop  offset="1" style="stop-color:#9571F6"/>
			</linearGradient>
			<path style="fill:url(#SVGID_00000090997688179598690800000002258713425343306932_);" d="M3041.021,2975.534l-1362.643,87.626
				V860.889l1362.643,46.45c43.278,1.475,78.23,44.65,78.23,96.438v1872.954C3119.251,2928.52,3084.298,2972.751,3041.021,2975.534z
				"/>
			
				<linearGradient id="SVGID_00000062189675836519051510000016015571568294395026_" gradientUnits="userSpaceOnUse" x1="2642.1641" y1="1887.3606" x2="2980.0906" y2="738.4078">
				<stop  offset="0" style="stop-color:#AB316D"/>
				<stop  offset="1" style="stop-color:#792D3D"/>
			</linearGradient>
			<polygon style="fill:url(#SVGID_00000062189675836519051510000016015571568294395026_);" points="2996.375,1837.948 
				2595.197,1842.025 2595.197,892.142 2996.375,905.817 			"/>
			<polygon style="fill:#FFFFFF;" points="2859.26,1133.635 2735.737,1130.778 2735.737,983.986 2859.26,987.692 			"/>
			<polygon style="fill:#FFFFFF;" points="2975.149,1274.035 2852.977,1272.008 2852.977,1126.023 2975.149,1128.891 			"/>
		</g>
		<g>
			<polygon style="fill:#FFFFFF;" points="2665.85,3028.738 1262.893,3128.947 1262.893,992.273 2665.85,1034.324 			"/>
			<g>
				
					<linearGradient id="SVGID_00000025419622489064695560000003392371249468909226_" gradientUnits="userSpaceOnUse" x1="1743.9939" y1="1164.6594" x2="1481.4111" y2="1652.8245">
					<stop  offset="0.0036" style="stop-color:#E38DDD"/>
					<stop  offset="1" style="stop-color:#9571F6"/>
				</linearGradient>
				<polygon style="fill:url(#SVGID_00000025419622489064695560000003392371249468909226_);" points="2053.597,1454.618 
					1262.893,1448.02 1262.893,1193.53 2053.597,1209.678 				"/>
				<g>
					
						<linearGradient id="SVGID_00000048477240456729819850000003706033821628163215_" gradientUnits="userSpaceOnUse" x1="1817.0964" y1="1305.4811" x2="1686.2358" y2="1548.7626">
						<stop  offset="0" style="stop-color:#FF9085"/>
						<stop  offset="1" style="stop-color:#FB6FBB"/>
					</linearGradient>
					<polygon style="fill:url(#SVGID_00000048477240456729819850000003706033821628163215_);" points="1868.214,1502.721 
						1679.412,1501.603 1679.412,1269.177 1868.214,1272.419 					"/>
					
						<linearGradient id="SVGID_00000080885594915568244340000002197253920480159383_" gradientUnits="userSpaceOnUse" x1="2003.9563" y1="1537.3419" x2="1873.8157" y2="1779.285">
						<stop  offset="0" style="stop-color:#FF9085"/>
						<stop  offset="1" style="stop-color:#FB6FBB"/>
					</linearGradient>
					<polygon style="fill:url(#SVGID_00000080885594915568244340000002197253920480159383_);" points="2053.597,1732.034 
						1868.214,1733.022 1868.214,1502.721 2053.597,1503.818 					"/>
				</g>
			</g>
			<polygon style="fill:#D8DEE8;" points="2444.774,2148.288 1510.859,2172.912 1510.859,1912.347 2444.774,1899.409 			"/>
			<polygon style="fill:#D8DEE8;" points="2444.774,2511.126 1510.859,2552.788 1510.859,2292.223 2444.774,2262.248 			"/>
		</g>
		<polygon style="fill:#D8DEE8;" points="1620.387,2705.989 1620.18,3105.466 1764.171,3099.776 		"/>
		<g>
			
				<linearGradient id="SVGID_00000132070626202693001770000011714086583580819898_" gradientUnits="userSpaceOnUse" x1="1673.8435" y1="2931.1157" x2="2562.76" y2="2931.1157" gradientTransform="matrix(1 0 0.1496 0.9906 -470.4149 29.3223)">
				<stop  offset="0.0036" style="stop-color:#E38DDD"/>
				<stop  offset="1" style="stop-color:#9571F6"/>
			</linearGradient>
			<path style="fill:url(#SVGID_00000132070626202693001770000011714086583580819898_);" d="M2532.854,3164.214l-830.744,59.388
				c-9.401,0.672-17.676-7.392-19.083-18.596l-62.64-499.017c-1.621-12.916,6.452-24.657,17.301-25.16l833.343-38.682
				c9.266-0.43,17.32,7.587,18.705,18.618l60.041,478.311C2551.375,3151.811,2543.541,3163.45,2532.854,3164.214z"/>
			<g>
				
					<linearGradient id="SVGID_00000151523630536686949470000004066737233012671625_" gradientUnits="userSpaceOnUse" x1="2180.8191" y1="2640.6694" x2="1922.3849" y2="3121.1216" gradientTransform="matrix(1 0 0.1496 0.9906 -470.4149 29.3223)">
					<stop  offset="0" style="stop-color:#FF9085"/>
					<stop  offset="1" style="stop-color:#FB6FBB"/>
				</linearGradient>
				<polygon style="fill:url(#SVGID_00000151523630536686949470000004066737233012671625_);" points="2463.177,2861.184 
					1645.7,2907.638 1624.952,2742.352 2443.206,2702.089 				"/>
				<g>
					<polygon style="fill:#FFFFFF;" points="2341.698,2900.464 2214.699,2907.875 2195.869,2757.861 2322.98,2751.346 					"/>
					<polygon style="fill:#FFFFFF;" points="2485.795,3041.373 2360.417,3049.582 2341.698,2900.464 2467.188,2893.14 					"/>
				</g>
			</g>
		</g>
		<g>
			
				<linearGradient id="SVGID_00000146458188955338964650000008351172746509416090_" gradientUnits="userSpaceOnUse" x1="2726.3965" y1="3123.1599" x2="2748.9414" y2="3528.9756" gradientTransform="matrix(-1 0 0 1 3846.3843 0)">
				<stop  offset="0" style="stop-color:#444B8C"/>
				<stop  offset="0.9964" style="stop-color:#26264F"/>
			</linearGradient>
			<path style="fill:url(#SVGID_00000146458188955338964650000008351172746509416090_);" d="M1063.513,3267.461
				c0,0-2.819,22.434-0.927,29.948c1.895,7.517,67.118,12.947,89.257,10.334c22.139-2.612-13.188-25.228-27.293-29.47
				C1110.445,3274.029,1063.513,3267.461,1063.513,3267.461z"/>
			
				<linearGradient id="SVGID_00000175290037047897183000000008799869073206047126_" gradientUnits="userSpaceOnUse" x1="2768.9761" y1="3323.1516" x2="2756.9995" y2="2775.2432" gradientTransform="matrix(-1 0 0 1 3846.3843 0)">
				<stop  offset="0" style="stop-color:#FFC444"/>
				<stop  offset="0.9964" style="stop-color:#F36F56"/>
			</linearGradient>
			<path style="fill:url(#SVGID_00000175290037047897183000000008799869073206047126_);" d="M1096.345,3230.039l-6.875,45.007
				c0,0-17.53,7.879-25.958,0.092l-0.927-47.11L1096.345,3230.039z"/>
			
				<linearGradient id="SVGID_00000072246446985431133110000000037276278654601139_" gradientUnits="userSpaceOnUse" x1="3134.4517" y1="3100.4976" x2="3156.9956" y2="3506.2957" gradientTransform="matrix(-1 0 0 1 3846.3843 0)">
				<stop  offset="0" style="stop-color:#444B8C"/>
				<stop  offset="0.9964" style="stop-color:#26264F"/>
			</linearGradient>
			<path style="fill:url(#SVGID_00000072246446985431133110000000037276278654601139_);" d="M728.66,3228.029
				c0,0,13.841,10.269,10.151,22.568c-3.688,12.299-35.982,61.58-58.996,75.567c-23.013,13.988-15.8-15.154-9.103-33.303
				c6.698-18.15,23.812-58.131,30.492-64.832C707.882,3221.329,728.66,3228.029,728.66,3228.029z"/>
			
				<linearGradient id="SVGID_00000013193921647191225260000000641295661641739908_" gradientUnits="userSpaceOnUse" x1="3128.2363" y1="3315.2991" x2="3116.26" y2="2767.3887" gradientTransform="matrix(-1 0 0 1 3846.3843 0)">
				<stop  offset="0" style="stop-color:#FFC444"/>
				<stop  offset="0.9964" style="stop-color:#F36F56"/>
			</linearGradient>
			<path style="fill:url(#SVGID_00000013193921647191225260000000641295661641739908_);" d="M753.555,3178.583
				c-6.69,18.647-13.125,33.979-18.158,45.286c-11.134,25.019-17.222,34.406-24.113,42.544
				c-6.013,7.089-20.242,22.215-24.066,19.696c-3.885-2.552,6.527-20.944,26.591-74.803c2.916-7.814,12.12-32.723,12.12-32.723l0,0
				H753.555z"/>
			
				<linearGradient id="SVGID_00000044165113940396819470000004132105625062146696_" gradientUnits="userSpaceOnUse" x1="3220.4441" y1="2492.0566" x2="2509.4905" y2="2943.7222" gradientTransform="matrix(-1 0 0 1 3846.3843 0)">
				<stop  offset="0" style="stop-color:#311944"/>
				<stop  offset="1" style="stop-color:#A03976"/>
			</linearGradient>
			<path style="fill:url(#SVGID_00000044165113940396819470000004132105625062146696_);" d="M1232.936,2399.389
				c4.774,46.872,9.353,119.621,2.506,207.914c-8.924,115.032-31.927,187.825-60.772,310.479
				c-17.63,74.956-41.384,185.279-62.88,323.254c-4.988,2.855-19.662,10.36-38.555,7.559c-10.577-1.572-18.489-5.775-23.16-8.8
				c-56.401-172.343-39.743-279.143-12.523-345.682c11.6-28.362,25.667-50.739,33.186-94.338
				c9.951-57.683-2.352-89.929-19.895-223.545c-12.503-95.234-10.339-109.956-2.019-124.238
				C1082.079,2394.889,1183.796,2396.005,1232.936,2399.389z"/>
			
				<linearGradient id="SVGID_00000117660371890753847020000003186456278788521645_" gradientUnits="userSpaceOnUse" x1="2764.0525" y1="3004.9363" x2="3296.9985" y2="2507.9194" gradientTransform="matrix(-1 0 0 1 3846.3843 0)">
				<stop  offset="0" style="stop-color:#311944"/>
				<stop  offset="1" style="stop-color:#A03976"/>
			</linearGradient>
			<path style="fill:url(#SVGID_00000117660371890753847020000003186456278788521645_);" d="M1038.804,2419.432
				c-34.551,178.431-68.463,272.147-94.125,325.154c-6.329,13.071-27.444,55.247-47.405,115.711
				c-17.671,53.52-25.035,92.89-28.807,110.219c-11.912,54.695-41.351,134.555-120.567,239.299
				c-0.987,0.582-14.495,8.22-27.408,1.411c-6.535-3.449-9.793-8.945-11.089-11.507c10.357-100.145,22.246-184.297,32.563-249.245
				c2.168-13.623,11.702-73.219,26.656-151.958c5.851-30.813,14.426-75.962,24.698-122.334
				c12.788-57.748,32.4-136.311,62.623-230.45C916.896,2436.963,977.851,2428.201,1038.804,2419.432z"/>
			
				<linearGradient id="SVGID_00000129915720191952649260000006915046998873573770_" gradientUnits="userSpaceOnUse" x1="2315.9207" y1="1914.7853" x2="2904.4258" y2="1861.7369" gradientTransform="matrix(-1 0 0 1 3846.3843 0)">
				<stop  offset="0" style="stop-color:#FFC444"/>
				<stop  offset="0.9964" style="stop-color:#F36F56"/>
			</linearGradient>
			<path style="fill:url(#SVGID_00000129915720191952649260000006915046998873573770_);" d="M1587.904,1983.209
				c-7.8-9.143-15.601-18.284-23.401-27.425c-3.713,2.839-57.634,42.6-122.08,19.346c-44.373-16.012-65.535-57.209-79.103-83.513
				c-40.751-79.008-3.089-127.612-50.93-184.092c-13.286-15.683-40.76-36.253-60.909-33.935
				c-48.007,5.521-94.018,141.213-64.359,257.074c5.986,23.385,38.95,152.15,150.219,181.031
				C1427.182,2135.016,1532.936,2084.1,1587.904,1983.209z"/>
			
				<linearGradient id="SVGID_00000050646520815649537530000015796378091556410272_" gradientUnits="userSpaceOnUse" x1="3432.0986" y1="2323.2048" x2="2909.9316" y2="1871.903" gradientTransform="matrix(-1 0 0 1 3846.3843 0)">
				<stop  offset="0" style="stop-color:#311944"/>
				<stop  offset="1" style="stop-color:#6B3976"/>
			</linearGradient>
			<path style="fill:url(#SVGID_00000050646520815649537530000015796378091556410272_);" d="M1068.236,1713.661
				c19.596-18.113,57.083-38.993,75.885-87.531c5.661-14.61,25.71-66.378-3.867-105.976c-17.556-23.507-50.165-39.468-78.907-33.817
				c-24.561,4.828-28.401,21.935-70.137,56.363c-16.244,13.4-42.357,34.939-71.42,46.913c-49.79,20.52-79.704,1.212-129.691,3.415
				c-61.409,2.707-132.747,36.979-167.116,86.816c-61.005,88.454,27.364,178.184-39.453,281.806
				c-21.896,33.948-32.686,26.338-84.542,92.058c-51.926,65.804-77.889,98.703-73.271,139.023
				c6.414,55.958,66.686,109.411,123.443,113.043c55.441,3.553,90.686-40.068,118.912-20.986
				c20.091,13.574,8.604,39.988,29.94,71.726c27.505,40.923,81.567,49.077,90.297,50.389
				c81.04,12.226,190.309-82.802,236.718-195.385C1108.713,2008.5,961.71,1812.13,1068.236,1713.661z"/>
			
				<linearGradient id="SVGID_00000021806385335237829050000015755107656138229647_" gradientUnits="userSpaceOnUse" x1="2624.0447" y1="2988.6626" x2="2851.594" y2="2683.2673" gradientTransform="matrix(-1 0 0 1 3846.3843 0)">
				<stop  offset="0" style="stop-color:#311944"/>
				<stop  offset="1" style="stop-color:#6B3976"/>
			</linearGradient>
			<path style="opacity:0.3;fill:url(#SVGID_00000021806385335237829050000015755107656138229647_);" d="M1037.552,2894.113
				c11.6-28.364,25.667-50.741,33.186-94.338c9.951-57.683-2.352-89.929-19.895-223.545
				c-12.503-95.234-10.339-109.956-2.019-124.238c18.072-31.031,56.371-44.8,95.455-50.424c-0.522,2.004-1.048,4.012-1.473,5.952
				c-20.507,93.653,57.758,150.796,22.456,253.746c-17.406,50.757-45.177,62.383-51.647,121.261
				c-6.062,55.153,15.922,66.641,11.226,116.769c-7.019,74.933-60.25,93.068-74.102,150.452c-9,37.288-1.421,91.81,64.316,170.73
				c-1.092,6.8-2.182,13.62-3.263,20.559c-4.991,2.855-19.662,10.36-38.555,7.559c-10.577-1.572-18.489-5.775-23.16-8.8
				C993.675,3067.452,1010.333,2960.652,1037.552,2894.113z"/>
			
				<linearGradient id="SVGID_00000046334105124771185110000000952380246933007542_" gradientUnits="userSpaceOnUse" x1="2592.4912" y1="2267.3403" x2="3019.9709" y2="2267.3403" gradientTransform="matrix(-0.9905 -0.1373 -0.1373 0.9905 4466.6221 96.6064)">
				<stop  offset="0" style="stop-color:#FFC444"/>
				<stop  offset="0.9964" style="stop-color:#F36F56"/>
			</linearGradient>
			<path style="fill:url(#SVGID_00000046334105124771185110000000952380246933007542_);" d="M1243.359,1808.486
				c74.435,77.612,47.574,202.952,98.07,216.495c15.424,4.137,16.23-8.015,55.355-14.995c57.225-10.21,80.455,11.338,120.848,3.153
				c16.73-3.39,39.139-12.478,63.49-37.877c2.26,2.65,4.522,5.298,6.781,7.948c-54.968,100.891-160.722,151.807-250.561,128.486
				c-111.269-28.881-144.233-157.646-150.219-181.031c-13.916-54.363-11.172-113.093,0.621-160.692
				C1206.259,1778.278,1225.949,1790.333,1243.359,1808.486z"/>
			
				<linearGradient id="SVGID_00000112612621061175790310000002109437535140391556_" gradientUnits="userSpaceOnUse" x1="2341.2576" y1="2195.8699" x2="2929.7617" y2="2142.8215" gradientTransform="matrix(-1 0 0 1 3846.3843 0)">
				<stop  offset="0" style="stop-color:#FFC444"/>
				<stop  offset="0.9964" style="stop-color:#F36F56"/>
			</linearGradient>
			<path style="fill:url(#SVGID_00000112612621061175790310000002109437535140391556_);" d="M1305.073,1700.171
				c-5.17-8.034-21.613-30.289-91.382-46.694c-25.023-5.884-65.246-14.768-116.589-12.885c-8.605,0.316-36.339,1.733-66.227,8.211
				c-63.704,13.802-190.698,62.306-195.125,128.379c-3.16,47.184,59.751,50.216,95.343,133.746
				c25.931,60.856,25.763,136.878-2.526,196.014c-22.704,47.461-62.868,83.089-93.37,110.155
				c-45.754,40.588-69.45,46.825-84.788,83.19c-16.704,39.599,0.128,58.909-20.616,86.018
				c-22.278,29.113-48.38,15.581-86.142,45.022c-38.682,30.156-24.917,54.976-60.118,88.303
				c-51.152,48.419-118.961,32.693-122.117,54.48c-2.717,18.741,45.476,44.172,86.42,54.482
				c81.084,20.423,151.81-13.855,172.84-24.423c58.229-29.254,48.171-48.187,92.566-70.49c74.335-37.339,125.138,4.213,294.449,8.49
				c91.688,2.321,138.048,2.843,163.448-28.177c23.196-28.337,11.002-59.416-2.918-193.364c0,0,0-0.003-0.001-0.016
				c-4.473-44.732-13.839-138.392-13.896-191.765c-0.033-31.543,10.905-83.082,32.785-186.159
				c1.292-6.078,13.131-61.765,22.699-136.156C1318.421,1739.542,1317.172,1718.973,1305.073,1700.171z"/>
			<g>
				
					<linearGradient id="SVGID_00000045621432696907438150000006513137377589803412_" gradientUnits="userSpaceOnUse" x1="2967.7014" y1="1651.4581" x2="3096.6489" y2="2440.0237" gradientTransform="matrix(-1 0 0 1 3846.3843 0)">
					<stop  offset="0" style="stop-color:#FFC444"/>
					<stop  offset="0.9964" style="stop-color:#F36F56"/>
				</linearGradient>
				<path style="fill:url(#SVGID_00000045621432696907438150000006513137377589803412_);" d="M583.531,2519.627
					c35.201-33.327,21.435-58.147,60.118-88.301c37.761-29.441,63.864-15.909,86.142-45.022
					c20.745-27.109,3.912-46.419,20.616-86.017c15.339-36.365,39.034-42.6,84.788-83.192
					c30.502-27.065,70.667-62.694,93.371-110.154c39.404-82.362,11.853-170.295,2.525-196.015
					c-29.974-82.673-90.501-126.249-112.435-140.531c2.112-2.275,104.579,88.946,107.243,86.216
					c144.505,19.858,128.785,9.546,139.205,34.272c24.088,57.152-14.046,78.151-15.03,242.983
					c-0.467,78.788,8.029,109.898-17.533,142.783c-29.237,37.61-62.931,25.971-105.207,75.148
					c-32.485,37.78-27.283,61.734-57.616,77.652c-32.615,17.113-53.39-2.833-90.178,5.012
					c-61.458,13.105-74.597,83.97-115.227,122.74c-30.724,29.317-87.528,49.814-199.559,27.813
					c-2.59-3.773-3.843-7.455-3.342-10.906C464.573,2552.321,532.379,2568.047,583.531,2519.627z"/>
			</g>
			
				<linearGradient id="SVGID_00000165216849226973336150000002208564767937798563_" gradientUnits="userSpaceOnUse" x1="2749.5725" y1="1670.0813" x2="2888.7957" y2="1467.983" gradientTransform="matrix(-1 0 0 1 3846.3843 0)">
				<stop  offset="0" style="stop-color:#FFC444"/>
				<stop  offset="0.9964" style="stop-color:#F36F56"/>
			</linearGradient>
			<path style="fill:url(#SVGID_00000165216849226973336150000002208564767937798563_);" d="M1077.777,1559.474
				c0,0-7.287,58.26-28.791,71.611c-21.505,13.341-56.268,30.778-60.096,35.512c-3.83,4.726,133.21,19.462,201.123-14.81l0,0
				c-22.38-4.667-28.465-6.383-28.465-6.383c-6.074-1.718-17.405-4.91-28.764-11.385c-7.731-4.402-20.194-13.003-31.624-29.245
				l0.25-32.26L1077.777,1559.474z"/>
			
				<linearGradient id="SVGID_00000140722760434850657400000012110879705779702658_" gradientUnits="userSpaceOnUse" x1="2736.9529" y1="1567.5724" x2="2957.0146" y2="1435.0861" gradientTransform="matrix(-1 0 0 1 3846.3843 0)">
				<stop  offset="0" style="stop-color:#FFC444"/>
				<stop  offset="0.9964" style="stop-color:#F36F56"/>
			</linearGradient>
			<path style="fill:url(#SVGID_00000140722760434850657400000012110879705779702658_);" d="M1074.507,1580.109
				c0,0,14.021,19.243,36.007,11.224c19.689-7.181,7.939-58.028-7.678-63.829c-5.208-1.933-14.773-1.078-21.167,2.911
				c-4.498,2.805-16.506,17.722-9.623,34.439c-4.974-1.441-9.351-0.133-10.446,2.331c-1.393,3.123,2.82,7.378,3.771,8.341
				C1068.679,1578.869,1072.668,1579.803,1074.507,1580.109z"/>
			<g>
				
					<linearGradient id="SVGID_00000130621382150591531320000007759718935973978279_" gradientUnits="userSpaceOnUse" x1="3185.5291" y1="4906.0249" x2="3412.8149" y2="5049.4893" gradientTransform="matrix(-0.4231 -0.9061 -0.9061 0.4231 7053.6567 2981.0581)">
					<stop  offset="0" style="stop-color:#AB316D"/>
					<stop  offset="1" style="stop-color:#792D3D"/>
				</linearGradient>
				<path style="fill:url(#SVGID_00000130621382150591531320000007759718935973978279_);" d="M603.156,2374.44
					c0.641,34.393,13.941,62.875,39.899,85.445l1183.089-552.452l-39.899-85.445L603.156,2374.44z"/>
				
					<linearGradient id="SVGID_00000034779723085999068190000006927967049755895455_" gradientUnits="userSpaceOnUse" x1="3361.8213" y1="4920.8052" x2="3205.4512" y2="4943.3745" gradientTransform="matrix(-0.4231 -0.9061 -0.9061 0.4231 7053.6567 2981.0581)">
					<stop  offset="0" style="stop-color:#AB316D"/>
					<stop  offset="1" style="stop-color:#792D3D"/>
				</linearGradient>
				<path style="fill:url(#SVGID_00000034779723085999068190000006927967049755895455_);" d="M622.693,2437.369
					c-6.833-9.856-11.876-20.548-15.128-32.076l1191.296-556.285l15.005,32.134L622.693,2437.369z"/>
				
					<linearGradient id="SVGID_00000030475787673756789090000016855004496236132782_" gradientUnits="userSpaceOnUse" x1="3261.4724" y1="3984.5339" x2="3184.3159" y2="4754.1729" gradientTransform="matrix(-0.4231 -0.9061 -0.9061 0.4231 7053.6567 2981.0581)">
					<stop  offset="0" style="stop-color:#FFC444"/>
					<stop  offset="0.9964" style="stop-color:#F36F56"/>
				</linearGradient>
				<path style="fill:url(#SVGID_00000030475787673756789090000016855004496236132782_);" d="M1786.244,1821.988
					c-3.31,35.844,9.799,64.41,39.899,85.445l249.159-165.001c2.805-2.012,0.749-6.415-2.594-5.556L1786.244,1821.988z"/>
				
					<linearGradient id="SVGID_00000078756505687789850880000003495501702968158103_" gradientUnits="userSpaceOnUse" x1="3235.9172" y1="3917.2646" x2="3229.4692" y2="4194.5244" gradientTransform="matrix(-0.4231 -0.9061 -0.9061 0.4231 7053.6567 2981.0581)">
					<stop  offset="0" style="stop-color:#AB316D"/>
					<stop  offset="1" style="stop-color:#792D3D"/>
				</linearGradient>
				<path style="fill:url(#SVGID_00000078756505687789850880000003495501702968158103_);" d="M2075.302,1742.432l-96.856,64.141
					c-8.791-10.835-14.487-23.043-17.142-36.598l111.404-33.099C2076.051,1736.017,2078.107,1740.42,2075.302,1742.432z"/>
			</g>
			
				<linearGradient id="SVGID_00000175303694877787427580000001363609456048424856_" gradientUnits="userSpaceOnUse" x1="2265.9485" y1="1993.785" x2="2335.314" y2="2417.9832" gradientTransform="matrix(-1 0 0 1 3846.3843 0)">
				<stop  offset="0" style="stop-color:#FFC444"/>
				<stop  offset="0.9964" style="stop-color:#F36F56"/>
			</linearGradient>
			<path style="fill:url(#SVGID_00000175303694877787427580000001363609456048424856_);" d="M1548.608,2033.163
				c0,0,37.376-33.49,50.772-53.584c13.396-20.094,6.698,23.443,0,36.839C1592.682,2029.814,1544.722,2063.305,1548.608,2033.163z"
				/>
			
				<linearGradient id="SVGID_00000086664461777144219070000009200935942321607578_" gradientUnits="userSpaceOnUse" x1="2974.6318" y1="2179.7913" x2="2963.0273" y2="1707.3306" gradientTransform="matrix(-1 0 0 1 3846.3843 0)">
				<stop  offset="0" style="stop-color:#FFC444"/>
				<stop  offset="0.9964" style="stop-color:#F36F56"/>
			</linearGradient>
			<path style="fill:url(#SVGID_00000086664461777144219070000009200935942321607578_);" d="M931.206,1683.159
				c-43.498,21.547-180.263,86.2-210.103,272.697c-29.839,186.498,129.305,283.477,129.305,283.477l37.3-24.866
				c0,0-39.786-290.936,101.952-372.995C1131.398,1759.412,931.206,1683.159,931.206,1683.159z"/>
			
				<linearGradient id="SVGID_00000155852019670168401300000009851846708098931605_" gradientUnits="userSpaceOnUse" x1="2908.8728" y1="2215.5627" x2="3029.4741" y2="2303.8381" gradientTransform="matrix(-1 0 0 1 3846.3843 0)">
				<stop  offset="0" style="stop-color:#FFC444"/>
				<stop  offset="0.9964" style="stop-color:#F36F56"/>
			</linearGradient>
			<path style="fill:url(#SVGID_00000155852019670168401300000009851846708098931605_);" d="M878.888,2220.346
				c8.819,1.581,13.792,9.041,33.685-0.906c19.893-9.947,69.626,2.487,69.626,2.487s-24.867,22.38-52.219,17.406
				c-27.353-4.973-52.727,8.526-59.933,10.479c-7.206,1.954-9.687-17.115-9.687-17.115L878.888,2220.346z"/>
		</g>
	</g>
</g>
</svg>
