<svg version="1.2" xmlns="http://www.w3.org/2000/svg" viewBox="0 0 2976 2892" width="2976" height="2892"><defs><linearGradient id="P" gradientUnits="userSpaceOnUse"/><linearGradient id="g1" x2="1" href="#P" gradientTransform="matrix(1617.036,0,0,2414.636,573.193,1478.676)"><stop stop-color="#09005d"/><stop offset="1" stop-color="#1a0f91"/></linearGradient><linearGradient id="g2" x2="1" href="#P" gradientTransform="matrix(-9.06,878.791,-13383.998,-137.99,1181.878,202.015)"><stop stop-color="#e1473d"/><stop offset="1" stop-color="#e9605a"/></linearGradient><linearGradient id="g3" x2="1" href="#P" gradientTransform="matrix(333.442,-296.764,237.447,266.794,246.417,1773.765)"><stop stop-color="#4f52ff"/><stop offset="1" stop-color="#4042e2"/></linearGradient><linearGradient id="g4" x2="1" href="#P" gradientTransform="matrix(330.143,-428.783,129.478,99.692,655.66,1615.29)"><stop stop-color="#febbba"/><stop offset="1" stop-color="#ff928e"/></linearGradient><linearGradient id="g5" x2="1" href="#P" gradientTransform="matrix(-73.233,0,0,-61.36,289.337,2632.537)"><stop stop-color="#4f52ff"/><stop offset="1" stop-color="#4042e2"/></linearGradient><linearGradient id="g6" x2="1" href="#P" gradientTransform="matrix(-105.387,-1231.716,286.882,-24.546,598.784,2921.327)"><stop stop-color="#febbba"/><stop offset="1" stop-color="#ff928e"/></linearGradient><linearGradient id="g7" x2="1" href="#P" gradientTransform="matrix(-118.496,0,0,-90.024,629.571,2619.167)"><stop stop-color="#4f52ff"/><stop offset="1" stop-color="#4042e2"/></linearGradient><linearGradient id="g8" x2="1" href="#P" gradientTransform="matrix(-105.415,-1232.04,781.685,-66.882,386.79,2939.654)"><stop stop-color="#febbba"/><stop offset="1" stop-color="#ff928e"/></linearGradient><linearGradient id="g9" x2="1" href="#P" gradientTransform="matrix(335.208,-761.016,601.733,265.049,238.365,2486.448)"><stop stop-color="#e1473d"/><stop offset="1" stop-color="#e9605a"/></linearGradient><linearGradient id="g10" x2="1" href="#P" gradientTransform="matrix(263.483,421.573,-471.611,294.757,305.904,1703.218)"><stop stop-color="#4f52ff"/><stop offset="1" stop-color="#4042e2"/></linearGradient><linearGradient id="g11" x2="1" href="#P" gradientTransform="matrix(-34.223,334.17,-157.531,-16.133,608.405,1311.231)"><stop stop-color="#febbba"/><stop offset="1" stop-color="#ff928e"/></linearGradient><linearGradient id="g12" x2="1" href="#P" gradientTransform="matrix(-109.706,-335.1,251.456,-82.322,645.591,1532.809)"><stop stop-color="#febbba"/><stop offset="1" stop-color="#ff928e"/></linearGradient><linearGradient id="g13" x2="1" href="#P" gradientTransform="matrix(333.443,-296.765,175.565,197.264,196.888,1718.114)"><stop stop-color="#4f52ff"/><stop offset="1" stop-color="#4042e2"/></linearGradient><linearGradient id="g14" x2="1" href="#P" gradientTransform="matrix(-109.705,-335.098,188.402,-61.679,605.511,1545.932)"><stop stop-color="#febbba"/><stop offset="1" stop-color="#ff928e"/></linearGradient><linearGradient id="g15" x2="1" href="#P" gradientTransform="matrix(330.143,-428.783,180.161,138.715,676.279,1631.166)"><stop stop-color="#febbba"/><stop offset="1" stop-color="#ff928e"/></linearGradient><linearGradient id="g16" x2="1" href="#P" gradientTransform="matrix(30.196,-203.32,132.628,19.697,926.576,1271.78)"><stop stop-color="#febbba"/><stop offset="1" stop-color="#ff928e"/></linearGradient><linearGradient id="g17" x2="1" href="#P" gradientTransform="matrix(351.576,0,0,391.974,194.981,1819.143)"><stop stop-color="#febbba"/><stop offset="1" stop-color="#ff928e"/></linearGradient><linearGradient id="g18" x2="1" href="#P" gradientTransform="matrix(-1847.627,3043.154,-2972.348,-1804.638,2103.227,-318.33)"><stop stop-color="#e1473d"/><stop offset="1" stop-color="#e9605a"/></linearGradient><linearGradient id="g19" x2="1" href="#P" gradientTransform="matrix(-1847.626,3043.152,-3765.231,-2286.031,2244.273,-232.696)"><stop stop-color="#e1473d"/><stop offset="1" stop-color="#e9605a"/></linearGradient><linearGradient id="g20" x2="1" href="#P" gradientTransform="matrix(-124.432,911.367,-904.347,-123.473,1107.664,743.782)"><stop stop-color="#e1473d"/><stop offset="1" stop-color="#e9605a"/></linearGradient><linearGradient id="g21" x2="1" href="#P" gradientTransform="matrix(-124.432,911.373,-900.787,-122.987,1237.356,761.482)"><stop stop-color="#e1473d"/><stop offset="1" stop-color="#e9605a"/></linearGradient><linearGradient id="g22" x2="1" href="#P" gradientTransform="matrix(-124.432,911.367,-904.346,-123.473,1375.909,780.4)"><stop stop-color="#e1473d"/><stop offset="1" stop-color="#e9605a"/></linearGradient><linearGradient id="g23" x2="1" href="#P" gradientTransform="matrix(-124.432,911.372,-900.786,-122.987,1650.605,817.907)"><stop stop-color="#e1473d"/><stop offset="1" stop-color="#e9605a"/></linearGradient><linearGradient id="g24" x2="1" href="#P" gradientTransform="matrix(-124.432,911.367,-904.347,-123.473,1789.158,836.823)"><stop stop-color="#e1473d"/><stop offset="1" stop-color="#e9605a"/></linearGradient><linearGradient id="g25" x2="1" href="#P" gradientTransform="matrix(-124.432,911.373,-900.795,-122.988,1505.6,798.105)"><stop stop-color="#e1473d"/><stop offset="1" stop-color="#e9605a"/></linearGradient><linearGradient id="g26" x2="1" href="#P" gradientTransform="matrix(11.8,0,0,19.428,761.213,761.416)"><stop stop-color="#dae3fe"/><stop offset="1" stop-color="#e9effd"/></linearGradient><linearGradient id="g27" x2="1" href="#P" gradientTransform="matrix(446.204,0,0,407.128,346.197,1011.65)"><stop stop-color="#dae3fe"/><stop offset="1" stop-color="#e9effd"/></linearGradient><linearGradient id="g28" x2="1" href="#P" gradientTransform="matrix(19.431,0,0,12.651,290.094,1178.509)"><stop stop-color="#dae3fe"/><stop offset="1" stop-color="#e9effd"/></linearGradient><linearGradient id="g29" x2="1" href="#P" gradientTransform="matrix(526.619,0,0,514.785,185.147,876.609)"><stop stop-color="#4f52ff"/><stop offset="1" stop-color="#4042e2"/></linearGradient><linearGradient id="g30" x2="1" href="#P" gradientTransform="matrix(116.269,0,0,113.644,390.327,876.612)"><stop stop-color="#dae3fe"/><stop offset="1" stop-color="#e9effd"/></linearGradient><linearGradient id="g31" x2="1" href="#P" gradientTransform="matrix(298.117,0,0,291.472,300.142,875.551)"><stop stop-color="#dae3fe"/><stop offset="1" stop-color="#e9effd"/></linearGradient><linearGradient id="g32" x2="1" href="#P" gradientTransform="matrix(292.681,0,0,292.587,640.325,521.882)"><stop stop-color="#4f52ff"/><stop offset="1" stop-color="#4042e2"/></linearGradient><linearGradient id="g33" x2="1" href="#P" gradientTransform="matrix(69.171,0,0,69.172,752.073,521.876)"><stop stop-color="#dae3fe"/><stop offset="1" stop-color="#e9effd"/></linearGradient><linearGradient id="g34" x2="1" href="#P" gradientTransform="matrix(15.116,0,0,17.917,921.754,416.147)"><stop stop-color="#dae3fe"/><stop offset="1" stop-color="#e9effd"/></linearGradient><linearGradient id="g35" x2="1" href="#P" gradientTransform="matrix(157.681,0,0,243.293,809.857,579.33)"><stop stop-color="#dae3fe"/><stop offset="1" stop-color="#e9effd"/></linearGradient><linearGradient id="g36" x2="1" href="#P" gradientTransform="matrix(20.472,0,0,8.668,751.838,697.745)"><stop stop-color="#dae3fe"/><stop offset="1" stop-color="#e9effd"/></linearGradient><linearGradient id="g37" x2="1" href="#P" gradientTransform="matrix(170.264,0,0,170.246,701.902,521.279)"><stop stop-color="#dae3fe"/><stop offset="1" stop-color="#e9effd"/></linearGradient></defs><style>.a{fill:#bdd0fb}.b{opacity:.4;fill:#fff}.c{fill:#91b3fa}.d{fill:url(#g1)}.e{opacity:.5;fill:#fff}.f{fill:#fff}.g{fill:url(#g2)}.h{fill:url(#g3)}.i{fill:url(#g4)}.j{fill:url(#g5)}.k{fill:url(#g6)}.l{fill:url(#g7)}.m{fill:url(#g8)}.n{fill:url(#g9)}.o{fill:url(#g10)}.p{fill:url(#g11)}.q{fill:url(#g12)}.r{fill:url(#g13)}.s{fill:url(#g14)}.t{fill:url(#g15)}.u{fill:url(#g16)}.v{fill:url(#g17)}.w{fill:url(#g18)}.x{fill:url(#g19)}.y{fill:url(#g20)}.z{fill:url(#g21)}.A{fill:url(#g22)}.B{fill:url(#g23)}.C{fill:url(#g24)}.D{fill:url(#g25)}.E{fill:url(#g26)}.F{fill:url(#g27)}.G{fill:url(#g28)}.H{fill:url(#g29)}.I{fill:url(#g30)}.J{fill:url(#g31)}.K{fill:url(#g32)}.L{fill:url(#g33)}.M{fill:url(#g34)}.N{fill:url(#g35)}.O{fill:url(#g36)}.P{fill:url(#g37)}</style><path class="a" d="m2831.1 939.7c-0.1-16.2-21.9-21.6-29.4-7.1-72.5 139.4-274 499.1-503 664.6-372.9 269.3-687.6 767.3-551.6 1087.6 0 0 1095.7 26 1084-1745.1z"/><path class="b" d="m2757.8 1145c-1.4 4.7-2.9 8.6-4.4 12.7l-4.5 12.3-9.4 24.3c-6.4 16.2-13 32.3-19.6 48.3-13.3 32.1-27.1 64-41.1 95.8-28.2 63.6-58.1 126.4-88.9 188.7-30.7 62.3-63.2 123.8-97 184.6-33.8 60.8-68.5 121.1-105.2 180.2-73.1 118.4-152.7 232.9-240.1 341.3-44.2 53.7-89.9 106.4-138.5 156.2-49 49.5-100.1 96.9-154.4 140.4-1.2 0.9-2.9 0.8-3.9-0.4-0.9-1.2-0.7-2.8 0.4-3.8 52.4-45.4 102.3-93.6 149.7-144 47.5-50.4 92.1-103.5 135.2-157.6 43.2-54.2 84.1-110.1 123.7-166.9 39.6-56.8 76.9-115.3 113.8-173.9 73.3-117.6 140.4-239.1 204-362.3 31.7-61.7 62.1-124 91.5-186.9 14.7-31.4 29.1-62.9 43.2-94.6l20.6-47.8 10.1-23.9 4.9-12.1c1.6-3.9 3.3-8.2 4.5-11.7l0.2-0.6c0.5-1.4 2.1-2.1 3.5-1.7 1.4 0.5 2.1 2 1.7 3.4z"/><path class="c" d="m2390.2 251.7c-4.6-14.9-26.1-13.8-29 1.5-28.4 147.7-115 532.5-279.9 746.7-268.6 348.7-421.3 891.2-209.1 1147.9 0 0 1011.8-275.1 518-1896.1z"/><path class="b" d="m2379 460c0 4.7-0.3 8.6-0.5 12.9l-0.9 12.4-1.9 24.9c-1.5 16.6-3.1 33.1-4.8 49.6-3.5 33.1-7.4 66.1-11.6 99.1-8.4 66-18.7 131.7-30 197.3-11.2 65.6-24.2 130.8-38.6 195.8-14.4 64.9-29.8 129.7-47.3 193.9-34.7 128.5-76.5 255.3-127.1 378.5-25.9 61.4-53.4 122.1-84.4 181.1-31.5 58.7-65.4 116.1-103.4 170.8-0.8 1.2-2.5 1.5-3.7 0.7-1.2-0.8-1.5-2.4-0.7-3.6v-0.1c35.7-55.9 68.3-113.7 97.9-172.9 29.9-59.1 56.3-120 81.1-181.4 24.7-61.4 47-123.9 67.8-186.8 20.9-62.9 39.1-126.7 56.9-190.5 35.2-127.9 63.5-257.6 88.3-387.9 12.2-65.2 23.2-130.7 32.9-196.3 5-32.8 9.6-65.7 13.8-98.6l6-49.4 2.7-24.7 1.2-12.4c0.4-4 0.8-8.4 1-11.9v-0.6c0-1.5 1.3-2.6 2.7-2.6 1.5 0.1 2.6 1.3 2.6 2.7z"/><path class="d" d="m602.8 394.4c-9.5 384.7-40.4 1711.8-25.7 2182.1 1.6 49.8 41.5 89.8 91.3 91.4 246.4 8.1 955.3 28.5 1358.3 11.6 84-3.5 150.7-71.5 152.4-155.5 8.4-403.8 26.9-1539.6-17-2059.9-5.3-62.4-54.2-112-116.5-118.2-268.3-26.9-981-92.5-1329.2-69.9-62.8 4.1-112 55.5-113.6 118.4z"/><path class="c" d="m702.9 514c-13.4 315.1-55.9 1363.3-42.4 1750.9 2 56.6 46.6 102.4 103.2 105.7 233 13.7 830.7 43.7 1172.4 16.4 61.6-5 109.9-54.7 113.2-116.4 17.3-321.4 67-1297.5 54.1-1680.7-2.1-61.2-49.4-111.1-110.3-116.6-252.1-22.6-899.5-76.4-1189.9-60.6-54.6 3-97.9 46.7-100.3 101.3z"/><path class="e" d="m1211.8 343.2c0 11.8 9.2 21.6 21 22.2 58.2 3 222.1 11.7 295.4 15.9 14.4 0.8 25.8-12.1 23-26.3l-0.4-2.5c-1.9-9.7-9.9-17-19.8-17.9-49.5-4.5-199-17.1-298-13.6-11.9 0.5-21.2 10.3-21.2 22.2z"/><path class="f" d="m1863.7 1650.1l-990.7-19c-32.3-0.6-56.6 37-53.9 83.6 2.6 46.1 36.3 60 67.9 59.5l969.2 7.8c19.8-0.3 37.5-29.5 39.7-65.4 2.2-36.2-12.1-66.1-32.2-66.5z"/><path class="f" d="m1866.4 1954l-990.7-19.1c-32.3-0.6-56.6 37-53.9 83.6 2.6 46.2 36.3 60.1 67.9 59.6l969.2 7.7c19.8-0.3 37.5-29.4 39.7-65.4 2.2-36.2-12.1-66.1-32.2-66.4z"/><path class="g" d="m1441 1691.7l-537.6-5.6c-17.5-0.2-30.7 9.9-29.2 22.4 1.4 12.4 19.7 16.1 36.9 16l525.9 2.6c10.8-0.1 20.4-7.9 21.6-17.6 1.1-9.7-6.7-17.7-17.6-17.8z"/><path class="h" d="m553.8 1362.1c0 0-29.1 14.2-34.4 30.4-4.3 13.1-36.5 14.8-39.7 40.5-1.6 13.2-11.5 23.8-24.7 25.8-32.8 5.1-83.5 22.2-91.6 79.2-6.2 43.6 16 60.1 39.3 65.9 17.1 4.2 28.5 20.8 25.1 38.1-3.4 16.6 1.6 35.8 30.3 50.9 64.4 34 128.7-80.5 128.7-80.5l13.1-199.8z"/><path class="i" d="m904.1 1314.7c0 0-128.5 203.3-281.4 242.6 0 0 29.8 84.8 52.8 94.5 0 0 188-156.9 236.3-308.2z"/><path class="j" d="m289.3 2615l-4.2 34.2c-0.8 6.5-5.9 11.6-12.4 12.4-11 1.2-28.6 2.5-45.9 0.7-7.5-0.8-12.4-8.5-10.1-15.7 4.2-13.2 11.9-33.1 22.9-44.7h38c7.1 0 12.5 6.1 11.6 13.1z"/><path class="k" d="m586.8 2213.8l6.4 37.8c0 0-21.5 217.4-25.3 304.4-0.6 13.7 2.9 27.1 10.1 38.8l37.3 60.6-94.9-56-1.9-11.6 15.6-21.3-20.4-243.7c-1.2-14.3 1.8-28.6 8.5-41.3l19.7-36.9z"/><path class="l" d="m621.6 2664.2h-30.3c-5.7 0-11-2.6-14.5-7.1-9.4-12.3-29-36.2-38.3-36.8-12.6-0.9-11 43.9-11 43.9h-7.1l-8.9-55.6c-2.3-14 4.7-27.9 17.3-34.4 0 0 2.8 21.2 18.5 30.7 15.6 9.4 63.4 43.1 63.4 43.1 0 0 5.9-0.9 12.4 0.3 9.5 1.7 8.2 15.9-1.5 15.9z"/><path class="m" d="m456.8 2231.8c0-0.1-125.8 238.5-145.8 293-20 54.5-27 99.9-27.2 104.2-0.5 6.8-8.8 13.2-31.9 13.2-11.9 0-17.7-4.7-20.5-9.4-2.5-3.9-2.6-8.8-0.6-13 7.3-14.7 30.4-61.8 39-83.1 10.2-25.5 32.1-141 44.2-181.1 12-40.2 25.6-83.7 78.1-123.8 0-0.1 36-35.3 64.7-0.1z"/><path class="n" d="m536.3 1840.8c32.4-137.5-49.8-215.3-49.8-215.3 51.9-49.7 146.4-72.4 146.4-72.4 0 0 90.2 65.9 79.5 117.5-6.3 30.3-63.4 181.2-63.4 181.2 0 0-52.8 25-112.7-11z"/><path class="o" d="m464.3 1908.9c13.2-39.8 72-68.1 72-68.1 59.9 36 112.7 11 112.7 11 0 0 11.8 45.2 3.6 87.3-8.1 42.1-59.4 312.5-59.4 312.5-80.8 16.3-205.1-16.5-205.1-16.5 51.5-91.4 63-286.5 76.2-326.2z"/><path class="p" d="m573.9 1462.3l-26.3 118.4c-2.6 10.5 6.9 8.8 17.5 6.8 17.3-3.3 39.5-10 47-23.4 0.8-1.4 1.1-2.9 1.3-4.5l11.4-82.2c0.9-6.5-2.6-12.8-8.7-15.5l-21.8-9.7c-8.5-3.7-18.2 1.1-20.4 10.1z"/><path class="q" d="m624.5 1354.2c0 0 28 19 40.1 67.5 12.1 48.4-7.5 65.7-27.6 64.7-20.1-1.1-49.3-7.3-74.5-42-25.3-34.8 25.2-113.4 62-90.2z"/><path class="r" d="m587.9 1424.8c0 0-10.3-69.3 47.3-58.7l11.7 12.1c0 0 28.2-31.7-3-55.7-31.2-24-74.5-17.9-98.5 25.8-23.9 43.7-32.6 74.4-12.5 101.5 20 27.2 35.1 3.9 35.1 3.9 0 0-9.2-23.5-1.5-33.6 7.6-10.1 17.5 5.9 17.5 5.9z"/><path class="s" d="m580.1 1430.8c0 0-5.1-35.7-23.4-25.5-18.2 10.2 6.6 33.3 16.6 41.2z"/><path class="t" d="m903.2 1356.6c0.4 4.2-15.2 7.1-20.2-10.8 1.4-7.8 3.8-41.7 9.8-47 31.7-28.1 88.2-59.8 88.2-59.8 6.3 9.7-2 16-2 16l-28.2 19.1c3 9.7 7.2 18.3 7.7 29.5 0.4 8.4-2.7 16.6-8.3 23-5.6 6.4-13.2 14.7-20 21-12.9 11.9-27 9-27 9z"/><path class="u" d="m918.5 1342.7l-4.3-1.7c0.6-1.4 14.2-34.3 20.7-41.2 2.5-2.6 3.7-4.8 3.6-6.6q-0.1-1.4-1.5-2.9l-22.8 12.2-10.1 15.8-3.9-2.5 10.7-16.8 26.7-14.3 1.2 1c2.7 2.2 4.1 4.6 4.3 7.2 0.2 3.2-1.4 6.5-4.9 10.1-4.9 5.2-15.9 30.4-19.7 39.7z"/><path class="v" d="m486.5 1625.5c0 0-146 299.9-198.9 326.1 0 0-53.7 5.6-86.6 15.6-8.2 2.5-8 14.2 0.4 16.5 22.9 6.2 60.8 11.4 95.5-7.4 0 0-18.6 27.9-7.7 38.8 0 0 24.8-29.5 34.2-38.8 8.2-8.3 157.7-171.3 220.6-269.6 5.1-8 1.6-31.6-2-40.3-8.1-20.2-26.1-52.3-55.5-40.9z"/><path class="f" d="m1381.7 1450.6c-242.2 0-438-195.8-438-438 0-242.3 195.8-438.1 438-438.1 242.2 0 438.1 195.8 438.1 438.1 0 242.2-195.9 438-438.1 438z"/><path class="w" d="m1523.8 854.9c0 74.7-60.6 155.4-135.3 155.4-74.8 0-135.4-80.7-135.4-155.4 0-74.8 60.6-127.8 135.4-127.8 74.7 0 135.3 53 135.3 127.8z"/><path class="x" d="m1220.5 1298h330.4c34.8 0 65.5-22.4 76.1-55.6l17.8-55.5c13-40.7-8.1-84.7-48.2-99.4-134.5-49.2-273.5-42.9-415.9 4.5-39.9 13.3-62 56-51 96.5l13.7 50.5c9.4 34.8 41 59 77.1 59z"/><path class="y" d="m970.6 2005.4c-0.6 19.5-16.8 35.1-36.2 34.9-19.5-0.2-34.7-16.2-34.1-35.7 0.6-19.5 16.9-35.1 36.3-34.8 19.4 0.2 34.7 16.2 34 35.6z"/><path class="z" d="m1102.3 2007c-0.7 19.3-16.8 34.9-36 34.7-19.3-0.2-34.5-16.1-33.8-35.5 0.6-19.5 16.7-35 36-34.8 19.3 0.3 34.4 16.2 33.8 35.6z"/><path class="A" d="m1243.4 2009.3c-0.7 19.5-16.9 35.1-36.3 34.9-19.5-0.2-34.7-16.2-34.1-35.7 0.6-19.5 16.9-35.1 36.3-34.9 19.5 0.3 34.7 16.2 34.1 35.7z"/><path class="B" d="m1522.4 2012.6c-0.6 19.4-16.7 34.9-35.9 34.7-19.3-0.2-34.5-16.1-33.9-35.5 0.7-19.4 16.8-35 36.1-34.7 19.3 0.2 34.4 16.1 33.7 35.5z"/><path class="C" d="m1663.5 2014.9c-0.6 19.5-16.8 35.1-36.2 34.9-19.5-0.2-34.7-16.2-34.1-35.7 0.6-19.5 16.9-35.1 36.3-34.8 19.4 0.2 34.7 16.2 34 35.6z"/><path class="D" d="m1375 2010.8c-0.7 19.4-16.8 35-36 34.7-19.3-0.2-34.4-16.1-33.8-35.5 0.6-19.4 16.8-34.9 36-34.7 19.3 0.2 34.4 16.2 33.8 35.5z"/><path class="c" d="m144.7 1032.4c-1.3 0-2.6-0.6-3.2-1.9-2.1-4-4.1-8.2-6-12.3-0.8-1.7-0.1-3.7 1.7-4.5 4.2-1.9 4.8 2.9 10.5 13.8 0.8 1.6 0.1 3.7-1.6 4.5q-0.7 0.4-1.4 0.4z"/><path class="c" d="m120.1 978.4c-2.6-8.4-4.9-16.9-6.8-25.4-0.5-1.8 0.7-3.6 2.6-4 5.1-1.1 3.1 2.8 10.8 27.4 0.6 1.8-0.5 3.7-2.3 4.2-1.9 0.6-3.8-0.5-4.3-2.2zm-13.6-67.5c-0.8-8.7-1.3-17.6-1.5-26.1 0-4.6 6.9-4.6 7-0.2 0.1 8.6 0.6 17.2 1.4 25.7 0.2 1.9-1.2 3.5-3.1 3.7-2 0.2-3.6-1.2-3.8-3.1zm0.6-68.7c1-8.6 2.3-17.3 4-25.9 0.9-4.4 7.7-3.1 6.8 1.3-1.6 8.3-2.9 16.9-3.9 25.4-0.5 4.4-7.4 3.7-6.9-0.8zm17.2-62.9c-1.8-0.6-2.8-2.5-2.2-4.3 2.8-8.2 5.9-16.5 9.4-24.6 1.7-4.1 8.1-1.5 6.3 2.6-3.3 7.9-6.4 16-9.1 24.1-0.6 1.8-2.6 2.8-4.4 2.2zm27.8-62.5c-1.7-0.9-2.3-3-1.3-4.6 4.4-7.5 9.2-15 14.3-22.2 2.6-3.7 8.3 0.1 5.7 3.8-4.9 7.1-9.7 14.4-14 21.8-1 1.6-3.1 2.2-4.7 1.2zm42.5-54.8c-0.8 0.1-1.7-0.2-2.4-0.8-1.4-1.3-1.6-3.4-0.3-4.8 5.9-6.5 12.2-12.9 18.6-18.9 1.4-1.3 3.6-1.3 4.9 0 1.3 1.4 1.3 3.5-0.1 4.8-6.3 5.9-12.4 12.2-18.2 18.6-0.7 0.7-1.6 1.1-2.5 1.1zm51.3-46c-1.1 0-2.2-0.5-2.9-1.4-1.1-1.5-0.8-3.6 0.7-4.7 7.2-5.2 14.6-10.2 22.1-14.9 1.7-1 3.8-0.5 4.8 1.1 1 1.5 0.6 3.6-1.1 4.6-7.4 4.6-14.6 9.5-21.6 14.6-0.6 0.4-1.3 0.6-2 0.7zm56.5-36.9c-0.8-1.7 0-3.7 1.7-4.5 8.1-3.7 16.4-7.1 24.8-10.1 4.3-1.6 6.7 4.8 2.4 6.3-8.2 3-16.3 6.3-24.3 9.9-1.7 0.8-3.7 0.1-4.6-1.6zm232.5-18.3c-25.2-6.5-29.4-4.5-28.4-9.5 0.3-1.9 2.1-3.1 4-2.7 8.8 1.5 17.6 3.4 26.2 5.6 4.4 1.2 2.7 7.7-1.8 6.6zm-166.9-4.6c-0.4-1.8 0.8-3.6 2.6-4 8.7-2 17.6-3.7 26.4-5 4.5-0.7 5.5 6 1 6.7-8.6 1.3-17.3 2.9-25.8 4.9-1.9 0.4-3.7-0.8-4.2-2.6zm98.8-5.8c-25.9-1.2-29.7 1.6-29.8-3.5-0.1-3.3 3.8-3.7 3.4-3.5 8.9-0.3 17.9-0.2 26.8 0.3 1.9 0.1 3.4 1.7 3.3 3.5-0.1 1.8-1.6 3.3-3.7 3.2z"/><path class="c" d="m588.2 579.3c-10.6-4.7-16.3-5.4-14.5-9.7 0.7-1.7 2.7-2.6 4.5-1.9 11.2 4.5 16.4 5.9 14.6 9.9-0.6 1.2-2.9 2.5-4.6 1.7z"/><path class="E" d="m769.7 771.1c-1.5 0.1-2.9-0.8-3.4-2.2-1.5-4.2-3.2-8.4-4.8-12.6-0.7-1.7 0.1-3.7 1.9-4.4 1.8-0.6 3.8 0.2 4.5 1.9 1.7 4.2 3.4 8.5 4.9 12.8 0.7 1.8-0.3 3.7-2.1 4.3q-0.5 0.2-1 0.2z"/><path class="F" d="m451.9 1215.2c-9.6 0.1-19.3-0.2-28.8-0.9-1.9-0.1-3.4-1.7-3.2-3.6 0.4-5.2 3.9-2 32-2.3 1.9 0 3.4 1.5 3.5 3.4 0 3.2-3.8 3.6-3.5 3.4zm42.9-6.5c-0.8-5.2 3.5-2.8 30.7-9.1 1.9-0.4 3.7 0.7 4.2 2.6 0.4 1.8-0.8 3.6-2.6 4-9.3 2.2-18.9 3.9-28.4 5.3-1.9 0.3-3.6-1-3.9-2.8zm-118.2-0.8c-9.4-1.9-18.8-4.3-27.9-7-1.9-0.6-2.9-2.4-2.4-4.2 1.6-5.1 4.3-1.1 31.8 4.6 1.8 0.4 3 2.2 2.6 4-0.4 1.8-2.2 3-4.1 2.6zm194.2-15c-1.4 0.1-2.8-0.7-3.4-2.1-0.6-1.8 0.3-3.7 2-4.4 8.8-3.3 17.6-7 26-11 1.7-0.8 3.8-0.1 4.6 1.5 0.9 1.7 0.1 3.8-1.6 4.6-8.6 4.1-17.5 7.8-26.5 11.2q-0.5 0.2-1.1 0.2zm66.5-33.7c-1.1 0.1-2.3-0.5-3-1.5-1-1.5-0.6-3.6 1-4.7 7.8-5.1 15.5-10.6 22.8-16.3 1.5-1.2 3.7-0.9 4.9 0.5 1.2 1.5 0.9 3.6-0.6 4.8-7.5 5.9-15.3 11.5-23.3 16.7-0.5 0.3-1.2 0.5-1.8 0.5zm57.4-47.1c-0.9 0-1.8-0.3-2.5-1-1.4-1.2-1.5-3.4-0.1-4.7 6.5-6.7 12.7-13.7 18.6-20.8 1.2-1.5 3.4-1.7 4.9-0.6 1.5 1.2 1.7 3.3 0.5 4.8-6 7.3-12.4 14.4-19 21.2-0.7 0.7-1.5 1-2.4 1.1zm45.5-58.3c-0.6 0.1-1.3-0.1-1.9-0.4-1.6-1-2.2-3.1-1.2-4.7 4.9-7.9 9.5-16 13.6-24.3 0.9-1.6 3-2.3 4.7-1.5 1.7 0.8 2.4 2.8 1.5 4.5-4.2 8.4-8.9 16.8-13.8 24.8-0.7 1-1.8 1.6-2.9 1.6zm30.2-66.7c-5.1-1.6-0.9-4.1 5.7-30.8 1.1-4.4 7.8-2.8 6.7 1.5-2.2 9.2-4.9 18.3-8 27.2-0.6 1.8-2.5 2.7-4.4 2.1zm16.5-71.5c-5.3-0.5-1.9-3.8-1.4-31.3 0.1-4.4 7-4.4 6.9 0.1-0.2 9.4-0.7 18.9-1.7 28.2-0.2 1.9-1.9 3.2-3.8 3zm-0.2-73.2c-1.8 0.1-3.4-1.2-3.6-2.9-1.1-9.2-2.7-18.4-4.5-27.3-0.4-1.9 0.8-3.7 2.7-4 1.8-0.4 3.7 0.8 4.1 2.6 1.9 9.1 3.4 18.5 4.6 27.8 0.2 1.9-1.2 3.6-3.1 3.8q-0.1 0-0.2 0z"/><path class="G" d="m304.6 1184.5c-11-4.9-16.1-6.6-14.1-10.5 2.2-4.1 5.8-0.7 17 4.4 1.8 0.8 2.5 2.8 1.7 4.5-0.8 1.7-2.9 2.4-4.6 1.6z"/><path class="H" d="m305.9 1090.8l42.9-24.7c20.6 10.3 43.1 17.6 66.7 21 20.2 42.9 18.6 47.3 23.9 46.9l59.4-4.7c1.7-0.2 3.2-1.4 3.6-3l12.5-47c22.7-7.2 43.8-17.8 62.5-31.3l46.2 17.7c1.6 0.6 3.5 0.1 4.6-1.1l38.7-44.4c1.1-1.3 1.3-3.2 0.4-4.7l-25.2-41.8c10.7-20.2 18.1-42.1 21.7-65.2l45.5-19.5c1.6-0.7 2.6-2.3 2.5-4l-4.7-58.1c-0.2-1.7-1.4-3.1-3.1-3.5l-48.1-12.1c-7.2-22.2-18.1-42.7-31.9-61 16.8-44.5 21.1-46.4 17.1-49.7-45.2-36.3-45.4-40.9-50.1-38.2l-42.8 24.8c-20.7-10.4-43.1-17.6-66.7-21.1-20.2-42.8-18.6-47.3-23.9-46.9-59 5.7-61.8 2.7-63.1 7.7l-12.5 47c-22.7 7.2-43.7 17.8-62.4 31.3-45-16.1-47.4-20.5-50.9-16.5-37.5 44.6-41.8 44.5-39.1 49l25.2 41.8c-10.6 20.2-18.1 42.1-21.7 65.2-43 19.5-48.4 18.2-47.9 23.5 5.7 57.4 2.5 60.3 7.7 61.6l48.1 12.1c7.3 22.2 18.1 42.7 31.9 61-16.8 44.4-21.1 46.4-17 49.7 45.1 36.3 45.3 40.9 50 38.2z"/><path fill-rule="evenodd" class="I" d="m393.4 894.9c-10.3-29.6 6.1-62 36.4-72.1 30.4-10.1 63.5 5.8 73.7 35.5 10.3 29.7-6 62-36.4 72.1-30.4 10.1-63.4-5.8-73.7-35.5zm39.8-62.5c-24.7 8.2-38.5 34.5-30 59.2 8.5 24.4 35.6 37.5 60.6 29.2 24.9-8.3 38.3-34.9 29.9-59.2-8.5-24.4-35.6-37.4-60.5-29.2zm32.2 93.2h0.1z"/><path class="J" d="m454.9 1021.2c-8.6 0.3-17.2-0.1-25.7-1.2-2.5-0.3-4.4-2.4-4.5-4.8q0-0.4 0.1-0.9c0.4-2.7 3-4.7 5.8-4.3 9.7 1.2 19.7 1.5 29.5 0.7 74.4-5.9 130.5-68.3 127.7-140.5q-0.1-2.7-0.4-5.5c-6-75-73-130.2-149.1-124.2-76 6-133.3 71.3-127.3 146 3.6 44.5 26 65.9 26.1 70.6 0.2 5-6.4 7.2-9.4 3.1-16.3-22.3-26.3-49.5-27.4-78.8-5-126.4 147.3-198.7 245.7-116.8 30.2 25.2 48.6 60.5 51.8 99.3q0.2 3 0.3 6c1.5 36.6-11 72-35.5 100.1-25.9 29.6-62 47.7-101.7 50.8q-3 0.3-6 0.4z"/><path class="K" d="m740 633.6c11.9 5 24.7 8.1 38 9.1l13 24.3c1.4 2.7 3.2 0.5 35.1-4.1 2.9-0.4 1.4-2.6 6.6-29 12.3-5.1 23.5-12 33.2-20.5l26.4 8c3 0.9 2.7-1.9 22-27.7 0.5-0.7 0.5-1.8 0-2.6l-15.9-22.6c5-11.9 8.1-24.7 9-37.9 23.1-13 26-12.4 25.6-15.4-5.8-32.3-4.2-34.1-7.1-34.6l-27.2-4.8c-5.1-12.2-12-23.4-20.5-33.2l8-26.4c0.9-2.9-1.9-2.6-27.7-21.9-2.4-1.8-2.8 0.8-25.2 15.8-11.9-4.9-24.7-8.1-37.9-9l-13.1-24.3c-1.4-2.7-3.2-0.5-35.1 4-2.9 0.5-1.4 2.6-6.6 29.1-12.3 5-23.4 12-33.2 20.4l-26.4-8c-0.9-0.3-1.9 0.1-2.5 0.9l-19.4 26.8c-0.6 0.8-0.6 1.9-0.1 2.7l15.9 22.6c-5 11.9-8.1 24.7-9 37.9-23 12.9-26 12.4-25.5 15.4 5.7 32.3 4.1 34.1 7.1 34.6l27.2 4.7c5 12.3 12 23.5 20.4 33.2-7.1 25.4-9.6 27.2-7.1 29l26.8 19.4c2.4 1.7 2.9-0.9 25.2-15.9z"/><path fill-rule="evenodd" class="L" d="m754.9 535.6c-7.6-17.6 0.5-37.9 18.1-45.5 17.5-7.5 37.9 0.6 45.4 18.1 7.6 17.5-0.6 37.9-18.1 45.4-17.5 7.6-37.9-0.5-45.4-18zm9.5-4.1c5.3 12.3 19.6 18 31.9 12.7 19.7-8.5 19.4-36.9-0.7-44.9-19.9-7.9-39.8 12.3-31.2 32.2zm33.9 17.4z"/><path class="c" d="m655.5 646.8c-3.2-3.4-6.3-6.9-9.3-10.6-1.2-1.4-0.9-3.6 0.5-4.8 3.7-3 5.5 1.9 13.8 10.6 1.3 1.4 1.2 3.6-0.2 4.9-1.3 1.3-3.5 1.2-4.8-0.1z"/><path class="c" d="m622 597.2c-3.8-8.3-7.1-17.2-9.7-26.5-1.3-4.4 5.4-6.3 6.6-1.9 6.8 24.1 12.9 27.7 7.7 30.1-1.8 0.8-3.8 0-4.6-1.7zm-12.9-68.6c-1.9 0-3.5-1.5-3.5-3.4-0.2-9.4 0.4-18.9 1.7-28.2 0.6-4.5 7.4-3.6 6.8 0.9-1.3 9-1.8 18.1-1.7 27.2 0.1 3.3-3.7 3.7-3.3 3.5zm13.5-71.2q-0.7 0-1.4-0.3c-1.8-0.7-2.6-2.7-1.9-4.4 3.6-8.7 7.9-17.2 12.8-25.3 1-1.6 3.1-2.1 4.8-1.1 1.6 1 2.1 3.1 1.1 4.7-4.7 7.7-8.9 15.9-12.3 24.3-0.6 1.3-1.8 2.1-3.1 2.1zm40.7-59.9c-0.9 0-1.9-0.3-2.6-1.1-1.3-1.3-1.3-3.5 0.1-4.8 6.8-6.6 14.1-12.6 21.8-18 1.6-1.1 3.7-0.7 4.8 0.8 1.1 1.6 0.7 3.7-0.8 4.8-7.4 5.2-14.5 11-21 17.3-0.6 0.6-1.5 1-2.3 1zm58-40.9c-0.7-1.7 0.2-3.7 2-4.4 8.8-3.3 18-5.9 27.2-7.8 4.4-1 5.8 5.8 1.4 6.7-8.9 1.8-17.7 4.4-26.2 7.5-1.8 0.7-3.8-0.2-4.4-2z"/><path class="c" d="m809.5 349.1c-12.5-1.7-16.9-0.2-16.7-4.9 0.1-1.9 1.7-3.3 3.7-3.2 4.6 0.2 9.3 0.7 13.9 1.3 1.9 0.2 3.2 2 2.9 3.8-0.2 1.9-1.9 3.2-3.8 3z"/><path class="M" d="m930.6 423.6c-7.1-10.4-11.1-12.8-7.5-15.7 1.5-1.1 3.7-0.9 4.8 0.6 2.9 3.6 5.7 7.4 8.4 11.2 1 1.6 0.6 3.7-0.9 4.8-1.6 1.1-3.7 0.7-4.8-0.9z"/><path class="N" d="m809.9 698.1c-0.8-5.7 5.3-2.6 29-10 4.3-1.4 6.4 5.2 2.1 6.5-8.9 2.8-18 4.9-27.2 6.3-1.8 0.3-3.6-0.9-3.9-2.8zm67.4-23.4c-1-1.6-0.5-3.7 1.1-4.7 21.3-13.2 22.7-19.8 26.5-15.4 1.2 1.4 1 3.6-0.4 4.8-7 6-14.6 11.6-22.5 16.4-1.6 1-3.7 0.5-4.7-1.1zm52.8-47.9c-4.7-3.3 1.8-5.5 12.8-27.8 2-4.1 8.2-1 6.1 3.1-4.1 8.3-8.8 16.3-14.2 23.9-1 1.5-3.2 1.9-4.7 0.8zm29.7-64.8c-5.6-1.1-0.5-5.7 0.9-30.6 0.2-4.5 7.1-4.1 6.8 0.4-0.5 9.2-1.7 18.5-3.7 27.6-0.4 1.9-2.2 3-4 2.6zm-2.2-73.9c-4.8-24.5-10.5-28.2-5.1-30.2 1.7-0.7 3.7 0.3 4.4 2 3.1 8.8 5.7 17.8 7.5 26.9 0.3 1.8-0.9 3.6-2.7 4-1.9 0.4-3.7-0.8-4.1-2.7z"/><path class="O" d="m768.5 702.1c-4.6-0.5-9.3-1.2-13.8-2-1.9-0.3-3.1-2.1-2.8-4 0.8-4.7 5.4-2.1 17.3-0.9 1.9 0.2 3.3 1.9 3.1 3.8-0.2 1.9-1.9 3.3-3.8 3.1z"/><path class="P" d="m782.6 606.3c-3.2-0.2-5.2-2.7-5-5.4 0.1-2.9 2.6-5.1 5.4-4.9 5.2 0.3 10.6 0 15.9-0.9 1-0.3 29.1-2.9 48.7-30 38.9-53.7-6.8-128.2-72.4-117.7-37.8 6.1-64.4 39.5-62.9 76.8 1.4 37.5 25.3 45.3 16.8 52.4-2.2 1.9-5.4 1.6-7.3-0.6-9.9-11.7-16.4-26-18.8-41.2-7.4-46.3 24.1-90.1 70.5-97.6 50-8 96.6 29.4 98.6 80.9 1.6 41.6-27.8 80.2-71.6 87.2-5.9 1-11.9 1.3-17.9 1z"/></svg>