<?xml version="1.0" encoding="utf-8"?>
<!-- Generator: Adobe Illustrator 27.5.0, SVG Export Plug-In . SVG Version: 6.00 Build 0)  -->
<svg version="1.1" xmlns="http://www.w3.org/2000/svg" xmlns:xlink="http://www.w3.org/1999/xlink" x="0px" y="0px"
	 viewBox="0 0 500 500" style="enable-background:new 0 0 500 500;" xml:space="preserve">
<g id="Background_Complete">
	<g>
		
			<rect x="106.299" y="127.097" transform="matrix(0.9945 -0.1047 0.1047 0.9945 -29.2792 26.2824)" style="fill:#E0E0E0;" width="258.773" height="329.823"/>
	</g>
	<g>
		
			<rect x="123.212" y="138.885" transform="matrix(0.9889 -0.1484 0.1484 0.9889 -40.3164 40.6057)" style="fill:#EBEBEB;" width="257.634" height="303.332"/>
	</g>
	<g>
		<g>
			<path style="fill:#E0E0E0;" d="M457.123,148.556c0,0-10.085-6.669-22.38,17.455c-12.295,24.123-16.953,38.036-16.953,38.036
				s-3.25,5.054-6.722,1.751s-8.227-12.676-14.129-10.988c-6.12,1.75-8.136,8.581-6.969,18.618s2.917,32.122,3.068,34.119
				c0.148,1.961-0.975,4.85-3.701,2.979c-2.726-1.872-18.407-19.335-26.248-11.398c-7.841,7.937,0.005,35.365,0.805,38.379
				c0.8,3.015,0.21,4.302-1.222,5.049c-1.432,0.746-6.15-5.62-10.813-10.404c-4.663-4.784-10.909-9.514-15.049-4.556
				s-5.465,25.538,14.121,58.965l10.089,14.895l18.043-1.001c38.481-4.496,54.112-17.947,55.577-24.238
				c1.465-6.291-6.073-8.429-12.7-9.271c-6.628-0.842-14.551-0.774-14.818-2.366c-0.267-1.593,0.406-2.839,3.295-4.016
				c2.889-1.177,29.51-11.431,31.124-22.47c1.614-11.04-21.771-13.041-24.906-14.09c-3.136-1.049-1.506-3.685,0.149-4.748
				c1.685-1.082,20.37-12.985,29.085-18.099c8.716-5.113,12.955-10.835,10.666-16.775c-2.207-5.727-12.552-3.88-17.281-4.662
				c-4.728-0.782-2.65-6.42-2.65-6.42s8.301-12.097,20.155-36.44c11.854-24.343,0.15-28.423,0.15-28.423"/>
		</g>
		<g>
			<g>
				<path style="fill:#EBEBEB;" d="M446.076,170.141c0,0-0.067,0.181-0.223,0.523c-0.168,0.36-0.403,0.862-0.705,1.509
					c-0.641,1.342-1.569,3.286-2.759,5.778c-2.401,5.016-5.928,12.248-10.319,21.168c-8.776,17.843-21.106,42.39-34.811,69.456
					c-13.709,27.075-26.095,51.594-34.961,69.391c-4.416,8.888-7.993,16.087-10.477,21.086c-1.231,2.472-2.19,4.4-2.853,5.731
					c-0.324,0.637-0.575,1.13-0.755,1.484c-0.173,0.333-0.274,0.497-0.274,0.497s0.067-0.181,0.223-0.522
					c0.168-0.36,0.402-0.861,0.705-1.509c0.641-1.342,1.569-3.285,2.759-5.777c2.401-5.015,5.927-12.247,10.319-21.167
					c8.776-17.844,21.108-42.393,34.817-69.468c13.704-27.066,26.089-51.582,34.955-69.379c4.416-8.888,7.993-16.088,10.478-21.088
					c1.231-2.473,2.19-4.4,2.853-5.732c0.324-0.637,0.575-1.13,0.755-1.485C445.974,170.305,446.076,170.141,446.076,170.141z"/>
			</g>
		</g>
		<g>
			<g>
				<path style="fill:#EBEBEB;" d="M403.065,208.187c0.037-0.011,0.197,0.424,0.454,1.22c0.261,0.795,0.603,1.955,1.014,3.392
					c0.815,2.876,1.839,6.878,2.889,11.313c1.02,4.378,1.942,8.337,2.647,11.365c0.326,1.363,0.602,2.513,0.823,3.437
					c0.198,0.811,0.29,1.265,0.253,1.276c-0.037,0.011-0.2-0.422-0.463-1.217c-0.258-0.796-0.602-1.957-0.997-3.399
					c-0.786-2.885-1.758-6.898-2.808-11.333c-1.051-4.368-2.001-8.319-2.728-11.341c-0.334-1.362-0.615-2.511-0.841-3.435
					C403.116,208.653,403.028,208.198,403.065,208.187z"/>
			</g>
		</g>
		<g>
			<g>
				<path style="fill:#EBEBEB;" d="M412.798,240.511c-0.043-0.148,8.113-2.623,18.215-5.527c10.105-2.905,18.328-5.139,18.371-4.99
					c0.043,0.148-8.112,2.623-18.217,5.527C421.066,238.425,412.841,240.659,412.798,240.511z"/>
			</g>
		</g>
		<g>
			<g>
				<path style="fill:#EBEBEB;" d="M389.874,281.133c0.002-0.039,0.474-0.058,1.327-0.061c0.968,0.004,2.176,0.008,3.611,0.013
					c3.047,0.006,7.256-0.003,11.9-0.183c4.645-0.17,8.844-0.47,11.881-0.712c1.43-0.112,2.635-0.207,3.599-0.283
					c0.851-0.062,1.323-0.079,1.328-0.04c0.004,0.038-0.46,0.128-1.304,0.257c-0.844,0.128-2.069,0.292-3.586,0.46
					c-3.033,0.343-7.24,0.706-11.898,0.877c-4.657,0.181-8.878,0.127-11.928,0.02c-1.525-0.06-2.759-0.122-3.61-0.19
					C390.343,281.225,389.873,281.171,389.874,281.133z"/>
			</g>
		</g>
		<g>
			<g>
				<path style="fill:#EBEBEB;" d="M374.635,253.833c0.033-0.019,0.283,0.34,0.704,1.007c0.473,0.775,1.055,1.726,1.741,2.849
					c1.449,2.417,2.625,6.568,5.56,9.503c2.144,3.728,4.058,7.118,5.419,9.586c0.625,1.157,1.155,2.138,1.587,2.937
					c0.364,0.7,0.549,1.096,0.516,1.115c-0.033,0.019-0.282-0.34-0.704-1.007c-0.473-0.775-1.055-1.726-1.741-2.848
					c-1.449-2.417-3.417-5.776-5.561-9.505c-2.143-3.727-4.057-7.117-5.418-9.585c-0.625-1.157-1.155-2.138-1.587-2.937
					C374.787,254.249,374.602,253.853,374.635,253.833z"/>
			</g>
		</g>
		<g>
			<g>
				<path style="fill:#EBEBEB;" d="M349.842,287.124c0.033-0.02,0.348,0.443,0.889,1.297c0.585,0.949,1.339,2.173,2.244,3.642
					c1.874,3.088,4.429,7.373,7.222,12.123c2.794,4.752,5.295,9.069,7.082,12.208c0.844,1.506,1.546,2.76,2.091,3.732
					c0.483,0.887,0.734,1.387,0.701,1.407c-0.033,0.02-0.348-0.443-0.888-1.297c-0.585-0.949-1.339-2.173-2.244-3.642
					c-1.874-3.088-4.43-7.373-7.223-12.125c-2.793-4.75-5.294-9.067-7.081-12.206c-0.844-1.506-1.546-2.76-2.091-3.732
					C350.06,287.643,349.809,287.143,349.842,287.124z"/>
			</g>
		</g>
		<g>
			<g>
				<path style="fill:#EBEBEB;" d="M369.82,320.574c0-0.039,0.598-0.079,1.679-0.12c1.181-0.039,2.721-0.089,4.578-0.149
					c3.865-0.13,9.202-0.33,15.087-0.718c5.888-0.379,11.207-0.862,15.056-1.239c1.849-0.179,3.383-0.328,4.559-0.443
					c1.077-0.1,1.676-0.138,1.68-0.099c0.005,0.038-0.584,0.149-1.654,0.315c-1.07,0.167-2.621,0.384-4.542,0.62
					c-3.841,0.477-9.165,1.024-15.063,1.403c-5.895,0.388-11.245,0.526-15.115,0.556c-1.936,0.01-3.502,0.002-4.584-0.028
					C370.418,320.645,369.82,320.612,369.82,320.574z"/>
			</g>
		</g>
	</g>
</g>
<g id="Background_Simple" style="display:none;">
	<path style="display:inline;fill:#F5F5F5;" d="M71.089,138.471C42.613,195.21,51.62,266.83,87.211,319.399
		s94.801,86.605,157.063,98.998c44.445,8.847,92.259,7.046,132.868-13.066c40.61-20.112,72.542-60.573,74.977-105.824
		c0.92-17.092-2.705-35.242-14.111-48.004c-18.213-20.378-49.305-21.096-76.623-20.255c-27.318,0.841-58.389,0.204-76.691-20.095
		c-14.063-15.597-16.133-38.221-23.543-57.87c-12.6-33.411-42.999-59.499-77.935-66.883c-4.852-1.026-9.77-1.686-14.71-1.994
		c-38.425-2.399-74.869,17.374-95.027,50.174L71.089,138.471z"/>
</g>
<g id="Plants">
	<g>
		<g>
			<path style="fill:#E8505B;" d="M70.916,313.079c3.487-1.93,7.806-2,11.601-0.783c3.795,1.218,7.116,3.62,9.981,6.391
				c5.543,5.361,9.018,13.53,11.012,20.979c-8.398,1.679-17.089-3.135-21.345-5.854C75.44,329.514,65.894,317.662,70.916,313.079"/>
		</g>
		<g>
			<path style="fill:#E8505B;" d="M118.108,341.435c-4.062-1.823-6.729-6.148-7.049-10.589c-0.32-4.441,1.519-8.886,4.496-12.198
				c1.376-1.531,3.203-2.924,5.26-2.825c1.922,0.093,3.595,1.535,4.403,3.282c0.808,1.747,0.877,3.747,0.694,5.663
				C125.282,331.339,123.467,337.582,118.108,341.435"/>
		</g>
		<g>
			<g>
				<path style="fill:#263238;" d="M131.682,362.322c-0.031,0.025-0.419-0.386-1.106-1.141c-0.754-0.836-1.727-1.916-2.897-3.213
					c-2.383-2.734-5.862-6.566-8.096-11.771c-2.247-5.168-2.798-10.408-2.267-14.054c0.241-1.828,0.657-3.27,1.032-4.226
					c0.167-0.486,0.36-0.839,0.468-1.085c0.117-0.243,0.187-0.367,0.204-0.359c0.127,0.04-0.939,2.098-1.311,5.715
					c-0.421,3.59,0.18,8.706,2.387,13.788c2.185,5.1,5.573,8.935,7.881,11.734c1.175,1.397,2.127,2.53,2.763,3.331
					C131.378,361.839,131.711,362.298,131.682,362.322z"/>
			</g>
		</g>
		<g>
			<g>
				<path style="fill:#263238;" d="M78.983,321.463c0.011-0.016,0.215,0.107,0.593,0.357c0.423,0.287,0.965,0.656,1.637,1.112
					c1.416,0.974,3.446,2.408,5.939,4.202c4.987,3.587,11.808,8.639,19.213,14.387c7.406,5.752,13.991,11.109,18.702,15.052
					c2.356,1.971,4.249,3.582,5.543,4.712c0.608,0.537,1.099,0.972,1.482,1.31c0.335,0.304,0.505,0.471,0.492,0.486
					c-0.012,0.015-0.206-0.123-0.565-0.4c-0.4-0.318-0.914-0.725-1.549-1.229c-1.39-1.124-3.307-2.675-5.654-4.574
					c-4.773-3.863-11.393-9.167-18.794-14.916c-7.4-5.743-14.179-10.842-19.104-14.509c-2.42-1.803-4.399-3.277-5.832-4.344
					c-0.646-0.491-1.168-0.888-1.575-1.197C79.153,321.632,78.971,321.478,78.983,321.463z"/>
			</g>
		</g>
		<g>
			<path style="fill:#E8505B;" d="M114.996,353.128c-8.243-4.491-18.697-4.651-27.074-0.414c-2.133,1.079-4.385,2.899-4.195,5.281
				c0.19,2.387,2.718,3.83,5.016,4.503c9.562,2.798,20.676-0.898,26.659-8.865"/>
		</g>
		<g>
			<g>
				<path style="fill:#263238;" d="M94.321,356.317c-0.017-0.034,0.448-0.289,1.308-0.721c0.429-0.219,0.955-0.485,1.597-0.723
					c0.64-0.239,1.348-0.578,2.18-0.808c0.824-0.255,1.721-0.555,2.719-0.752c0.984-0.255,2.058-0.413,3.19-0.572
					c2.267-0.261,4.794-0.336,7.419-0.041c2.623,0.32,5.067,0.97,7.21,1.76c1.06,0.428,2.069,0.831,2.961,1.321
					c0.92,0.433,1.718,0.944,2.451,1.398c0.751,0.428,1.348,0.938,1.907,1.332c0.561,0.393,1.001,0.786,1.357,1.11
					c0.718,0.641,1.101,1.008,1.075,1.037c-0.081,0.097-1.632-1.374-4.547-3.142c-0.737-0.427-1.535-0.911-2.45-1.319
					c-0.887-0.465-1.887-0.845-2.934-1.254c-2.118-0.75-4.519-1.373-7.096-1.688c-2.579-0.29-5.06-0.231-7.295-0.003
					c-1.115,0.143-2.175,0.281-3.15,0.513c-0.987,0.174-1.879,0.449-2.701,0.676C96.258,355.428,94.372,356.428,94.321,356.317z"/>
			</g>
		</g>
	</g>
	<g>
		<g>
			<g>
				<path style="fill:#455A64;" d="M374.598,392.346c-7.001-4.496-9.521-10.271-10.616-18.518
					c-1.095-8.248,1.607-16.923,7.192-23.09c4.656-5.142,11.202-8.653,14.583-14.709c3.604-6.455,3.14-15.045,8.286-20.353
					c3.535-3.646,8.867-4.791,13.232-7.387c3.562-2.119,6.445-5.188,9.68-7.779c3.235-2.592,7.107-4.789,11.249-4.638
					c6.248,0.228,11.332,6.158,11.869,12.387c0.536,6.229-2.716,12.332-7.323,16.559c-3.341,3.065-7.508,5.475-9.62,9.488
					c-3.967,7.537,0.87,17.61-3.417,24.97c-3.131,5.374-10.59,8.177-11.403,14.344c-0.299,2.268,0.427,4.54,0.498,6.827
					c0.221,7.15-6.239,13.167-13.225,14.706C388.595,396.691,381.331,394.764,374.598,392.346"/>
			</g>
			<g>
				<g>
					<path style="fill:#263238;" d="M415.673,321.513c0.021,0.021-0.219,0.308-0.696,0.835c-0.543,0.585-1.243,1.339-2.11,2.274
						c-0.928,0.976-2.067,2.165-3.301,3.627c-1.234,1.46-2.742,3.033-4.204,4.945c-1.5,1.88-3.178,3.91-4.798,6.229
						c-0.816,1.153-1.724,2.302-2.544,3.564c-0.827,1.259-1.677,2.553-2.549,3.88c-3.37,5.382-6.762,11.504-9.684,18.229
						c-2.877,6.746-5.002,13.415-6.552,19.573c-0.705,3.097-1.393,6.037-1.8,8.836c-0.532,2.777-0.796,5.397-1.07,7.786
						c-0.336,2.383-0.36,4.563-0.515,6.467c-0.16,1.906-0.172,3.552-0.187,4.898c-0.031,1.275-0.056,2.303-0.075,3.101
						c-0.027,0.71-0.055,1.083-0.084,1.084c-0.03,0.001-0.059-0.371-0.088-1.08c-0.022-0.799-0.05-1.829-0.085-3.106
						c-0.036-1.35-0.072-3.002,0.042-4.917c0.11-1.914,0.093-4.106,0.391-6.505c0.237-2.404,0.468-5.043,0.973-7.842
						c0.38-2.82,1.046-5.784,1.734-8.906c1.517-6.209,3.635-12.934,6.532-19.727c2.942-6.772,6.379-12.924,9.806-18.315
						c0.887-1.328,1.752-2.623,2.594-3.882c0.836-1.262,1.76-2.408,2.593-3.558c1.653-2.312,3.366-4.331,4.902-6.194
						c1.499-1.895,3.044-3.446,4.316-4.88c1.271-1.436,2.449-2.595,3.416-3.537c0.916-0.89,1.655-1.608,2.228-2.165
						C415.372,321.738,415.653,321.492,415.673,321.513z"/>
				</g>
			</g>
		</g>
	</g>
</g>
<g id="Window">
	<g>
		<g>
			<g>
				<rect x="123.212" y="139.145" style="fill:#FAFAFA;" width="257.634" height="303.332"/>
			</g>
			<g>
				<g>
					<path style="fill:#263238;" d="M380.846,442.477c-0.002-2.009-0.093-122.588-0.231-303.332l0.231,0.231
						c-76.129,0.009-164.205,0.019-257.607,0.029h-0.027l0.26-0.26c-0.015,111.998-0.03,216.319-0.041,303.331l-0.219-0.219
						C278.408,442.39,379.01,442.475,380.846,442.477c-1.835,0.001-102.438,0.087-257.634,0.219l-0.219,0v-0.219
						c-0.012-87.012-0.026-191.333-0.042-303.331l0-0.26h0.261h0.027c93.403,0.011,181.478,0.021,257.607,0.029h0.231l0,0.231
						C380.939,319.89,380.848,440.47,380.846,442.477z"/>
				</g>
			</g>
		</g>
		<g>
			<path d="M266.573,188.721h-5.023l-1.082,2.408h-0.991l4.121-9.015h0.94l4.121,9.015h-1.005L266.573,188.721z M266.225,187.948
				l-2.163-4.842l-2.164,4.842H266.225z"/>
			<path d="M276.076,181.573v9.556H275.2v-1.339c-0.554,0.915-1.494,1.404-2.614,1.404c-1.932,0-3.374-1.404-3.374-3.452
				c0-2.047,1.442-3.439,3.374-3.439c1.082,0,2.009,0.464,2.575,1.339v-4.069H276.076z M275.173,187.742
				c0-1.584-1.081-2.64-2.511-2.64c-1.442,0-2.524,1.056-2.524,2.64c0,1.585,1.082,2.64,2.524,2.64
				C274.092,190.382,275.173,189.326,275.173,187.742z"/>
			<path d="M284.805,181.573v9.556h-0.876v-1.339c-0.554,0.915-1.494,1.404-2.614,1.404c-1.932,0-3.374-1.404-3.374-3.452
				c0-2.047,1.442-3.439,3.374-3.439c1.081,0,2.009,0.464,2.575,1.339v-4.069H284.805z M283.903,187.742
				c0-1.584-1.081-2.64-2.511-2.64c-1.442,0-2.524,1.056-2.524,2.64c0,1.585,1.082,2.64,2.524,2.64
				C282.822,190.382,283.903,189.326,283.903,187.742z"/>
			<path d="M296.83,184.355v6.774h-0.875v-1.236c-0.477,0.824-1.352,1.301-2.434,1.301c-1.726,0-2.858-0.966-2.858-2.911v-3.928
				h0.914v3.837c0,1.442,0.747,2.177,2.035,2.177c1.416,0,2.305-0.915,2.305-2.46v-3.554H296.83z"/>
			<path d="M298.451,190.356l0.412-0.722c0.541,0.425,1.455,0.76,2.408,0.76c1.288,0,1.815-0.438,1.815-1.108
				c0-1.764-4.392-0.373-4.392-3.052c0-1.108,0.953-1.932,2.679-1.932c0.876,0,1.829,0.245,2.396,0.631l-0.398,0.734
				c-0.593-0.412-1.301-0.58-1.997-0.58c-1.223,0-1.764,0.477-1.764,1.121c0,1.829,4.392,0.451,4.392,3.052
				c0,1.172-1.03,1.932-2.795,1.932C300.087,191.193,299.004,190.832,298.451,190.356z"/>
			<path d="M311.586,188.025h-5.666c0.103,1.416,1.185,2.356,2.666,2.356c0.824,0,1.558-0.296,2.073-0.889l0.515,0.593
				c-0.604,0.721-1.545,1.107-2.614,1.107c-2.111,0-3.554-1.442-3.554-3.452c0-2.009,1.403-3.439,3.31-3.439
				c1.906,0,3.284,1.404,3.284,3.439C311.599,187.819,311.586,187.922,311.586,188.025z M305.92,187.343h4.804
				c-0.116-1.327-1.082-2.254-2.408-2.254C307.002,185.089,306.036,186.016,305.92,187.343z"/>
			<path d="M316.877,184.303v0.889c-0.077,0-0.154-0.013-0.219-0.013c-1.417,0-2.279,0.901-2.279,2.499v3.451h-0.914v-6.774h0.875
				v1.326C314.765,184.78,315.628,184.303,316.877,184.303z"/>
		</g>
		<g>
			<g>
				<path style="fill:#263238;" d="M247.832,279.289c0,0-0.011-0.195-0.017-0.562c-0.004-0.382-0.01-0.92-0.018-1.622
					c-0.009-1.439-0.023-3.537-0.041-6.254c-0.021-5.449-0.053-13.371-0.092-23.334l0.168,0.168
					c-23.938,0.022-60.375,0.055-101.088,0.093h-0.006l0.26-0.26c-0.003,11.01-0.005,21.707-0.008,31.772l-0.253-0.253
					c29.018,0.047,54.256,0.088,72.257,0.117c9.004,0.03,16.197,0.055,21.157,0.071c2.468,0.014,4.377,0.025,5.689,0.033
					c0.639,0.007,1.129,0.012,1.478,0.016C247.654,279.279,247.832,279.289,247.832,279.289s-0.157,0.011-0.481,0.016
					c-0.342,0.004-0.822,0.009-1.448,0.016c-1.3,0.008-3.191,0.018-5.635,0.033c-4.947,0.017-12.12,0.041-21.099,0.071
					c-18.045,0.029-43.343,0.07-72.432,0.117l-0.253,0l0-0.253c-0.002-10.066-0.005-20.763-0.008-31.772l0-0.261h0.261h0.006
					c40.713,0.037,77.15,0.071,101.088,0.093l0.169,0L248,247.517c-0.039,10.006-0.071,17.962-0.092,23.434
					c-0.018,2.702-0.032,4.787-0.041,6.217c-0.008,0.69-0.014,1.218-0.018,1.593C247.843,279.117,247.832,279.289,247.832,279.289z"
					/>
			</g>
		</g>
		<g>
			<g>
				<path style="fill:#263238;" d="M359.729,322.324c0,0-0.016-0.715-0.025-2.092c-0.007-1.383-0.017-3.426-0.03-6.11
					c-0.016-5.371-0.04-13.298-0.071-23.57l0.127,0.126c-40.879,0.026-121.007,0.076-212.98,0.134h-0.012l0.26-0.26
					c-0.001,10.884-0.001,21.602-0.002,31.772l-0.258-0.258c60.139,0.045,113.349,0.084,151.538,0.113
					c19.108,0.032,34.455,0.058,45.037,0.076c5.288,0.015,9.383,0.027,12.168,0.035c1.384,0.008,2.441,0.013,3.162,0.017
					C359.356,322.312,359.729,322.324,359.729,322.324s-0.35,0.012-1.052,0.017c-0.714,0.004-1.759,0.01-3.129,0.017
					c-2.771,0.008-6.847,0.02-12.11,0.035c-10.568,0.018-25.894,0.044-44.977,0.076c-38.235,0.028-91.51,0.068-151.723,0.113
					l-0.258,0l0-0.258c-0.001-10.171-0.001-20.889-0.002-31.772v-0.26h0.26h0.012c91.972,0.058,172.1,0.108,212.98,0.134l0.127,0
					l0,0.127c-0.031,10.304-0.055,18.257-0.071,23.644c-0.013,2.672-0.023,4.705-0.03,6.082
					C359.745,321.641,359.729,322.324,359.729,322.324z"/>
			</g>
		</g>
		<g>
			<g>
				<path style="fill:#263238;" d="M359.729,365.058c0,0-0.016-0.715-0.025-2.092c-0.007-1.383-0.017-3.426-0.03-6.11
					c-0.016-5.371-0.04-13.298-0.071-23.57l0.127,0.126c-40.879,0.026-121.007,0.076-212.98,0.134h-0.012l0.26-0.26
					c-0.001,10.884-0.001,21.602-0.002,31.772l-0.258-0.258c60.139,0.045,113.349,0.084,151.538,0.113
					c19.108,0.032,34.455,0.058,45.037,0.076c5.288,0.015,9.383,0.027,12.168,0.035c1.384,0.008,2.441,0.013,3.162,0.017
					C359.356,365.046,359.729,365.058,359.729,365.058s-0.35,0.012-1.052,0.017c-0.714,0.004-1.759,0.01-3.129,0.017
					c-2.771,0.008-6.847,0.02-12.11,0.035c-10.568,0.018-25.894,0.043-44.977,0.076c-38.235,0.028-91.51,0.068-151.723,0.113
					l-0.258,0l0-0.258c-0.001-10.171-0.001-20.888-0.002-31.772v-0.26h0.26h0.012c91.972,0.058,172.1,0.108,212.98,0.134h0.127
					l0,0.127c-0.031,10.304-0.055,18.257-0.071,23.644c-0.013,2.672-0.023,4.705-0.03,6.082
					C359.745,364.375,359.729,365.058,359.729,365.058z"/>
			</g>
		</g>
		<g>
			<g>
				<path style="fill:#263238;" d="M359.729,279.289c0,0-0.011-0.195-0.017-0.562c-0.004-0.382-0.01-0.92-0.018-1.622
					c-0.009-1.439-0.023-3.537-0.041-6.254c-0.022-5.449-0.053-13.371-0.092-23.334l0.168,0.168
					c-23.938,0.022-60.375,0.055-101.088,0.093h-0.006l0.26-0.26c-0.003,11.01-0.005,21.707-0.008,31.772l-0.253-0.253
					c29.018,0.047,54.256,0.088,72.257,0.117c9.004,0.03,16.197,0.055,21.157,0.071c2.468,0.014,4.377,0.025,5.689,0.033
					c0.639,0.007,1.129,0.012,1.478,0.016C359.55,279.279,359.729,279.289,359.729,279.289s-0.157,0.011-0.481,0.016
					c-0.342,0.004-0.822,0.009-1.448,0.016c-1.3,0.008-3.191,0.018-5.635,0.033c-4.947,0.017-12.12,0.041-21.099,0.071
					c-18.045,0.029-43.343,0.07-72.432,0.117l-0.253,0l0-0.253c-0.002-10.066-0.005-20.763-0.008-31.772v-0.261h0.26h0.006
					c40.713,0.037,77.15,0.071,101.088,0.093l0.169,0l-0.001,0.168c-0.039,10.006-0.071,17.962-0.092,23.434
					c-0.018,2.702-0.032,4.787-0.041,6.217c-0.008,0.69-0.014,1.218-0.018,1.593C359.74,279.117,359.729,279.289,359.729,279.289z"
					/>
			</g>
		</g>
		<g>
			<g>
				<g>
					<g>
						<g>
							<path style="fill:#E8505B;" d="M167.91,268.008c0.02,0.015-0.247,0.031-0.766,0.051c-0.604,0.02-1.362,0.044-2.284,0.074
								c-1.981,0.058-4.858,0.137-8.303,0.181l-0.313,0.004l0.092-0.301c0.289-0.944,0.79-1.916,1.603-2.679
								c0.805-0.77,1.907-1.253,3.059-1.438l-0.058,0.49c-1.266-0.51-2.188-1.819-2.289-3.244c-0.144-1.597,0.743-3.209,2.146-3.846
								c1.405-0.677,3.104-0.188,3.994,0.872c0.935,1.042,1.162,2.484,0.849,3.649c-0.306,1.183-1.154,2.099-2.11,2.487l-0.046-0.35
								c0.981,0.159,1.835,0.517,2.47,0.991c0.639,0.47,1.06,1.019,1.343,1.487C167.846,267.37,167.926,268.043,167.91,268.008
								c-0.014-0.019-0.083-0.146-0.193-0.389c-0.115-0.257-0.294-0.634-0.589-1.076c-0.564-0.878-1.79-1.999-3.695-2.223
								l-0.67-0.079l0.624-0.271c0.843-0.366,1.582-1.198,1.837-2.257c0.263-1.044,0.038-2.323-0.788-3.221
								c-0.789-0.915-2.232-1.308-3.423-0.73c-1.193,0.547-1.968,1.943-1.842,3.342c0.088,1.244,0.889,2.374,1.965,2.812l0.85,0.346
								l-0.908,0.144c-1.074,0.17-2.069,0.602-2.804,1.292c-0.741,0.683-1.217,1.57-1.501,2.456l-0.22-0.297
								c3.329-0.002,6.129,0.039,8.132,0.07c0.947,0.017,1.727,0.031,2.347,0.043C167.584,267.981,167.89,267.993,167.91,268.008z"
								/>
						</g>
					</g>
				</g>
			</g>
		</g>
		<g>
			<g>
				<g>
					<g>
						<g>
							<path style="fill:#E8505B;" d="M286.423,268.008c0.02,0.015-0.247,0.031-0.766,0.051c-0.604,0.02-1.362,0.044-2.284,0.074
								c-1.981,0.058-4.858,0.137-8.302,0.181l-0.313,0.004l0.092-0.301c0.289-0.944,0.79-1.916,1.603-2.679
								c0.806-0.77,1.907-1.253,3.059-1.438l-0.058,0.49c-1.266-0.51-2.187-1.819-2.288-3.244c-0.144-1.597,0.742-3.209,2.146-3.846
								c1.405-0.677,3.104-0.188,3.994,0.872c0.935,1.042,1.162,2.484,0.849,3.649c-0.306,1.183-1.154,2.099-2.11,2.487l-0.046-0.35
								c0.981,0.159,1.835,0.517,2.47,0.991c0.639,0.47,1.06,1.019,1.343,1.487C286.359,267.37,286.439,268.043,286.423,268.008
								c-0.014-0.019-0.083-0.146-0.193-0.389c-0.115-0.257-0.294-0.634-0.589-1.076c-0.564-0.878-1.79-1.999-3.695-2.223
								l-0.67-0.079l0.624-0.271c0.843-0.366,1.582-1.198,1.837-2.257c0.263-1.044,0.038-2.323-0.788-3.221
								c-0.789-0.915-2.232-1.308-3.423-0.73c-1.193,0.547-1.969,1.943-1.842,3.342c0.088,1.244,0.889,2.374,1.965,2.812l0.85,0.346
								l-0.908,0.144c-1.074,0.17-2.069,0.602-2.804,1.292c-0.741,0.683-1.217,1.57-1.501,2.456l-0.22-0.297
								c3.329-0.002,6.129,0.039,8.132,0.07c0.947,0.017,1.727,0.031,2.347,0.043C286.097,267.981,286.403,267.993,286.423,268.008z
								"/>
						</g>
					</g>
				</g>
			</g>
		</g>
		<g>
			<path style="fill:#263238;" d="M179.759,260.995v2.673h3.519v0.622h-3.519v2.887h-0.719v-6.804h4.666v0.622H179.759z"/>
			<path style="fill:#263238;" d="M184.789,260.449c0-0.262,0.224-0.485,0.505-0.485c0.282,0,0.505,0.214,0.505,0.476
				c0,0.282-0.213,0.506-0.505,0.506C185.013,260.946,184.789,260.722,184.789,260.449z M184.945,262.064h0.69v5.112h-0.69V262.064z
				"/>
			<path style="fill:#263238;" d="M190.133,262.025v0.671c-0.059,0-0.117-0.01-0.165-0.01c-1.069,0-1.72,0.68-1.72,1.886v2.604
				h-0.69v-5.112h0.661v1.001C188.539,262.384,189.191,262.025,190.133,262.025z"/>
			<path style="fill:#263238;" d="M190.704,266.593l0.311-0.545c0.408,0.321,1.098,0.574,1.817,0.574
				c0.972,0,1.371-0.331,1.371-0.836c0-1.332-3.314-0.282-3.314-2.304c0-0.836,0.719-1.458,2.021-1.458
				c0.661,0,1.38,0.185,1.808,0.477l-0.301,0.554c-0.447-0.311-0.982-0.438-1.507-0.438c-0.923,0-1.331,0.359-1.331,0.846
				c0,1.38,3.314,0.34,3.314,2.304c0,0.885-0.777,1.458-2.109,1.458C191.938,267.225,191.122,266.953,190.704,266.593z"/>
			<path style="fill:#263238;" d="M198.855,266.865c-0.272,0.243-0.681,0.36-1.079,0.36c-0.962,0-1.497-0.545-1.497-1.487v-3.091
				h-0.914v-0.583h0.914v-1.118h0.69v1.118h1.555v0.583h-1.555v3.052c0,0.602,0.311,0.934,0.884,0.934
				c0.282,0,0.564-0.088,0.758-0.263L198.855,266.865z"/>
			<path style="fill:#263238;" d="M207.355,264.211v2.965h-0.69v-2.896c0-1.079-0.564-1.633-1.536-1.633
				c-1.099,0-1.788,0.681-1.788,1.847v2.683h-0.69v-5.112h0.661v0.942c0.37-0.622,1.06-0.982,1.944-0.982
				C206.5,262.025,207.355,262.743,207.355,264.211z"/>
			<path style="fill:#263238;" d="M213.084,264.007v3.169h-0.661v-0.797c-0.311,0.524-0.914,0.846-1.759,0.846
				c-1.157,0-1.866-0.603-1.866-1.487c0-0.787,0.505-1.448,1.973-1.448h1.623v-0.311c0-0.874-0.496-1.351-1.448-1.351
				c-0.661,0-1.283,0.233-1.701,0.603l-0.311-0.515c0.515-0.438,1.273-0.691,2.08-0.691
				C212.336,262.025,213.084,262.686,213.084,264.007z M212.394,265.64v-0.836h-1.604c-0.992,0-1.313,0.39-1.313,0.914
				c0,0.593,0.477,0.962,1.293,0.962C211.548,266.68,212.122,266.311,212.394,265.64z"/>
			<path style="fill:#263238;" d="M223.393,264.211v2.965h-0.69v-2.896c0-1.079-0.544-1.633-1.468-1.633
				c-1.05,0-1.71,0.681-1.71,1.847v2.683h-0.691v-2.896c0-1.079-0.544-1.633-1.477-1.633c-1.04,0-1.711,0.681-1.711,1.847v2.683
				h-0.69v-5.112h0.661v0.933c0.36-0.612,1.021-0.972,1.876-0.972c0.846,0,1.507,0.359,1.818,1.079
				c0.369-0.661,1.098-1.079,2.021-1.079C222.576,262.025,223.393,262.743,223.393,264.211z"/>
			<path style="fill:#263238;" d="M229.732,264.833h-4.277c0.078,1.069,0.894,1.779,2.012,1.779c0.622,0,1.176-0.224,1.565-0.671
				l0.389,0.447c-0.457,0.544-1.167,0.836-1.973,0.836c-1.594,0-2.683-1.089-2.683-2.605c0-1.516,1.059-2.595,2.498-2.595
				c1.439,0,2.479,1.06,2.479,2.595C229.742,264.678,229.732,264.756,229.732,264.833z M225.455,264.319h3.625
				c-0.087-1.001-0.816-1.701-1.817-1.701C226.272,262.617,225.543,263.318,225.455,264.319z"/>
		</g>
		<g>
			<path style="fill:#263238;" d="M184.825,311.037v0.622h-4.811v-6.804h4.665v0.622h-3.946v2.42h3.519v0.612h-3.519v2.527H184.825z
				"/>
			<path style="fill:#263238;" d="M194.802,308.695v2.965h-0.69v-2.896c0-1.079-0.544-1.633-1.468-1.633
				c-1.05,0-1.711,0.681-1.711,1.847v2.683h-0.69v-2.896c0-1.079-0.544-1.633-1.477-1.633c-1.04,0-1.711,0.681-1.711,1.847v2.683
				h-0.69v-5.112h0.661v0.933c0.36-0.612,1.021-0.972,1.876-0.972c0.846,0,1.507,0.359,1.818,1.079
				c0.369-0.661,1.098-1.079,2.021-1.079C193.986,306.508,194.802,307.227,194.802,308.695z"/>
			<path style="fill:#263238;" d="M200.529,308.491v3.169h-0.661v-0.797c-0.311,0.524-0.914,0.846-1.759,0.846
				c-1.157,0-1.866-0.603-1.866-1.487c0-0.787,0.505-1.448,1.973-1.448h1.623v-0.311c0-0.874-0.496-1.351-1.448-1.351
				c-0.661,0-1.283,0.233-1.701,0.603l-0.311-0.515c0.515-0.438,1.273-0.691,2.08-0.691
				C199.781,306.508,200.529,307.169,200.529,308.491z M199.839,310.123v-0.836h-1.604c-0.992,0-1.312,0.39-1.312,0.914
				c0,0.593,0.477,0.962,1.293,0.962C198.993,311.163,199.567,310.794,199.839,310.123z"/>
			<path style="fill:#263238;" d="M202.245,304.933c0-0.262,0.224-0.485,0.505-0.485c0.282,0,0.505,0.214,0.505,0.476
				c0,0.282-0.213,0.506-0.505,0.506C202.469,305.429,202.245,305.205,202.245,304.933z M202.401,306.547h0.69v5.112h-0.69V306.547z
				"/>
			<path style="fill:#263238;" d="M205.014,304.448h0.69v7.212h-0.69V304.448z"/>
		</g>
		<g>
			<path style="fill:#263238;" d="M181.982,349.731c0,1.448-1.05,2.322-2.78,2.322h-1.828v2.148h-0.719v-6.804h2.547
				C180.932,347.398,181.982,348.273,181.982,349.731z M181.262,349.731c0-1.089-0.719-1.711-2.08-1.711h-1.808v3.401h1.808
				C180.543,351.421,181.262,350.799,181.262,349.731z"/>
			<path style="fill:#263238;" d="M187.195,351.033v3.169h-0.661v-0.797c-0.311,0.524-0.914,0.846-1.759,0.846
				c-1.157,0-1.866-0.603-1.866-1.487c0-0.787,0.505-1.448,1.973-1.448h1.623v-0.312c0-0.874-0.496-1.35-1.448-1.35
				c-0.661,0-1.283,0.233-1.701,0.602l-0.311-0.515c0.515-0.438,1.273-0.69,2.08-0.69
				C186.447,349.05,187.195,349.711,187.195,351.033z M186.505,352.665v-0.836h-1.604c-0.992,0-1.313,0.39-1.313,0.914
				c0,0.593,0.477,0.962,1.293,0.962C185.66,353.705,186.233,353.336,186.505,352.665z"/>
			<path style="fill:#263238;" d="M188.358,353.618l0.311-0.545c0.408,0.321,1.098,0.574,1.817,0.574
				c0.972,0,1.371-0.331,1.371-0.836c0-1.332-3.315-0.282-3.315-2.304c0-0.836,0.719-1.458,2.021-1.458
				c0.661,0,1.38,0.185,1.808,0.477l-0.301,0.554c-0.447-0.312-0.982-0.438-1.507-0.438c-0.923,0-1.331,0.359-1.331,0.846
				c0,1.38,3.314,0.34,3.314,2.304c0,0.885-0.777,1.458-2.109,1.458C189.592,354.25,188.776,353.978,188.358,353.618z"/>
			<path style="fill:#263238;" d="M193.108,353.618l0.311-0.545c0.408,0.321,1.098,0.574,1.817,0.574
				c0.972,0,1.371-0.331,1.371-0.836c0-1.332-3.314-0.282-3.314-2.304c0-0.836,0.719-1.458,2.021-1.458
				c0.661,0,1.38,0.185,1.808,0.477l-0.301,0.554c-0.447-0.312-0.982-0.438-1.507-0.438c-0.923,0-1.331,0.359-1.331,0.846
				c0,1.38,3.314,0.34,3.314,2.304c0,0.885-0.777,1.458-2.109,1.458C194.342,354.25,193.525,353.978,193.108,353.618z"/>
			<path style="fill:#263238;" d="M205.973,349.089l-1.934,5.112h-0.651l-1.613-4.19l-1.614,4.19h-0.651l-1.925-5.112h0.661
				l1.604,4.345l1.643-4.345h0.593l1.633,4.345l1.623-4.345H205.973z"/>
			<path style="fill:#263238;" d="M206.346,351.645c0-1.516,1.108-2.595,2.605-2.595c1.497,0,2.595,1.079,2.595,2.595
				c0,1.517-1.099,2.605-2.595,2.605C207.454,354.25,206.346,353.161,206.346,351.645z M210.846,351.645
				c0-1.195-0.807-1.992-1.895-1.992c-1.089,0-1.905,0.797-1.905,1.992c0,1.196,0.817,1.993,1.905,1.993
				C210.039,353.638,210.846,352.841,210.846,351.645z"/>
			<path style="fill:#263238;" d="M215.526,349.05v0.671c-0.059,0-0.117-0.01-0.166-0.01c-1.069,0-1.72,0.68-1.72,1.886v2.605h-0.69
				v-5.112h0.661v1.001C213.932,349.409,214.583,349.05,215.526,349.05z"/>
			<path style="fill:#263238;" d="M221.384,346.99v7.212h-0.661v-1.011c-0.418,0.69-1.128,1.06-1.973,1.06
				c-1.458,0-2.546-1.06-2.546-2.605c0-1.545,1.088-2.595,2.546-2.595c0.816,0,1.517,0.35,1.944,1.011v-3.071H221.384z
				 M220.704,351.645c0-1.195-0.816-1.992-1.895-1.992c-1.089,0-1.905,0.797-1.905,1.992c0,1.196,0.816,1.993,1.905,1.993
				C219.887,353.638,220.704,352.841,220.704,351.645z"/>
		</g>
		<g>
			<path style="fill:#263238;" d="M293.946,261.334h0.719v6.182h3.81v0.622h-4.529V261.334z"/>
			<path style="fill:#263238;" d="M303.399,264.969v3.169h-0.661v-0.797c-0.311,0.524-0.914,0.846-1.76,0.846
				c-1.156,0-1.866-0.603-1.866-1.487c0-0.787,0.506-1.448,1.974-1.448h1.623v-0.312c0-0.874-0.496-1.351-1.448-1.351
				c-0.661,0-1.283,0.233-1.701,0.603l-0.311-0.515c0.515-0.438,1.273-0.69,2.08-0.69
				C302.65,262.987,303.399,263.648,303.399,264.969z M302.709,266.602v-0.836h-1.603c-0.991,0-1.313,0.39-1.313,0.914
				c0,0.593,0.477,0.962,1.293,0.962C301.863,267.642,302.436,267.273,302.709,266.602z"/>
			<path style="fill:#263238;" d="M304.561,267.555l0.311-0.545c0.408,0.321,1.099,0.574,1.818,0.574c0.972,0,1.37-0.331,1.37-0.836
				c0-1.332-3.314-0.282-3.314-2.304c0-0.836,0.719-1.458,2.021-1.458c0.661,0,1.38,0.185,1.808,0.477l-0.301,0.554
				c-0.447-0.311-0.981-0.438-1.507-0.438c-0.923,0-1.331,0.359-1.331,0.846c0,1.38,3.314,0.34,3.314,2.304
				c0,0.885-0.778,1.458-2.109,1.458C305.796,268.187,304.979,267.914,304.561,267.555z"/>
			<path style="fill:#263238;" d="M312.712,267.828c-0.271,0.242-0.68,0.359-1.078,0.359c-0.963,0-1.497-0.545-1.497-1.487v-3.091
				h-0.914v-0.583h0.914v-1.118h0.689v1.118h1.556v0.583h-1.556v3.052c0,0.603,0.311,0.934,0.885,0.934
				c0.282,0,0.563-0.088,0.759-0.263L312.712,267.828z"/>
			<path style="fill:#263238;" d="M321.212,265.173v2.965h-0.69v-2.897c0-1.079-0.563-1.633-1.536-1.633
				c-1.098,0-1.788,0.681-1.788,1.847v2.683h-0.69v-5.112h0.661v0.942c0.369-0.622,1.06-0.982,1.944-0.982
				C320.356,262.987,321.212,263.705,321.212,265.173z"/>
			<path style="fill:#263238;" d="M326.941,264.969v3.169h-0.661v-0.797c-0.311,0.524-0.914,0.846-1.76,0.846
				c-1.156,0-1.866-0.603-1.866-1.487c0-0.787,0.506-1.448,1.974-1.448h1.623v-0.312c0-0.874-0.496-1.351-1.448-1.351
				c-0.661,0-1.283,0.233-1.701,0.603l-0.311-0.515c0.515-0.438,1.273-0.69,2.08-0.69
				C326.192,262.987,326.941,263.648,326.941,264.969z M326.251,266.602v-0.836h-1.603c-0.991,0-1.313,0.39-1.313,0.914
				c0,0.593,0.477,0.962,1.293,0.962C325.405,267.642,325.978,267.273,326.251,266.602z"/>
			<path style="fill:#263238;" d="M337.25,265.173v2.965h-0.69v-2.897c0-1.079-0.544-1.633-1.468-1.633
				c-1.05,0-1.711,0.681-1.711,1.847v2.683h-0.689v-2.897c0-1.079-0.545-1.633-1.478-1.633c-1.04,0-1.711,0.681-1.711,1.847v2.683
				h-0.69v-5.112h0.661v0.933c0.359-0.612,1.021-0.972,1.876-0.972c0.846,0,1.507,0.359,1.817,1.079
				c0.37-0.661,1.099-1.079,2.022-1.079C336.433,262.987,337.25,263.705,337.25,265.173z"/>
			<path style="fill:#263238;" d="M343.589,265.795h-4.276c0.077,1.069,0.894,1.779,2.012,1.779c0.622,0,1.176-0.224,1.564-0.671
				l0.389,0.447c-0.456,0.544-1.166,0.836-1.973,0.836c-1.594,0-2.683-1.089-2.683-2.605c0-1.516,1.06-2.595,2.498-2.595
				c1.438,0,2.479,1.06,2.479,2.595C343.598,265.64,343.589,265.718,343.589,265.795z M339.312,265.281h3.625
				c-0.088-1.001-0.816-1.701-1.817-1.701C340.129,263.579,339.399,264.28,339.312,265.281z"/>
		</g>
		<g>
			<g>
				<path style="fill:none;" d="M166.752,346.432l0.014-1.038c0-1.877-1.527-3.404-3.404-3.404c-1.877,0-3.404,1.527-3.404,3.399
					l-0.015,1.057c-0.919,0.136-1.624,0.925-1.624,1.882v6.12c0,1.052,0.853,1.905,1.905,1.905h6.353
					c1.052,0,1.905-0.853,1.905-1.905v-6.12C168.483,347.335,167.722,346.52,166.752,346.432z M164.27,352.925h-1.662l0.259-1.2
					c-0.288-0.179-0.48-0.497-0.48-0.86c0-0.56,0.454-1.013,1.013-1.013c0.559,0,1.013,0.454,1.013,1.013
					c0,0.35-0.178,0.659-0.448,0.841C164.084,352.171,164.27,352.925,164.27,352.925z M166.019,346.423h-5.341l0.014-1.029
					c0-1.473,1.198-2.671,2.67-2.671c1.473,0,2.671,1.198,2.671,2.665L166.019,346.423z"/>
			</g>
			<g>
				<g>
					<path style="fill:#E8505B;" d="M166.019,346.423c-0.024-0.025-0.051-0.273-0.088-0.652c-0.03-0.359-0.021-0.943-0.365-1.525
						c-0.317-0.576-0.978-1.14-1.84-1.252c-0.848-0.135-1.86,0.253-2.39,1.1c-0.216,0.342-0.352,0.727-0.378,1.114
						c-0.012,0.418-0.023,0.824-0.035,1.218l-0.246-0.25C163.668,346.223,165.928,346.358,166.019,346.423
						c0.09,0.066-2.103,0.201-5.341,0.246l-0.249,0.004l0.003-0.253c0.005-0.403-0.005-0.789,0.015-1.252
						c0.027-0.467,0.188-0.94,0.452-1.355c0.643-1.03,1.892-1.485,2.9-1.293c1.031,0.164,1.776,0.872,2.094,1.555
						c0.345,0.698,0.28,1.336,0.231,1.759C166.076,346.255,166.042,346.448,166.019,346.423z"/>
				</g>
			</g>
			<g>
				<g>
					<path style="fill:#E8505B;" d="M164.27,352.925c-0.042-0.047-0.254-0.531-0.476-1.176l-0.038-0.111l0.111-0.079
						c0.281-0.201,0.453-0.687,0.207-1.078c-0.214-0.4-0.873-0.525-1.224-0.127c-0.343,0.354-0.221,0.949,0.145,1.166l0.15,0.089
						l-0.042,0.166c-0.1,0.397-0.2,0.791-0.301,1.191l-0.194-0.24C163.515,352.788,164.204,352.891,164.27,352.925
						c0.066,0.034-0.524,0.137-1.662,0.198l-0.24,0.013l0.046-0.254c0.073-0.406,0.145-0.806,0.218-1.209l0.108,0.255
						c-0.612-0.315-0.86-1.328-0.273-1.929c0.287-0.316,0.732-0.456,1.123-0.388c0.397,0.06,0.727,0.319,0.896,0.633
						c0.363,0.658,0.008,1.381-0.423,1.608l0.073-0.19C164.295,352.538,164.312,352.972,164.27,352.925z"/>
				</g>
			</g>
			<g>
				<g>
					<path style="fill:#E8505B;" d="M166.752,346.432c0.022-0.003,0.151-0.035,0.442,0.041c0.279,0.073,0.705,0.267,1.045,0.733
						c0.169,0.23,0.302,0.531,0.352,0.879c0.039,0.358,0.023,0.696,0.037,1.088c0.012,0.785,0.024,1.66,0.039,2.618
						c0.005,0.487,0.011,0.995,0.017,1.522c-0.023,0.539,0.078,1.051-0.064,1.702c-0.158,0.616-0.632,1.17-1.268,1.419
						c-0.305,0.13-0.694,0.162-0.991,0.153c-0.313,0.002-0.629,0.003-0.95,0.005c-1.285,0.005-2.631,0.01-4.024,0.015
						c-0.349,0.001-0.701,0.001-1.056,0.002c-0.373,0.015-0.805-0.072-1.158-0.271c-0.727-0.379-1.183-1.258-1.114-2.057
						c0.002-1.544,0.004-3.049,0.006-4.5c0.001-0.362,0.002-0.721,0.003-1.076c-0.004-0.333-0.011-0.759,0.139-1.126
						c0.272-0.743,0.965-1.27,1.702-1.369l-0.203,0.232c0.015-0.479,0.005-0.911,0.041-1.404c0.049-0.481,0.196-0.94,0.416-1.344
						c0.44-0.813,1.166-1.392,1.936-1.67c1.581-0.581,3.136,0.089,3.874,0.975c0.794,0.889,0.91,1.9,0.869,2.491
						C166.803,346.067,166.769,346.415,166.752,346.432c-0.017,0.017-0.042-0.291-0.063-0.932c-0.008-0.596-0.168-1.511-0.928-2.306
						c-0.71-0.79-2.129-1.342-3.522-0.797c-0.679,0.261-1.312,0.786-1.687,1.506c-0.188,0.358-0.31,0.76-0.347,1.181
						c-0.025,0.41-0.013,0.904-0.022,1.366l-0.004,0.203l-0.199,0.029c-0.571,0.083-1.104,0.497-1.307,1.07
						c-0.112,0.287-0.105,0.58-0.1,0.953c0.001,0.355,0.002,0.714,0.003,1.076c0.002,1.451,0.004,2.957,0.006,4.5
						c-0.052,0.688,0.293,1.296,0.846,1.604c0.279,0.152,0.569,0.219,0.906,0.209c0.355,0.001,0.707,0.001,1.056,0.002
						c1.393,0.005,2.738,0.01,4.024,0.015c0.638-0.027,1.298,0.087,1.774-0.105c0.5-0.189,0.885-0.621,1.018-1.108
						c0.121-0.465,0.051-1.072,0.078-1.586c0.006-0.527,0.011-1.035,0.017-1.522c0.014-0.957,0.027-1.832,0.038-2.618
						c0.001-0.378,0.028-0.759,0.007-1.059c-0.03-0.307-0.133-0.58-0.274-0.795C167.47,346.447,166.692,346.491,166.752,346.432z"/>
				</g>
			</g>
		</g>
		<g>
			<g>
				<g>
					<g>
						<g>
							<path style="fill:#E8505B;" d="M171.124,313.167c-0.015-0.015-0.033-0.28-0.053-0.766c-0.019-0.546-0.044-1.238-0.074-2.087
								c-0.045-1.849-0.107-4.374-0.182-7.419l0.21,0.206c-4.242,0.056-9.521,0.126-15.241,0.201
								c-0.057,0.057,0.487-0.497,0.257-0.261v0.003l0,0.005l0,0.011l0,0.022l0,0.043l0.001,0.086l0.002,0.171l0.003,0.342
								l0.006,0.68c0.004,0.452,0.008,0.901,0.012,1.346c0.007,0.89,0.014,1.767,0.021,2.627c0.011,1.718,0.022,3.37,0.032,4.938
								l-0.241-0.236c4.441-0.024,8.219-0.008,10.914,0.01c1.298,0.014,2.355,0.025,3.161,0.033
								C170.695,313.134,171.105,313.149,171.124,313.167c0.019,0.019-0.354,0.04-1.066,0.067c-0.792,0.024-1.831,0.056-3.106,0.094
								c-2.68,0.072-6.524,0.162-11.068,0.226l-0.238,0.003l-0.003-0.24c-0.02-1.568-0.042-3.22-0.065-4.938
								c-0.01-0.86-0.02-1.737-0.03-2.627c-0.005-0.445-0.01-0.894-0.014-1.346l-0.007-0.68l-0.003-0.342l-0.002-0.171l-0.001-0.086
								l-0.001-0.043l0-0.022l0-0.011v-0.005l0-0.003c-0.231,0.234,0.314-0.322,0.259-0.264c5.721-0.036,11-0.07,15.242-0.097
								l0.212-0.001l-0.001,0.208c-0.014,3.1-0.027,5.669-0.035,7.551c-0.014,0.831-0.024,1.508-0.033,2.042
								C171.151,312.946,171.139,313.182,171.124,313.167z"/>
						</g>
					</g>
				</g>
			</g>
			<g>
				<g>
					<path style="fill:#E8505B;" d="M171.023,302.893c0.042,0.058-0.767,0.725-2.109,1.757c-1.342,1.032-3.217,2.428-5.307,3.944
						c0.269-0.002-0.369,0.006-0.305,0.004l-0.003-0.002l-0.006-0.004l-0.012-0.009l-0.025-0.017l-0.049-0.035l-0.099-0.069
						l-0.197-0.137l-0.389-0.272c-0.257-0.18-0.51-0.358-0.76-0.534c-0.492-0.349-0.97-0.688-1.432-1.016
						c-0.869-0.63-1.675-1.214-2.407-1.745c-1.362-1.006-2.183-1.657-2.142-1.716c0.041-0.059,0.937,0.486,2.353,1.414
						c0.751,0.503,1.579,1.056,2.471,1.653c0.468,0.32,0.951,0.65,1.449,0.991c0.251,0.173,0.506,0.349,0.764,0.527l0.39,0.271
						l0.197,0.137l0.099,0.069l0.049,0.034l0.025,0.017l0.013,0.009l0.006,0.004l0.003,0.002c0.067,0.001-0.569,0.005-0.299,0.002
						c2.09-1.516,3.999-2.865,5.397-3.82C170.095,303.396,170.981,302.835,171.023,302.893z"/>
				</g>
			</g>
			<g>
				<g>
					<path style="fill:#E8505B;" d="M156.176,313.314c-0.113-0.089,0.934-1.606,2.338-3.388c1.405-1.783,2.635-3.155,2.748-3.066
						c0.113,0.089-0.934,1.606-2.339,3.388C157.52,312.03,156.289,313.402,156.176,313.314z"/>
				</g>
			</g>
			<g>
				<g>
					<path style="fill:#E8505B;" d="M166.225,306.86c0.114-0.088,1.302,1.252,2.655,2.994c1.353,1.742,2.357,3.225,2.243,3.314
						c-0.113,0.088-1.302-1.252-2.655-2.994C167.116,308.431,166.112,306.948,166.225,306.86z"/>
				</g>
			</g>
		</g>
		<g>
			<g>
				<path style="fill:#E8505B;" d="M357.07,413.955H149.397c-1.469,0-2.659-1.191-2.659-2.659v-27.148
					c0-1.469,1.191-2.659,2.659-2.659H357.07c1.469,0,2.659,1.191,2.659,2.659v27.148
					C359.729,412.764,358.538,413.955,357.07,413.955z"/>
			</g>
			<g style="opacity:0.3;">
				<path d="M357.07,413.955H149.397c-1.469,0-2.659-1.191-2.659-2.659v-27.148c0-1.469,1.191-2.659,2.659-2.659H357.07
					c1.469,0,2.659,1.191,2.659,2.659v27.148C359.729,412.764,358.538,413.955,357.07,413.955z"/>
			</g>
			<g>
				<path style="fill:#E8505B;" d="M357.07,409.434H149.397c-1.469,0-2.659-1.191-2.659-2.659v-27.148
					c0-1.469,1.191-2.659,2.659-2.659H357.07c1.469,0,2.659,1.19,2.659,2.659v27.148
					C359.729,408.243,358.538,409.434,357.07,409.434z"/>
			</g>
			<g>
				<path style="fill:#FFFFFF;" d="M235.245,393.902c0-2.012,1.536-3.479,3.606-3.479c1.05,0,1.963,0.359,2.585,1.06l-0.632,0.612
					c-0.525-0.554-1.167-0.807-1.915-0.807c-1.536,0-2.673,1.108-2.673,2.614c0,1.507,1.137,2.615,2.673,2.615
					c0.749,0,1.39-0.263,1.915-0.816l0.632,0.612c-0.622,0.699-1.536,1.069-2.595,1.069
					C236.781,397.382,235.245,395.914,235.245,393.902z"/>
				<path style="fill:#FFFFFF;" d="M247.37,397.304l-1.468-2.09c-0.136,0.01-0.282,0.02-0.427,0.02h-1.682v2.07h-0.972V390.5h2.654
					c1.769,0,2.838,0.894,2.838,2.371c0,1.05-0.544,1.809-1.497,2.148l1.613,2.284H247.37z M247.341,392.871
					c0-0.972-0.651-1.525-1.896-1.525h-1.652v3.061h1.652C246.69,394.408,247.341,393.844,247.341,392.871z"/>
				<path style="fill:#FFFFFF;" d="M254.821,396.458v0.846h-4.938V390.5h4.802v0.846h-3.83v2.09h3.412v0.826h-3.412v2.196H254.821z"
					/>
				<path style="fill:#FFFFFF;" d="M260.725,395.603h-3.616l-0.748,1.701h-1.001l3.081-6.804h0.962l3.092,6.804h-1.02
					L260.725,395.603z M260.385,394.826l-1.468-3.334l-1.468,3.334H260.385z"/>
				<path style="fill:#FFFFFF;" d="M264.511,391.346h-2.333V390.5h5.628v0.846h-2.333v5.958h-0.962V391.346z"/>
				<path style="fill:#FFFFFF;" d="M273.798,396.458v0.846h-4.938V390.5h4.802v0.846h-3.83v2.09h3.412v0.826h-3.412v2.196H273.798z"
					/>
			</g>
		</g>
	</g>
</g>
<g id="Character">
	<g>
		<g>
			
				<ellipse transform="matrix(0.7071 -0.7071 0.7071 0.7071 -48.9054 163.5341)" style="fill:#E0E0E0;" cx="172.95" cy="140.801" rx="70.353" ry="70.353"/>
		</g>
		<g>
			<path style="fill:#263238;" d="M213.252,45.711c-2.504,3.032-2.921,7.625-1.004,11.059c0.88,1.576,2.224,2.993,2.426,4.787
				c0.33,2.915-2.496,5.536-2.044,8.434c0.306,1.964,2.02,3.371,2.924,5.141c1.163,2.277,0.845,5.23-0.777,7.207
				c-1.282,1.563-3.285,2.554-4.116,4.397c-0.616,1.366-0.467,2.964-0.964,4.378c-0.778,2.212-3.051,3.623-5.359,4.038
				c-2.308,0.416-4.675,0.011-6.984-0.393c0.168-0.842,0.336-1.685,0.504-2.527c-0.779,1.395-2.418,2.134-4.012,2.25
				c-1.594,0.116-3.174-0.294-4.719-0.701c-0.943-4.29-1.877-8.823-0.531-13.005c1.211-3.761,4.095-6.694,6.495-9.833
				c2.661-3.48,4.802-7.357,6.33-11.462c1.1-2.955,1.895-6.049,3.426-8.806c1.531-2.757,3.984-5.22,7.083-5.802"/>
		</g>
		<g>
			<g>
				<path style="fill:#EB996E;" d="M259.025,104.804l-13.918,0.946c0,0-0.102-2.719-0.133-3.577c-0.114-3.049,0.824-4.53,1.201-5.06
					c0.196-0.275,0.329-0.853,0.329-0.853c0.098-1.061-1.466-6.38-2.032-8.33c-0.68-2.339,0.649-3.578,1.165-2.624
					c0.945,1.75,3.432,9.264,4.214,9.951c0.782,0.688,0.332-3.188,0.332-3.188c-1.223-8.268-1.751-9.471-0.279-9.784
					c1.685-0.359,3.548,11.95,3.548,11.95s-0.251-1.721,1.067-2.071c1.317-0.35,1.928,1.349,1.928,1.349
					c-0.164-0.877,1.086-1.017,1.086-1.017C260.655,92.927,259.025,104.804,259.025,104.804l-13.918,0.946l-6.667,46.549
					l-7.124-10.905l-18.575,13.257l16.75,19.976c2.945,3.512,7.347,5.466,11.926,5.295l0,0c7.664-0.286,13.848-6.364,14.267-14.021
					L259.025,104.804z"/>
			</g>
			<g>
				<g>
					<path style="fill:#D1734A;" d="M248.109,104.927c-0.057-0.064,0.68-0.718,1.667-1.941c0.493-0.611,1.042-1.369,1.567-2.26
						c0.263-0.445,0.521-0.923,0.761-1.432c0.225-0.509,0.532-1.053,0.476-1.527c-0.033-0.279-0.19-0.516-0.404-0.574
						c-0.219-0.071-0.518,0.01-0.793,0.132c-0.573,0.261-1.097,0.586-1.553,0.93c-0.913,0.694-1.555,1.477-1.979,2.121l-0.157,0.238
						l-0.122-0.248c-0.5-1.021-1.178-1.342-1.122-1.405c-0.004-0.038,0.764,0.176,1.406,1.26l-0.278-0.01
						c0.388-0.702,1.021-1.56,1.965-2.323c0.473-0.38,1.014-0.733,1.632-1.025c0.314-0.137,0.701-0.29,1.153-0.164
						c0.463,0.135,0.728,0.594,0.77,1.006c0.057,0.762-0.313,1.292-0.533,1.812c-0.253,0.521-0.528,1.008-0.81,1.459
						c-0.563,0.903-1.158,1.657-1.697,2.251C248.973,104.413,248.145,104.973,248.109,104.927z"/>
				</g>
			</g>
			<g>
				<g>
					<path style="fill:#D1734A;" d="M253.62,95.038c0.071,0.008,0.063,0.988-0.007,2.561c-0.046,0.846-0.097,1.769-0.151,2.758
						c-0.021,0.508-0.104,1.09-0.041,1.586c0.034,0.483,0.464,0.904,0.818,0.708c0.375-0.203,0.553-0.802,0.7-1.329
						c0.152-0.538,0.275-1.066,0.384-1.572c0.217-1.012,0.378-1.936,0.524-2.711c0.283-1.552,0.523-2.505,0.595-2.49
						c0.069,0.014-0.041,0.98-0.231,2.547c-0.099,0.783-0.223,1.716-0.417,2.749c-0.098,0.516-0.212,1.057-0.362,1.613
						c-0.17,0.52-0.254,1.226-0.96,1.659c-0.37,0.203-0.859,0.077-1.113-0.184c-0.277-0.249-0.405-0.61-0.442-0.921
						c-0.066-0.636,0.036-1.148,0.067-1.678c0.095-0.993,0.183-1.918,0.263-2.766C253.411,95.996,253.549,95.03,253.62,95.038z"/>
				</g>
			</g>
			<g>
				<g>
					<path style="fill:#D1734A;" d="M255.96,98.55c0.081,0.025-0.124,0.583-0.06,1.48c0.045,0.418,0.126,1.035,0.432,1.404
						c0.17,0.166,0.284,0.172,0.452-0.021c0.154-0.202,0.305-0.556,0.453-0.86c1.194-2.554,1.34-4.893,1.496-4.875
						c0.131-0.02,0.22,2.423-1.023,5.093c-0.167,0.332-0.278,0.635-0.534,0.969c-0.126,0.158-0.357,0.321-0.617,0.313
						c-0.264-0.002-0.469-0.159-0.588-0.304c-0.248-0.302-0.315-0.634-0.372-0.909c-0.053-0.286-0.072-0.556-0.066-0.8
						C255.564,99.051,255.91,98.522,255.96,98.55z"/>
				</g>
			</g>
		</g>
		<g>
			<g>
				<g>
					<path style="fill:#455A64;" d="M197.379,186.056l1.304,20.242c-39.591,15.174-68.965-9.995-68.965-9.995l5.923-18.11
						l1.04-31.626l-7.642,8.477l-3.588-2.992l-18.149-15.133l-3.893-3.246l18.831-19.879c23.804-25.627,42.334-17.762,42.334-17.762
						l27.848,2.605c0,0,19.258,2.727,28.576,19.609c7.587,13.745,15.85,28.297,15.85,28.297l-23.861,17.029l-7.584-13.946
						L197.379,186.056z"/>
				</g>
			</g>
		</g>
		<g>
			<path style="fill:#EB996E;" d="M102.597,140.535c-0.016,1.184,0.03,2.37,0.075,3.567c0.178,4.764,0.811,9.469,1.896,13.927
				c0.011,0.044,0.023,0.089,0.035,0.133c0.139,0.566,0.302,1.123,0.455,1.683c0.622,2.201,1.438,4.143,2.225,6.275
				c0.102,0.266,0.199,0.534,0.304,0.798c2.52-0.661,9.216-6.989,17.388-15.264l-18.135-15.122
				C104.476,139.074,103.383,140.229,102.597,140.535z"/>
		</g>
		<g>
			<g>
				<g>
					<g>
						<g>
							<path style="fill:#EB996E;" d="M189.893,101.241c0.973-6.897,2.123-14.14,2.123-14.14s9.092-0.25,12.533-11.593
								c3.281-10.818,4.981-36.609,4.981-36.609l0,0c-12.073-6.982-27.707-5.598-38.242,3.383l0,0l-6.977,56.145
								c-0.81,6.518,4.149,12.405,11.135,13.219h0C182.502,112.468,188.967,107.811,189.893,101.241z"/>
						</g>
					</g>
					<g>
						<g>
							<g>
								<path style="fill:#263238;" d="M203.49,58.394c-0.081,0.789-0.815,1.372-1.641,1.303c-0.824-0.069-1.429-0.763-1.348-1.552
									c0.081-0.789,0.815-1.373,1.639-1.304C202.966,56.91,203.57,57.605,203.49,58.394z"/>
							</g>
						</g>
						<g>
							<g>
								<g>
									<path style="fill:#263238;" d="M206.131,57.062c-0.211,0.168-1.223-0.821-2.824-1.037
										c-1.596-0.239-2.884,0.422-3.031,0.202c-0.073-0.098,0.163-0.423,0.726-0.724c0.554-0.301,1.463-0.543,2.459-0.402
										c0.996,0.143,1.784,0.626,2.214,1.068C206.115,56.614,206.234,56.987,206.131,57.062z"/>
								</g>
							</g>
						</g>
					</g>
					<g>
						<g>
							<g>
								<path style="fill:#263238;" d="M187.067,56.417c-0.081,0.789-0.815,1.372-1.641,1.303c-0.824-0.069-1.429-0.763-1.348-1.552
									c0.081-0.789,0.816-1.373,1.64-1.304C186.543,54.933,187.148,55.628,187.067,56.417z"/>
							</g>
						</g>
						<g>
							<g>
								<g>
									<path style="fill:#263238;" d="M189.352,55.34c-0.211,0.168-1.224-0.821-2.824-1.037c-1.596-0.239-2.884,0.422-3.031,0.202
										c-0.073-0.098,0.161-0.423,0.726-0.724c0.554-0.301,1.463-0.543,2.459-0.402c0.996,0.143,1.784,0.626,2.215,1.068
										C189.335,54.892,189.454,55.266,189.352,55.34z"/>
								</g>
							</g>
						</g>
					</g>
					<g>
						<g>
							<g>
								<path style="fill:#263238;" d="M193.523,68.01c0.005-0.092,1.024-0.127,2.664-0.11c0.414,0.014,0.812-0.014,0.92-0.283
									c0.137-0.282,0.027-0.746-0.106-1.249c-0.248-1.042-0.507-2.134-0.78-3.279c-1.067-4.662-1.779-8.473-1.592-8.514
									c0.188-0.041,1.206,3.704,2.273,8.366c0.253,1.148,0.496,2.243,0.726,3.29c0.09,0.486,0.284,1.049-0.009,1.633
									c-0.152,0.29-0.483,0.471-0.754,0.505c-0.273,0.044-0.503,0.016-0.707,0.001C194.524,68.233,193.517,68.102,193.523,68.01z"
									/>
							</g>
						</g>
					</g>
					<g>
						<g>
							<path style="fill:#D1734A;" d="M192.016,87.101c0,0-7.871-0.573-14.959-6.285c0,0,2.669,8.486,14.425,9.001L192.016,87.101z"
								/>
						</g>
					</g>
				</g>
			</g>
		</g>
		<g>
			<path style="fill:#263238;" d="M197.531,35.32c0.749,1.83-0.429,3.983-2.102,5.038s-3.711,1.299-5.665,1.604
				c-1.954,0.305-4,0.746-5.465,2.074c-2.719,2.464-2.028,6.027-4.753,9.209c-1.447,1.69-3.095,2.798-5.762,2.417
				c-2.202-0.314-5.05,0.198-6.167,2.735c-1.064,2.418,0.231,4.412,1.463,6.748c1.233,2.337,0.901,4.716,0.203,7.264
				c-0.505,1.845-2.082,3.284-2.438,5.163c-0.56,2.959,2.005,6.337,0.271,8.799c-1.736,2.465-6.086,1.341-8.052,3.627
				c-0.699,0.813-1.09,2.044-2.127,2.32c-0.62,0.165-1.266-0.089-1.857-0.339c-3.012-1.27-6.024-2.54-9.035-3.81
				c0.237-0.933,0.475-1.867,0.712-2.8c-1.334,1.339-3.321,1.994-5.19,1.711c-1.869-0.284-3.572-1.499-4.448-3.174
				c1.837-1.167,3.693-2.35,5.197-3.923c1.503-1.573,2.642-3.601,2.721-5.776c0.096-2.632-1.336-5.304-0.534-7.813
				c1.147-3.591,5.971-4.495,8.139-7.578c2.024-2.879,1.323-7.058,3.395-9.902c2.408-3.306,7.505-3.458,10.263-6.478
				c1.87-2.047,2.299-5.008,3.661-7.422c1.632-2.893,4.575-4.884,7.73-5.924s6.529-1.213,9.85-1.153
				c2.485,0.045,5.064,0.243,7.235,1.452c2.171,1.21,3.816,3.696,3.307,6.129"/>
		</g>
		<g>
			<g>
				<path style="fill:#EB996E;" d="M173.784,55.661c-1.207-0.411-2.523-0.558-3.766-0.276c-1.243,0.282-2.405,1.017-3.074,2.102
					c-0.671,1.088-0.808,2.452-0.543,3.702c0.265,1.251,0.903,2.397,1.682,3.41c0.559,0.728,1.215,1.412,2.045,1.805
					c0.83,0.392,1.863,0.447,2.638-0.044"/>
			</g>
		</g>
		<g>
			<g>
				<g>
					<path style="fill:#D1734A;" d="M172.062,63.084c0.136,0.066-0.507,0.742-1.599,0.28c-0.526-0.219-0.992-0.772-1.233-1.417
						c-0.24-0.654-0.359-1.351-0.334-2.143c0.028-0.785,0.318-1.583,0.826-2.111c0.489-0.541,1.203-0.803,1.762-0.737
						c1.17,0.135,1.42,0.993,1.284,0.998c-0.106,0.081-0.501-0.397-1.29-0.319c-0.75,0.034-1.608,0.942-1.623,2.217
						c-0.037,1.295,0.292,2.531,0.931,2.916C171.443,63.225,171.998,62.971,172.062,63.084z"/>
				</g>
			</g>
		</g>
		<g>
			<path style="fill:#263238;" d="M197.567,35.945c-0.973,2.47,0.108,5.573,2.405,6.903c1.298,0.752,2.899,0.987,4.01,1.994
				c1.107,1.004,1.495,2.569,1.675,4.053s0.216,3.022,0.831,4.384c0.615,1.362,2.023,2.518,3.495,2.259
				c0.835-2.468,1.669-4.936,2.504-7.405c0.923-2.729,1.856-5.636,1.197-8.44c-0.941-4.006-4.9-6.624-8.867-7.715
				c-1.836-0.505-3.868-0.757-5.592,0.052c-1.724,0.81-2.893,3.009-2.015,4.699"/>
		</g>
		<g>
			<g>
				<path style="fill:#455A64;" d="M149.297,89.366c-0.018-0.023,0.247-0.181,0.597-0.622c0.339-0.445,0.71-1.217,0.813-2.286
					c0.143-1.068-0.1-2.371-0.219-3.922c-0.041-0.771-0.054-1.637,0.239-2.497c0.255-0.865,0.759-1.698,1.412-2.439
					c1.306-1.494,3.142-2.646,4.726-4.238c0.791-0.791,1.47-1.749,1.802-2.871c0.346-1.121,0.283-2.367,0.099-3.614
					c-0.188-1.254-0.508-2.534-0.668-3.89c-0.186-1.349-0.083-2.811,0.406-4.165c0.964-2.692,3.37-5.037,6.395-5.631
					c2.938-0.651,5.959-0.254,8.403-1.491c1.199-0.614,2.08-1.656,2.626-2.846c0.573-1.179,0.892-2.457,1.271-3.684
					c0.37-1.23,0.794-2.446,1.475-3.504c0.677-1.061,1.683-1.869,2.771-2.313c2.201-0.896,4.428-0.754,6.345-0.675
					c1.932,0.099,3.689,0.115,5.155-0.297c1.445-0.436,2.685-1.008,3.393-1.797c0.718-0.791,0.901-1.652,1.002-2.198
					c0.098-0.558,0.099-0.861,0.128-0.86c0,0,0.042,0.302-0.024,0.875c-0.07,0.558-0.22,1.458-0.955,2.317
					c-0.736,0.86-1.988,1.467-3.466,1.943c-1.512,0.453-3.316,0.459-5.249,0.384c-1.918-0.06-4.097-0.16-6.161,0.704
					c-1.02,0.429-1.928,1.17-2.557,2.166c-0.632,0.996-1.038,2.169-1.399,3.392c-0.372,1.221-0.685,2.515-1.282,3.761
					c-0.278,0.63-0.678,1.219-1.137,1.763c-0.479,0.533-1.063,0.976-1.703,1.32c-2.654,1.329-5.708,0.904-8.523,1.546
					c-2.851,0.558-5.109,2.759-6.03,5.297c-0.461,1.279-0.566,2.623-0.392,3.935c0.149,1.313,0.461,2.593,0.648,3.876
					c0.182,1.277,0.247,2.6-0.135,3.815c-0.368,1.217-1.111,2.234-1.933,3.044c-1.653,1.629-3.484,2.752-4.758,4.18
					c-1.326,1.401-1.772,3.155-1.635,4.675c0.087,1.518,0.307,2.864,0.129,3.962c-0.137,1.097-0.555,1.891-0.933,2.328
					C149.586,89.244,149.297,89.366,149.297,89.366z"/>
			</g>
		</g>
		<g>
			<g>
				<path style="fill:#455A64;" d="M202.896,95.188c-0.019-0.022,0.204-0.151,0.471-0.53c0.27-0.372,0.542-1.021,0.601-1.9
					c0.082-0.878-0.149-1.957-0.089-3.258c0.052-1.33,0.804-2.697,1.766-3.969c0.924-1.288,2.161-2.633,2.493-4.43
					c0.338-1.809-0.441-3.729-0.818-5.832c-0.184-1.054-0.216-2.223,0.136-3.325c0.334-1.101,0.927-2.108,1.566-3.072
					c0.64-0.969,1.345-1.897,1.899-2.923c0.557-1.017,0.994-2.138,1.003-3.301c0.03-1.167-0.496-2.241-1.11-3.236
					c-0.605-1.001-1.316-1.993-1.647-3.157c-0.688-2.332-0.156-4.613-0.014-6.683c0.086-1.043,0.108-2.063-0.065-3.019
					c-0.174-0.952-0.54-1.837-1.103-2.552c-1.12-1.453-2.695-2.307-4.078-3.069c-1.404-0.744-2.716-1.419-3.714-2.237
					c-1.01-0.794-1.748-1.656-2.179-2.458c-0.442-0.799-0.576-1.515-0.589-1.989c-0.02-0.476,0.046-0.721,0.046-0.721
					c0.029,0.001,0.005,0.251,0.058,0.713c0.047,0.46,0.208,1.142,0.661,1.897c0.443,0.759,1.178,1.574,2.181,2.328
					c0.992,0.778,2.279,1.412,3.708,2.142c1.4,0.748,3.03,1.59,4.248,3.131c0.61,0.758,1.02,1.72,1.211,2.732
					c0.191,1.017,0.173,2.078,0.093,3.14c-0.14,2.106-0.628,4.349,0.023,6.495c0.303,1.066,0.98,2.016,1.602,3.038
					c0.624,1.004,1.221,2.199,1.188,3.509c-0.012,1.295-0.49,2.49-1.069,3.546c-0.58,1.067-1.299,2.009-1.929,2.957
					c-0.632,0.947-1.2,1.912-1.515,2.934c-0.329,1.021-0.307,2.079-0.138,3.102c0.34,2.027,1.146,4.015,0.77,5.988
					c-0.169,0.973-0.634,1.814-1.117,2.551c-0.491,0.739-1.026,1.389-1.506,2.023c-0.971,1.249-1.694,2.521-1.77,3.77
					c-0.086,1.239,0.115,2.344,0.001,3.254c-0.092,0.909-0.409,1.579-0.719,1.946C203.144,95.095,202.896,95.188,202.896,95.188z"/>
			</g>
		</g>
		<g>
			<g>
				<path style="fill:#455A64;" d="M139.091,84.676c0.006-0.03,0.327,0.056,0.949,0.079c0.617,0.019,1.552-0.061,2.639-0.512
					c1.077-0.447,2.317-1.282,3.283-2.639c0.964-1.358,1.616-3.204,1.788-5.299c0.239-2.104-0.286-4.388-0.347-6.929
					c0.003-1.261,0.12-2.634,0.851-3.86c0.736-1.219,1.986-1.99,3.152-2.739c1.17-0.745,2.371-1.592,2.906-2.903
					c0.549-1.3,0.553-2.826,0.64-4.35c0.082-1.528,0.239-3.146,0.897-4.65c0.345-0.738,0.723-1.467,1.353-2.077
					c0.632-0.597,1.471-0.92,2.293-1.069c1.662-0.288,3.278-0.114,4.82-0.284c1.548-0.115,2.964-0.753,4.03-1.799
					c1.076-1.029,1.863-2.31,2.525-3.606c0.671-1.297,1.19-2.641,1.825-3.916c0.629-1.271,1.351-2.475,2.251-3.502
					c0.892-1.027,2.014-1.845,3.263-2.226c1.252-0.377,2.547-0.303,3.688,0.002c1.153,0.288,2.18,0.759,3.155,1.185
					c1.932,0.88,3.714,1.643,5.39,1.705c1.667,0.09,3.104-0.244,4.208-0.643c2.224-0.836,3.15-1.862,3.19-1.794
					c0,0-0.212,0.258-0.714,0.641c-0.5,0.38-1.284,0.904-2.404,1.343c-1.114,0.436-2.573,0.809-4.294,0.744
					c-1.742-0.036-3.59-0.803-5.523-1.658c-0.976-0.414-1.996-0.866-3.104-1.132c-1.102-0.282-2.306-0.335-3.464,0.021
					c-1.154,0.362-2.197,1.128-3.046,2.116c-0.855,0.986-1.553,2.16-2.165,3.412c-1.208,2.484-2.148,5.441-4.43,7.679
					c-0.57,0.544-1.233,1.017-1.973,1.352c-0.74,0.342-1.553,0.508-2.353,0.592c-1.605,0.174-3.229,0.007-4.778,0.281
					c-0.767,0.139-1.493,0.427-2.034,0.938c-0.53,0.504-0.914,1.215-1.232,1.902c-0.62,1.411-0.779,2.956-0.863,4.472
					c-0.095,1.512-0.086,3.078-0.693,4.518c-0.612,1.47-1.933,2.37-3.103,3.11c-1.185,0.749-2.357,1.481-3.022,2.576
					c-0.661,1.079-0.803,2.403-0.81,3.618c0.037,2.46,0.548,4.806,0.282,6.965c-0.2,2.146-0.898,4.047-1.918,5.436
					c-1.027,1.394-2.324,2.226-3.444,2.657c-1.13,0.435-2.094,0.483-2.72,0.429C139.403,84.802,139.091,84.676,139.091,84.676z"/>
			</g>
		</g>
		<g>
			<g>
				<path style="fill:#455A64;" d="M212.576,46.564c-0.106,0.014,0.094-1.239-0.828-2.881c-0.451-0.808-1.164-1.678-2.124-2.445
					c-0.958-0.769-2.17-1.415-3.477-2.023c-1.31-0.608-2.593-1.149-3.709-1.769c-1.116-0.616-2.055-1.303-2.747-1.986
					c-0.691-0.684-1.135-1.345-1.374-1.83c-0.242-0.485-0.307-0.78-0.281-0.79c0.086-0.048,0.499,1.103,1.908,2.352
					c0.696,0.623,1.622,1.255,2.723,1.832c1.098,0.581,2.376,1.104,3.701,1.719c1.323,0.616,2.567,1.293,3.56,2.123
					c0.991,0.826,1.713,1.768,2.146,2.645c0.434,0.88,0.585,1.675,0.596,2.218C212.684,46.275,212.6,46.568,212.576,46.564z"/>
			</g>
		</g>
		<g>
			<g>
				<path style="fill:#263238;" d="M189.959,51.363c-0.103,0.114-0.452-0.04-1.017-0.171c-0.562-0.144-1.363-0.254-2.257-0.263
					c-0.894,0.002-1.696,0.107-2.259,0.246c-0.566,0.127-0.916,0.279-1.018,0.163c-0.092-0.096,0.136-0.496,0.738-0.845
					c0.592-0.356,1.519-0.605,2.543-0.606c1.024,0.009,1.949,0.265,2.538,0.626C189.827,50.866,190.052,51.268,189.959,51.363z"/>
			</g>
		</g>
		<g>
			<g>
				<path style="fill:#263238;" d="M204.555,53.33c-0.041,0.285-1.088,0.368-2.337,0.187c-1.25-0.181-2.229-0.559-2.188-0.844
					c0.041-0.285,1.088-0.368,2.337-0.187C203.617,52.668,204.597,53.045,204.555,53.33z"/>
			</g>
		</g>
		<g>
			<g>
				<path style="fill:#263238;" d="M169.564,66.078c0.014-0.011,0.098,0.075,0.246,0.253c0.147,0.177,0.347,0.457,0.538,0.856
					c0.403,0.781,0.695,2.101,0.443,3.666c-0.211,1.556-0.893,3.353-1.788,5.166c-0.401,0.916-0.694,1.937-0.443,2.965
					c0.233,1.033,0.861,2,1.409,3.063c0.571,1.043,0.929,2.295,0.746,3.462c-0.163,1.159-0.669,2.213-1.387,3.005
					c-0.707,0.805-1.637,1.335-2.558,1.556c-0.919,0.224-1.783,0.235-2.551,0.281c-1.54,0.037-2.739,0.386-3.431,0.881
					c-0.699,0.481-0.884,0.958-0.931,0.925c-0.012-0.006,0.019-0.126,0.135-0.328c0.114-0.202,0.325-0.485,0.676-0.761
					c0.688-0.577,1.971-1.003,3.526-1.085c0.772-0.068,1.618-0.105,2.468-0.331c0.844-0.223,1.667-0.711,2.307-1.456
					c0.648-0.731,1.1-1.704,1.241-2.752c0.153-1.061-0.151-2.136-0.703-3.16c-0.526-1.03-1.184-2.031-1.443-3.19
					c-0.279-1.175,0.076-2.338,0.501-3.268c0.432-0.95,0.899-1.782,1.188-2.633c0.314-0.844,0.542-1.651,0.676-2.399
					c0.287-1.5,0.066-2.747-0.265-3.526C169.836,66.483,169.522,66.109,169.564,66.078z"/>
			</g>
		</g>
		<g>
			<g>
				<path style="fill:#263238;" d="M215.999,92.974c0,0-0.203,0.119-0.64,0.12c-0.429-0.005-1.094-0.219-1.656-0.838
					c-0.547-0.593-1.049-1.618-0.82-2.807c0.193-1.178,0.96-2.335,1.94-3.388c0.97-1.066,2.207-2.076,3.001-3.51
					c0.39-0.71,0.603-1.538,0.563-2.397c-0.03-0.859-0.276-1.734-0.621-2.596c-0.685-1.733-1.805-3.418-2.393-5.464
					c-0.29-1.017-0.359-2.16-0.037-3.242c0.334-1.076,0.979-1.985,1.492-2.923c0.522-0.929,0.868-1.938,0.643-2.914
					c-0.192-0.976-0.855-1.795-1.538-2.533c-0.694-0.742-1.452-1.429-2.094-2.22c-0.653-0.783-1.122-1.716-1.358-2.662
					c-0.484-1.907-0.27-3.781,0.075-5.436c0.358-1.662,0.829-3.159,1.129-4.55c0.68-2.772,0.386-5.141-0.291-6.571
					c-0.664-1.448-1.465-1.956-1.408-2.003c0.006-0.007,0.053,0.023,0.14,0.089c0.086,0.067,0.219,0.162,0.367,0.315
					c0.307,0.293,0.722,0.782,1.084,1.513c0.367,0.726,0.658,1.696,0.767,2.846c0.117,1.152-0.009,2.477-0.298,3.888
					c-0.282,1.416-0.734,2.924-1.067,4.561c-0.323,1.624-0.504,3.441-0.035,5.227c0.231,0.891,0.659,1.732,1.279,2.471
					c0.613,0.749,1.363,1.425,2.08,2.185c0.702,0.756,1.44,1.635,1.673,2.777c0.266,1.14-0.154,2.318-0.694,3.269
					c-0.535,0.972-1.155,1.856-1.454,2.826c-0.287,0.969-0.235,1.995,0.035,2.956c0.544,1.936,1.647,3.629,2.346,5.42
					c0.351,0.895,0.609,1.825,0.633,2.762c0.036,0.936-0.213,1.858-0.642,2.616c-0.872,1.527-2.149,2.525-3.111,3.555
					c-0.978,1.017-1.719,2.1-1.923,3.19c-0.238,1.081,0.193,2.039,0.686,2.619c0.505,0.599,1.107,0.828,1.511,0.867
					C215.776,93.023,215.993,92.943,215.999,92.974z"/>
			</g>
		</g>
		<g>
			<g>
				<path style="fill:#D1734A;" d="M255.243,106.482c-0.141,0.068-0.765-1.279-2.17-2.339c-1.385-1.087-2.847-1.346-2.817-1.499
					c-0.015-0.134,1.616-0.096,3.135,1.087C254.922,104.895,255.376,106.462,255.243,106.482z"/>
			</g>
		</g>
		<g>
			<g>
				<path style="fill:#D1734A;" d="M240.335,161.285c-0.129,0.046-0.929-1.949-1.451-4.539c-0.53-2.589-0.571-4.738-0.434-4.746
					c0.15-0.012,0.422,2.09,0.945,4.642C239.908,159.196,240.478,161.238,240.335,161.285z"/>
			</g>
		</g>
		<g>
			<g>
				<g>
					<g>
						<path style="fill:#FFFFFF;" d="M176.556,150.073c3.381-1.052,6.023-4.201,6.436-8.177c0.537-5.21-2.952-9.84-7.794-10.343
							c-4.84-0.502-9.2,3.315-9.737,8.525c-0.414,4.014,1.572,7.661,4.716,9.364c-7.492,0.392-11.128,5.011-12.897,9.119
							c2.726,3.823,6.753,6.663,11.514,7.823l5.402,0.56c4.972-0.166,9.551-2.181,13.015-5.446
							C186.308,157.106,183.703,151.898,176.556,150.073z"/>
					</g>
				</g>
			</g>
		</g>
		<g style="opacity:0.3;">
			<path d="M136.681,146.567l4.439-4.579c0,0-1.917,33.106-3.226,37.085c-1.309,3.979-8.176,17.229-8.176,17.229l5.923-18.11
				L136.681,146.567z"/>
		</g>
		<g>
			<g>
				<path style="fill:#263238;" d="M146.51,136.38c0.104,0.1-3.803,4.333-8.725,9.454c-4.923,5.123-8.997,9.194-9.101,9.094
					c-0.104-0.1,3.802-4.332,8.725-9.455C142.332,140.352,146.406,136.28,146.51,136.38z"/>
			</g>
		</g>
		<g>
			<g>
				<path style="fill:#263238;" d="M208.576,133.788c0.036,0.005,0.018,0.375-0.043,1.04c-0.06,0.665-0.173,1.625-0.334,2.807
					c-0.32,2.366-0.854,5.622-1.596,9.189c-0.745,3.568-1.556,6.767-2.207,9.064c-0.325,1.148-0.604,2.073-0.815,2.707
					c-0.209,0.634-0.341,0.98-0.376,0.97c-0.035-0.01,0.031-0.374,0.18-1.025c0.181-0.761,0.399-1.676,0.654-2.746
					c0.559-2.316,1.311-5.519,2.053-9.077c0.74-3.557,1.33-6.794,1.743-9.14c0.193-1.082,0.359-2.008,0.497-2.779
					C208.455,134.144,208.54,133.783,208.576,133.788z"/>
			</g>
		</g>
		<g>
			<path style="fill:#E8505B;" d="M188.451,70.699c0.895-0.792,2.467-0.605,3.153,0.373c0.687,0.978,0.331,2.517-0.713,3.098
				c-1.044,0.58-2.537,0.071-3.013-1.024c-0.475-1.096,0.171-2.532,1.305-2.906"/>
		</g>
		<g>
			<g>
				<g>
					<path style="fill:#263238;" d="M188.66,68.467c0.262,0.021,0.026,1.758,1.343,3.197c1.314,1.442,3.192,1.502,3.173,1.747
						c0.009,0.112-0.459,0.281-1.243,0.194c-0.77-0.079-1.856-0.48-2.662-1.36c-0.803-0.881-1.054-1.944-1.014-2.665
						C188.29,68.844,188.543,68.441,188.66,68.467z"/>
				</g>
			</g>
		</g>
		<g>
			<path style="fill:#263238;" d="M166.468,42.573c1.009-1.506,2.053-3.114,2.134-4.925c0.114-2.577-2.059-5.019-4.625-5.287
				c-2.566-0.268-5.159,1.603-5.796,4.103c-0.638,2.5,0.685,5.335,2.972,6.53c2.286,1.195,5.31,0.701,7.16-1.097"/>
		</g>
		<g>
			<g>
				<path style="fill:#455A64;" d="M168.762,37.384c0.132-0.024,0.178,1.83-1.031,3.663c-1.189,1.847-2.905,2.551-2.936,2.421
					c-0.084-0.134,1.401-0.988,2.5-2.706C168.422,39.065,168.605,37.361,168.762,37.384z"/>
			</g>
		</g>
		<g>
			<g>
				<path style="fill:#455A64;" d="M165.676,42.952c-0.167-0.01,0.302-2.59-0.653-5.565c-0.909-2.99-2.763-4.844-2.632-4.947
					c0.042-0.044,0.562,0.352,1.223,1.171c0.661,0.813,1.422,2.082,1.906,3.621c0.479,1.54,0.575,3.016,0.495,4.061
					C165.938,42.342,165.735,42.964,165.676,42.952z"/>
			</g>
		</g>
	</g>
</g>
<g id="Icon">
	<g>
		<g>
			<circle style="fill:#E8505B;" cx="200.935" cy="200.522" r="25.388"/>
		</g>
		<g style="opacity:0.3;">
			<circle cx="200.935" cy="200.522" r="25.388"/>
		</g>
		<g>
			<circle style="fill:#E8505B;" cx="200.935" cy="195.81" r="25.388"/>
		</g>
		<g>
			<g>
				<g>
					<path style="fill:#FFFFFF;" d="M200.935,210.828c-0.719,0-1.302-6.724-1.302-15.017c0-8.296,0.583-15.018,1.302-15.018
						c0.719,0,1.302,6.723,1.302,15.018C202.237,204.104,201.654,210.828,200.935,210.828z"/>
				</g>
			</g>
			<g>
				<g>
					<path style="fill:#FFFFFF;" d="M215.953,195.81c0,0.719-6.724,1.302-15.017,1.302c-8.296,0-15.019-0.583-15.019-1.302
						c0-0.719,6.723-1.302,15.019-1.302C209.229,194.508,215.953,195.091,215.953,195.81z"/>
				</g>
			</g>
		</g>
	</g>
</g>
</svg>
