<?xml version="1.0" encoding="utf-8"?>
<!-- Generator: Adobe Illustrator 27.5.0, SVG Export Plug-In . SVG Version: 6.00 Build 0)  -->
<svg version="1.1" xmlns="http://www.w3.org/2000/svg" xmlns:xlink="http://www.w3.org/1999/xlink" x="0px" y="0px"
	 viewBox="0 0 500 500" style="enable-background:new 0 0 500 500;" xml:space="preserve">
<g id="BACKGROUND">
	<rect style="fill:#6F4FA3;" width="500" height="500"/>
</g>
<g id="OBJECTS">
	<g>
		<g>
			<g>
				<g>
					<path style="fill:none;stroke:#B88FF9;stroke-width:0.5;stroke-miterlimit:10;" d="M261.438,137.501h-69.146
						c-2.77,0-5.016-2.246-5.016-5.017v-34.98c0-2.771,2.246-5.017,5.016-5.017h69.146c2.771,0,5.017,2.246,5.017,5.017v34.98
						C266.454,135.255,264.208,137.501,261.438,137.501z"/>
					<path style="fill:#B88FF9;" d="M257.162,134.718h-60.594c-2.428,0-4.396-1.968-4.396-4.396V99.668
						c0-2.428,1.968-4.396,4.396-4.396h60.594c2.428,0,4.396,1.968,4.396,4.396v30.653
						C261.558,132.75,259.589,134.718,257.162,134.718z"/>
					<g>
						<path style="fill:#FFFFFF;" d="M248.251,109.054h-42.772c-0.787,0-1.426-0.638-1.426-1.426l0,0
							c0-0.787,0.638-1.426,1.426-1.426h42.772c0.787,0,1.426,0.638,1.426,1.426l0,0
							C249.676,108.416,249.038,109.054,248.251,109.054z"/>
						<path style="fill:#FFFFFF;" d="M248.251,117.134h-42.772c-0.787,0-1.426-0.638-1.426-1.426l0,0
							c0-0.787,0.638-1.426,1.426-1.426h42.772c0.787,0,1.426,0.638,1.426,1.426l0,0
							C249.676,116.495,249.038,117.134,248.251,117.134z"/>
						<path style="fill:#FFFFFF;" d="M221.964,125.213h-16.485c-0.787,0-1.426-0.638-1.426-1.426v0c0-0.787,0.638-1.426,1.426-1.426
							h16.485c0.788,0,1.426,0.638,1.426,1.426v0C223.389,124.575,222.751,125.213,221.964,125.213z"/>
					</g>
				</g>
				<polyline style="fill:none;stroke:#B88FF9;stroke-width:0.5;stroke-miterlimit:10;" points="192.171,98.658 185.773,187.063 
					260.167,133.523 				"/>
			</g>
			<g>
				
					<linearGradient id="SVGID_1_" gradientUnits="userSpaceOnUse" x1="37.8439" y1="171.0945" x2="110.1784" y2="171.0945" gradientTransform="matrix(0.9901 0.1403 -0.1403 0.9901 172.084 -5.0666)">
					<stop  offset="0" style="stop-color:#FF7736"/>
					<stop  offset="1" style="stop-color:#F7BB5B"/>
				</linearGradient>
				<polyline style="fill:none;stroke:url(#SVGID_1_);stroke-width:0.5;stroke-miterlimit:10;" points="245.658,158.242 
					183.642,189.21 254.84,196.133 				"/>
				
					<radialGradient id="SVGID_00000051342009381621725330000016527204990212176258_" cx="95.1972" cy="163.0949" r="31.8331" gradientTransform="matrix(0.9901 0.1403 -0.1403 0.9901 172.084 -5.0666)" gradientUnits="userSpaceOnUse">
					<stop  offset="0" style="stop-color:#F7BB5B"/>
					<stop  offset="1" style="stop-color:#FF7736"/>
				</radialGradient>
				<circle style="fill:url(#SVGID_00000051342009381621725330000016527204990212176258_);" cx="255.577" cy="176.118" r="20.588"/>
				
					<radialGradient id="SVGID_00000049917496151097334580000013435526702151862956_" cx="108.0884" cy="167.68" r="25.4978" gradientTransform="matrix(0.9901 0.1403 -0.1403 0.9901 172.084 -5.0666)" gradientUnits="userSpaceOnUse">
					<stop  offset="0" style="stop-color:#F7BB5B"/>
					<stop  offset="1" style="stop-color:#FF7736"/>
				</radialGradient>
				
					<ellipse transform="matrix(0.4788 -0.8779 0.8779 0.4788 -21.4174 316.1586)" style="fill:none;stroke:url(#SVGID_00000049917496151097334580000013435526702151862956_);stroke-width:0.5;stroke-miterlimit:10;" cx="255.577" cy="176.118" rx="25.248" ry="25.248"/>
			</g>
		</g>
		<g>
			<g>
				<g>
					
						<linearGradient id="SVGID_00000140730543385220612570000010618028600528261520_" gradientUnits="userSpaceOnUse" x1="215.7659" y1="214.7073" x2="216.954" y2="239.1824">
						<stop  offset="0" style="stop-color:#97D8FF"/>
						<stop  offset="1" style="stop-color:#3B7FFF"/>
					</linearGradient>
					<polygon style="fill:url(#SVGID_00000140730543385220612570000010618028600528261520_);" points="217.644,250.745 
						202.513,240.645 216.585,234.233 231.716,244.332 					"/>
					
						<linearGradient id="SVGID_00000103976027192896616760000013420504392145215158_" gradientUnits="userSpaceOnUse" x1="208.66" y1="225.1829" x2="242.0464" y2="278.0545">
						<stop  offset="0" style="stop-color:#97D8FF"/>
						<stop  offset="1" style="stop-color:#3B7FFF"/>
					</linearGradient>
					<polygon style="fill:url(#SVGID_00000103976027192896616760000013420504392145215158_);" points="202.513,240.645 
						204.819,222.6 218.891,216.187 216.585,234.233 					"/>
					
						<linearGradient id="SVGID_00000038391819471784433790000011835206951181623989_" gradientUnits="userSpaceOnUse" x1="222.8856" y1="210.1814" x2="228.2321" y2="256.1614">
						<stop  offset="0" style="stop-color:#97D8FF"/>
						<stop  offset="1" style="stop-color:#3B7FFF"/>
					</linearGradient>
					<polygon style="fill:url(#SVGID_00000038391819471784433790000011835206951181623989_);" points="218.891,216.187 
						233.864,226.359 231.716,244.332 216.585,234.233 					"/>
				</g>
				
					<linearGradient id="SVGID_00000018214824950870706160000013719030317602583454_" gradientUnits="userSpaceOnUse" x1="-418.2796" y1="421.682" x2="-388.3524" y2="452.2722" gradientTransform="matrix(0.799 0.6013 -0.6013 0.799 803.1794 126.8336)">
					<stop  offset="0" style="stop-color:#97D8FF"/>
					<stop  offset="1" style="stop-color:#3B7FFF"/>
				</linearGradient>
				
					<polygon style="fill:none;stroke:url(#SVGID_00000018214824950870706160000013719030317602583454_);stroke-width:0.3567;stroke-miterlimit:10;" points="
					237.664,224.617 219.054,211.975 201.563,219.945 198.696,242.375 217.504,254.928 234.995,246.957 				"/>
				
					<linearGradient id="SVGID_00000120541711011950561420000004255471087982258612_" gradientUnits="userSpaceOnUse" x1="-397.5339" y1="380.1412" x2="-360.9774" y2="417.5075" gradientTransform="matrix(0.799 0.6013 -0.6013 0.799 803.1794 126.8336)">
					<stop  offset="0" style="stop-color:#97D8FF"/>
					<stop  offset="1" style="stop-color:#3B7FFF"/>
				</linearGradient>
				
					<polyline style="fill:none;stroke:url(#SVGID_00000120541711011950561420000004255471087982258612_);stroke-width:0.3567;stroke-miterlimit:10;" points="
					234.995,246.957 296.238,186.742 219.054,211.975 				"/>
				
					<linearGradient id="SVGID_00000035504114579893777480000007987523447335394233_" gradientUnits="userSpaceOnUse" x1="-406.2878" y1="388.917" x2="-376.272" y2="419.5977" gradientTransform="matrix(0.799 0.6013 -0.6013 0.799 803.1794 126.8336)">
					<stop  offset="0" style="stop-color:#97D8FF"/>
					<stop  offset="1" style="stop-color:#3B7FFF"/>
				</linearGradient>
				
					<line style="fill:none;stroke:url(#SVGID_00000035504114579893777480000007987523447335394233_);stroke-width:0.3567;stroke-miterlimit:10;" x1="296.238" y1="186.742" x2="198.696" y2="242.375"/>
				
					<linearGradient id="SVGID_00000011016150148118070270000016296654460880828849_" gradientUnits="userSpaceOnUse" x1="-393.0639" y1="418.189" x2="-393.0639" y2="418.189" gradientTransform="matrix(0.799 0.6013 -0.6013 0.799 803.1794 126.8336)">
					<stop  offset="0" style="stop-color:#97D8FF"/>
					<stop  offset="1" style="stop-color:#3B7FFF"/>
				</linearGradient>
				
					<path style="fill:none;stroke:url(#SVGID_00000011016150148118070270000016296654460880828849_);stroke-width:0.3567;stroke-miterlimit:10;" d="
					M237.664,224.617"/>
			</g>
			<g>
				<g>
					
						<linearGradient id="SVGID_00000160159068844247711320000010641844715305263757_" gradientUnits="userSpaceOnUse" x1="-287.5423" y1="417.5865" x2="-269.3409" y2="482.3678" gradientTransform="matrix(0.8785 0.4777 -0.4777 0.8785 714.0939 54.0703)">
						<stop  offset="0" style="stop-color:#97D8FF"/>
						<stop  offset="1" style="stop-color:#3B7FFF"/>
					</linearGradient>
					<polygon style="fill:url(#SVGID_00000160159068844247711320000010641844715305263757_);" points="265.517,320.274 
						233.874,322.067 246.745,298.399 278.388,296.605 					"/>
					
						<linearGradient id="SVGID_00000165952155587465273590000003267700556448604320_" gradientUnits="userSpaceOnUse" x1="-302.3991" y1="389.0413" x2="-309.2494" y2="464.0036" gradientTransform="matrix(0.8785 0.4777 -0.4777 0.8785 714.0939 54.0703)">
						<stop  offset="0" style="stop-color:#97D8FF"/>
						<stop  offset="1" style="stop-color:#3B7FFF"/>
					</linearGradient>
					<polygon style="fill:url(#SVGID_00000165952155587465273590000003267700556448604320_);" points="233.874,322.067 
						218.18,294.532 231.051,270.863 246.745,298.399 					"/>
					
						<linearGradient id="SVGID_00000134228355425814667710000015097553821280212652_" gradientUnits="userSpaceOnUse" x1="-274.967" y1="440.5333" x2="-213.1176" y2="503.7527" gradientTransform="matrix(0.8785 0.4777 -0.4777 0.8785 714.0939 54.0703)">
						<stop  offset="0" style="stop-color:#97D8FF"/>
						<stop  offset="1" style="stop-color:#3B7FFF"/>
					</linearGradient>
					<polygon style="fill:url(#SVGID_00000134228355425814667710000015097553821280212652_);" points="231.051,270.863 
						262.549,269.337 278.388,296.605 246.745,298.399 					"/>
				</g>
				
					<linearGradient id="SVGID_00000049940926006140588680000008994987330027111304_" gradientUnits="userSpaceOnUse" x1="222.0856" y1="269.0169" x2="274.2226" y2="322.3088">
					<stop  offset="0" style="stop-color:#97D8FF"/>
					<stop  offset="1" style="stop-color:#3B7FFF"/>
				</linearGradient>
				
					<polygon style="fill:none;stroke:url(#SVGID_00000049940926006140588680000008994987330027111304_);stroke-width:0.6215;stroke-miterlimit:10;" points="
					266.015,262.932 226.864,264.829 210.867,294.247 230.373,328.473 269.703,326.243 285.702,296.825 				"/>
				
					<linearGradient id="SVGID_00000142133760801551514650000002166923481943880582_" gradientUnits="userSpaceOnUse" x1="257.4853" y1="222.2115" x2="308.7454" y2="274.607">
					<stop  offset="0" style="stop-color:#97D8FF"/>
					<stop  offset="1" style="stop-color:#3B7FFF"/>
				</linearGradient>
				
					<polyline style="fill:none;stroke:url(#SVGID_00000142133760801551514650000002166923481943880582_);stroke-width:0.6215;stroke-miterlimit:10;" points="
					285.702,296.825 294.072,186.962 226.864,264.829 				"/>
				
					<linearGradient id="SVGID_00000049903463056683263400000012872643076948853423_" gradientUnits="userSpaceOnUse" x1="242.2269" y1="237.2789" x2="282.218" y2="278.1559">
					<stop  offset="0" style="stop-color:#97D8FF"/>
					<stop  offset="1" style="stop-color:#3B7FFF"/>
				</linearGradient>
				
					<line style="fill:none;stroke:url(#SVGID_00000049903463056683263400000012872643076948853423_);stroke-width:0.6215;stroke-miterlimit:10;" x1="294.072" y1="186.962" x2="230.373" y2="328.473"/>
				
					<linearGradient id="SVGID_00000052791546705859130730000016890397192976873146_" gradientUnits="userSpaceOnUse" x1="266.0146" y1="262.9316" x2="266.0146" y2="262.9316">
					<stop  offset="0" style="stop-color:#97D8FF"/>
					<stop  offset="1" style="stop-color:#3B7FFF"/>
				</linearGradient>
				
					<path style="fill:none;stroke:url(#SVGID_00000052791546705859130730000016890397192976873146_);stroke-width:0.6215;stroke-miterlimit:10;" d="
					M266.015,262.932"/>
			</g>
		</g>
	</g>
	<g>
		<ellipse style="opacity:0.4;fill:#2F1756;" cx="359.269" cy="402.521" rx="78.441" ry="4.99"/>
		<g>
			
				<linearGradient id="SVGID_00000142151702386680378670000010382964621257577889_" gradientUnits="userSpaceOnUse" x1="411.2796" y1="269.6752" x2="371.7151" y2="166.8433">
				<stop  offset="0" style="stop-color:#FFD1C2"/>
				<stop  offset="1" style="stop-color:#F67793"/>
			</linearGradient>
			<path style="fill:url(#SVGID_00000142151702386680378670000010382964621257577889_);" d="M396.611,256.126
				c0,0,2.34,18.075-2.75,19.145c-5.09,1.07-6.516-26.197-6.516-26.197l9.266-27.268l-3.72-2.45
				c2.345-3.86,5.795-10.625,6.05-17.395c7.635,7.325,13.45,14.615,14.065,16.755C414.256,223.056,396.611,256.126,396.611,256.126z
				"/>
			<g>
				
					<linearGradient id="SVGID_00000108997702401881760520000014480378792589917062_" gradientUnits="userSpaceOnUse" x1="268.3916" y1="198.8632" x2="273.9163" y2="162.6255" gradientTransform="matrix(0.9968 0.0794 -0.0794 0.9968 94.4037 -32.1946)">
					<stop  offset="0" style="stop-color:#FFD1C2"/>
					<stop  offset="1" style="stop-color:#F67793"/>
				</linearGradient>
				<path style="fill:url(#SVGID_00000108997702401881760520000014480378792589917062_);" d="M362.122,186.29
					c0,0-12.821,3.092-12.807,2.913c0.006-0.08-0.317-2.001-0.654-3.949c-0.351-2.079-0.723-4.206-0.723-4.206
					s-6.594,2.755-8.168,0.784c-1.568-1.976-2.437-6.052-2.437-6.052s-2.515-0.602-2.652-1.089
					c-0.142-0.488,1.103-4.146,1.606-5.234c0.508-1.093,0.04-6.492,0.854-10.721l10.979-1.629l10.397,1.901
					c0,0,1.997,8.561,1.624,13.241C359.768,176.928,362.122,186.29,362.122,186.29z"/>
				
					<linearGradient id="SVGID_00000000911369281681181620000013005438524550634675_" gradientUnits="userSpaceOnUse" x1="348.2628" y1="143.271" x2="361.5696" y2="227.6268">
					<stop  offset="0" style="stop-color:#97D8FF"/>
					<stop  offset="1" style="stop-color:#3B7FFF"/>
				</linearGradient>
				<path style="fill:url(#SVGID_00000000911369281681181620000013005438524550634675_);" d="M346.058,191.688
					c0,0,0.535-5.017,1.604-5.525c1.069-0.508,13.426-4.641,15.267-3.539c1.842,1.103,2.376,6.865,2.495,7.043"/>
				<path style="fill:#261049;" d="M336.636,153.869c-4.188-1.287-6.447,1.632-3.912,4.218c2.535,2.586,12.243,3.418,12.243,3.418
					s2.57,6.641,3.534,7.254c0.964,0.613-0.647-6.844,3.638-6.771c4.285,0.072,3.591,7.287-0.243,8.293c0,0,2.496,5.324,5.185,6.73
					c2.689,1.406,6.398-0.265,7.881-4.676c1.483-4.411,4.589-11.971-0.718-12.691c5.461-4.214-1.345-11.549-9.138-10.978
					c-7.793,0.571-17.8-3.98-20.042-2.013C332.823,148.619,333.077,152.155,336.636,153.869z"/>
				<path style="fill:none;stroke:#CA4570;stroke-width:0.5;stroke-linecap:round;stroke-linejoin:round;stroke-miterlimit:10;" d="
					M351.191,168.287c-1.165-0.718-0.131-3.97,1.875-3.337"/>
				<path style="fill:#33256D;" d="M341.538,169.16c0.065,0.62-0.284,1.165-0.78,1.217c-0.496,0.052-0.952-0.408-1.017-1.028
					c-0.065-0.62,0.284-1.165,0.78-1.217C341.017,168.08,341.473,168.54,341.538,169.16z"/>
				<path style="fill:none;stroke:#33256D;stroke-width:0.5;stroke-linecap:round;stroke-miterlimit:10;" d="M338.426,166.634
					c0,0,1.069-1.822,3.76-0.445"/>
				<path style="fill:none;stroke:#CA4570;stroke-width:0.5;stroke-linecap:round;stroke-linejoin:round;stroke-miterlimit:10;" d="
					M341.449,177.985c0,0,1.659,0.49,3.092-1.229"/>
				<path style="fill:#CA4570;" d="M348.662,185.253c-0.351-2.079-0.723-4.206-0.723-4.206c3.332-1.209,4.406-2.919,4.406-2.919
					S352.217,183.249,348.662,185.253z"/>
			</g>
			<g>
				<path style="fill:#261049;" d="M409.976,380.896h-23.045l-9.95-57.685l-5.5-31.9l-9.025,89.585h-20.57
					c0,0,0.335-78.095,2.195-120.35c0.09-2.03,0.185-3.98,0.28-5.83l48.24-6.085l1.26,9.575L409.976,380.896z"/>
				<path style="fill:#FFFFFF;" d="M341.886,380.896l-24.744,19.761c-0.773,0.617-0.336,1.863,0.653,1.863h44.743
					c0.6,0,1.077-0.504,1.044-1.103l-1.125-20.521H341.886z"/>
				<path style="fill:#FFFFFF;" d="M388.722,380.896l-8.595,18.827c-0.598,1.309,0.359,2.797,1.798,2.797h26.466
					c1.134,0,2.035-0.952,1.973-2.084l-1.071-19.539H388.722z"/>
			</g>
			<g>
				
					<linearGradient id="SVGID_00000121995033737155542510000011470954579154868400_" gradientUnits="userSpaceOnUse" x1="382.249" y1="191.6552" x2="387.7737" y2="273.279">
					<stop  offset="0" style="stop-color:#97D8FF"/>
					<stop  offset="1" style="stop-color:#3B7FFF"/>
				</linearGradient>
				<path style="fill:url(#SVGID_00000121995033737155542510000011470954579154868400_);" d="M398.941,201.961
					c-0.255,6.77-3.705,13.535-6.05,17.395l-13.565-8.92l-12.105-4.49l6.045-21.16C381.306,186.841,391.091,194.416,398.941,201.961
					z"/>
				<path style="fill:#150633;" d="M393.861,258.206c-13.135,8.21-34.505,9.005-49.78,2.34c0.09-2.03,0.185-3.98,0.28-5.83
					l48.24-6.085L393.861,258.206z"/>
				
					<linearGradient id="SVGID_00000124136377655015442130000012415442039729314478_" gradientUnits="userSpaceOnUse" x1="296.751" y1="193.2621" x2="407.6026" y2="306.2523">
					<stop  offset="0" style="stop-color:#FFD1C2"/>
					<stop  offset="1" style="stop-color:#F67793"/>
				</linearGradient>
				<path style="fill:url(#SVGID_00000124136377655015442130000012415442039729314478_);" d="M310.531,212.896
					c0,0,5.446-7.129,4.684-11.287s-3-11.525-6.158-9.03c-3.158,2.495-6.034,13.576-6.129,14.673
					c-0.094,1.098,0.047,8.16,0.047,8.16l4.706,3.305"/>
				<path style="fill:#33256D;" d="M313.475,212.174l-12.62,0.718c-1.212,0.069-2.423-0.898-2.706-2.16l-5.605-24.977
					c-0.283-1.262,0.47-2.34,1.681-2.409l12.62-0.718c1.211-0.069,2.423,0.898,2.706,2.16l5.605,24.978
					C315.439,211.027,314.686,212.105,313.475,212.174z"/>
				<path style="fill:#FFFFFF;" d="M312.174,209.811l-10.914,0.621c-1.048,0.06-2.096-0.777-2.341-1.868l-4.847-21.602
					c-0.245-1.091,0.406-2.024,1.454-2.084l10.914-0.621c1.048-0.06,2.096,0.777,2.341,1.868l4.847,21.602
					C313.873,208.818,313.222,209.751,312.174,209.811z"/>
				
					<linearGradient id="SVGID_00000132090386337464510430000001366050173088580277_" gradientUnits="userSpaceOnUse" x1="295.7326" y1="172.938" x2="346.5248" y2="264.5421">
					<stop  offset="0" style="stop-color:#97D8FF"/>
					<stop  offset="1" style="stop-color:#3B7FFF"/>
				</linearGradient>
				<path style="opacity:0.56;fill:url(#SVGID_00000132090386337464510430000001366050173088580277_);" d="M315.679,206.365
					l-10.914,0.621c-1.048,0.06-2.096-0.777-2.341-1.868l-4.847-21.602c-0.245-1.091,0.406-2.024,1.454-2.084l10.914-0.621
					c1.048-0.06,2.096,0.776,2.341,1.868l4.847,21.602C317.378,205.373,316.727,206.306,315.679,206.365z"/>
				
					<linearGradient id="SVGID_00000140695162521195536870000002522749231599161016_" gradientUnits="userSpaceOnUse" x1="290.9721" y1="198.9316" x2="401.8238" y2="311.9219">
					<stop  offset="0" style="stop-color:#FFD1C2"/>
					<stop  offset="1" style="stop-color:#F67793"/>
				</linearGradient>
				<path style="fill:url(#SVGID_00000140695162521195536870000002522749231599161016_);" d="M299.126,216.696
					c0,0-5.613-7.81-5.613-11.018c0-3.208,1.693-10.248,3.921-9.446c2.228,0.802,0.356,7.574,0.356,7.574s9.802,8.198,10.96,11.762
					c1.158,3.564-1.337,5.257-1.337,5.257"/>
				
					<linearGradient id="SVGID_00000029739896954461294010000016344694178817342652_" gradientUnits="userSpaceOnUse" x1="354.2129" y1="193.5529" x2="359.7377" y2="275.1768">
					<stop  offset="0" style="stop-color:#97D8FF"/>
					<stop  offset="1" style="stop-color:#3B7FFF"/>
				</linearGradient>
				<path style="fill:url(#SVGID_00000029739896954461294010000016344694178817342652_);" d="M393.461,250.441
					c0,1.07-36.475,8.08-41.7,9.505c-5.23,1.425-8.2-0.24-7.84-3.805c0.15-1.485-0.615-7.99-1.555-15.06
					c-1.255-9.475-2.83-19.97-2.955-20.77l-0.005-0.05l-5.685,10.62l-13.25-12.76c2.395-7.395,5.48-16.025,7.645-18.89
					c4.04-5.345,28.16-12.235,28.16-12.235c20.79-5.35,24.12-0.36,28.87,8.195C389.901,203.746,393.461,249.371,393.461,250.441z"/>
				
					<linearGradient id="SVGID_00000101782769888291718550000011811314234601189789_" gradientUnits="userSpaceOnUse" x1="285.4017" y1="204.3967" x2="396.2531" y2="317.3867">
					<stop  offset="0" style="stop-color:#FFD1C2"/>
					<stop  offset="1" style="stop-color:#F67793"/>
				</linearGradient>
				<path style="fill:url(#SVGID_00000101782769888291718550000011811314234601189789_);" d="M333.721,230.881l-11.745,21.94
					c-2.6,4.86-9.76,4.22-11.46-1.02l-11.39-35.105l10.14-3.38l1.265-0.42l0.33,0.895l5.97,16.215c0,0,1.56-5.48,3.64-11.885
					L333.721,230.881z"/>
				
					<line style="fill:none;stroke:#CA4570;stroke-width:0.5;stroke-linecap:round;stroke-linejoin:round;stroke-miterlimit:10;" x1="316.831" y1="230.006" x2="314.454" y2="236.896"/>
				
					<linearGradient id="SVGID_00000024682898218058549630000004998807031383505839_" gradientUnits="userSpaceOnUse" x1="334.8692" y1="196.139" x2="342.1057" y2="226.043">
					<stop  offset="0" style="stop-color:#97D8FF"/>
					<stop  offset="1" style="stop-color:#3B7FFF"/>
				</linearGradient>
				<path style="fill:url(#SVGID_00000024682898218058549630000004998807031383505839_);" d="M342.366,241.081
					c-1.255-9.475-2.83-19.97-2.955-20.77l-0.005-0.05l2.85-7.365C342.256,212.896,346.921,227.886,342.366,241.081z"/>
			</g>
			<path style="fill:#150633;" d="M376.981,323.211l-5.5-31.9c0,0,10.46-10.455,10.935-9.86
				C382.726,281.836,379.371,306.191,376.981,323.211z"/>
		</g>
	</g>
	<g>
		
			<linearGradient id="SVGID_00000085941510350420575410000007800830362131691941_" gradientUnits="userSpaceOnUse" x1="181.0014" y1="329.1575" x2="181.239" y2="379.5337">
			<stop  offset="0" style="stop-color:#79FFB3"/>
			<stop  offset="1" style="stop-color:#3B9DA6"/>
		</linearGradient>
		<path style="fill:url(#SVGID_00000085941510350420575410000007800830362131691941_);" d="M171.922,379.886
			c-10.023-13.188-8.597-35.287-7.35-34.574c1.247,0.713,11.584,23.168,11.584,23.168s-2.673-30.653,3.386-39.03
			c6.059-8.376,4.812,42.951,4.812,42.951s6.594-18,12.119-16.931s-0.713,26.932-9.446,31.466"/>
		<path style="fill:#5B3991;" d="M194.238,376.857h-27.524c-2.325,0-4.085,2.1-3.678,4.389l3.232,18.193
			c0.317,1.783,1.867,3.083,3.678,3.083h21.061c1.811,0,3.362-1.299,3.678-3.083l3.232-18.193
			C198.323,378.957,196.563,376.857,194.238,376.857z"/>
	</g>
	<g>
		<ellipse style="opacity:0.4;fill:#2F1756;" cx="140.731" cy="402.521" rx="78.441" ry="4.99"/>
		<g>
			
				<linearGradient id="SVGID_00000017506697589952709010000004810963062525009330_" gradientUnits="userSpaceOnUse" x1="181.6436" y1="125.7824" x2="152.0594" y2="239.4856">
				<stop  offset="0" style="stop-color:#FFD1C2"/>
				<stop  offset="1" style="stop-color:#F67793"/>
			</linearGradient>
			<path style="fill:url(#SVGID_00000017506697589952709010000004810963062525009330_);" d="M135.791,226.989
				c0.356-0.102,14.523,11.838,19.157,13.264c4.635,1.426,24.312-30.284,24.312-30.284l-1.747-13.256l-23.514,20.996l-9.693-7.273"
				/>
			<g>
				
					<linearGradient id="SVGID_00000082336565766477108240000007259739240090573705_" gradientUnits="userSpaceOnUse" x1="83.6633" y1="430.6956" x2="101.0098" y2="320.6758">
					<stop  offset="0" style="stop-color:#FFD1C2"/>
					<stop  offset="1" style="stop-color:#F67793"/>
				</linearGradient>
				<polygon style="fill:url(#SVGID_00000082336565766477108240000007259739240090573705_);" points="102.701,386.936 
					98.571,392.896 78.721,392.896 79.376,380.896 99.946,380.896 				"/>
				<path style="fill:#261049;" d="M78.693,380.896h23.045l9.95-57.685l5.5-31.9l9.025,89.585h20.57c0,0-0.335-78.095-2.195-120.35
					c-0.09-2.03-0.185-3.98-0.28-5.83l-46.696-17.82l-2.804,21.31L78.693,380.896z"/>
				<path style="fill:#150633;" d="M111.688,323.211l5.5-31.9c0,0-10.46-10.455-10.935-9.86
					C105.943,281.836,109.298,306.191,111.688,323.211z"/>
				<path style="fill:#FFFFFF;" d="M170.876,402.521h-44.745c-0.6,0-1.075-0.505-1.045-1.105l0.465-8.52l0.66-12h20.57l8.885,7.095
					l15.86,12.665C172.301,401.276,171.861,402.521,170.876,402.521z"/>
				<path style="fill:#FFFFFF;" d="M106.746,402.521H80.281c-1.135,0-2.04-0.955-1.975-2.085l0.415-7.54h19.85l4.13-5.96
					l5.84,12.785C109.141,401.031,108.181,402.521,106.746,402.521z"/>
				
					<linearGradient id="SVGID_00000131327840560595370480000000347673874608161943_" gradientUnits="userSpaceOnUse" x1="133.5697" y1="431.1825" x2="150.9171" y2="321.157">
					<stop  offset="0" style="stop-color:#FFD1C2"/>
					<stop  offset="1" style="stop-color:#F67793"/>
				</linearGradient>
				<polygon style="fill:url(#SVGID_00000131327840560595370480000000347673874608161943_);" points="155.666,387.991 
					152.986,392.896 125.551,392.896 126.211,380.896 146.781,380.896 				"/>
			</g>
			<g>
				
					<linearGradient id="SVGID_00000009592382629999942630000006776945385304224925_" gradientUnits="userSpaceOnUse" x1="-90.6061" y1="193.2621" x2="20.2455" y2="306.2523" gradientTransform="matrix(-1 0 0 1 101.3124 0)">
					<stop  offset="0" style="stop-color:#FFD1C2"/>
					<stop  offset="1" style="stop-color:#F67793"/>
				</linearGradient>
				<path style="fill:url(#SVGID_00000009592382629999942630000006776945385304224925_);" d="M178.138,212.896
					c0,0-5.446-7.129-4.684-11.287c0.762-4.158,2.999-11.525,6.158-9.03c3.158,2.495,6.034,13.576,6.129,14.673
					c0.094,1.098-0.047,8.16-0.047,8.16l-4.706,3.305"/>
				<path style="fill:#33256D;" d="M175.195,212.174l12.62,0.718c1.212,0.069,2.423-0.898,2.706-2.16l5.605-24.977
					c0.283-1.262-0.47-2.34-1.681-2.409l-12.62-0.718c-1.212-0.069-2.423,0.898-2.706,2.16l-5.605,24.978
					C173.23,211.027,173.983,212.105,175.195,212.174z"/>
				<path style="fill:#FFFFFF;" d="M176.495,209.811l10.914,0.621c1.048,0.06,2.096-0.777,2.341-1.868l4.847-21.602
					c0.245-1.091-0.406-2.024-1.454-2.084l-10.914-0.621c-1.048-0.06-2.096,0.777-2.341,1.868l-4.847,21.602
					C174.796,208.818,175.447,209.751,176.495,209.811z"/>
				
					<linearGradient id="SVGID_00000068652392719004854840000009191992885188615041_" gradientUnits="userSpaceOnUse" x1="177.0806" y1="168.5879" x2="185.9915" y2="257.6967">
					<stop  offset="0" style="stop-color:#FF7736"/>
					<stop  offset="1" style="stop-color:#F7BB5B"/>
				</linearGradient>
				<path style="opacity:0.52;fill:url(#SVGID_00000068652392719004854840000009191992885188615041_);" d="M171.287,206.365
					l10.914,0.621c1.048,0.06,2.096-0.777,2.341-1.868l4.847-21.602c0.245-1.091-0.406-2.024-1.454-2.084l-10.914-0.621
					c-1.048-0.06-2.096,0.776-2.341,1.868l-4.847,21.602C169.589,205.373,170.24,206.306,171.287,206.365z"/>
				
					<linearGradient id="SVGID_00000001654244404411043310000002814550355208092044_" gradientUnits="userSpaceOnUse" x1="-96.385" y1="198.9316" x2="14.4668" y2="311.922" gradientTransform="matrix(-1 0 0 1 101.3124 0)">
					<stop  offset="0" style="stop-color:#FFD1C2"/>
					<stop  offset="1" style="stop-color:#F67793"/>
				</linearGradient>
				<path style="fill:url(#SVGID_00000001654244404411043310000002814550355208092044_);" d="M189.543,216.696
					c0,0,5.613-7.81,5.613-11.018c0-3.208-1.693-10.248-3.921-9.446c-2.228,0.802-0.356,7.574-0.356,7.574
					s-9.802,8.198-10.96,11.762c-1.158,3.564,1.337,5.257,1.337,5.257"/>
				
					<linearGradient id="SVGID_00000069365682810802132690000014955749463224928438_" gradientUnits="userSpaceOnUse" x1="105.0414" y1="294.4253" x2="139.972" y2="194.6233">
					<stop  offset="0" style="stop-color:#FF7736"/>
					<stop  offset="1" style="stop-color:#F7BB5B"/>
				</linearGradient>
				<path style="fill:url(#SVGID_00000069365682810802132690000014955749463224928438_);" d="M96.676,240.579
					c0,1.07,36.475,12.004,41.7,13.429c5.23,1.425,8.2-0.24,7.84-3.805c-0.15-1.485-0.853-2.052,0.087-9.122
					c1.255-9.475,2.83-19.97,2.955-20.77l0.005-0.05l5.685,10.62l13.25-12.76c-2.395-7.395-5.48-16.025-7.645-18.89
					c-4.04-5.345-28.16-12.235-28.16-12.235c-20.79-5.35-24.12-0.36-28.87,8.195C98.768,203.746,96.676,239.509,96.676,240.579z"/>
				
					<linearGradient id="SVGID_00000044866299284145429140000013899385372193103273_" gradientUnits="userSpaceOnUse" x1="-101.9554" y1="204.3967" x2="8.896" y2="317.3867" gradientTransform="matrix(-1 0 0 1 101.3124 0)">
					<stop  offset="0" style="stop-color:#FFD1C2"/>
					<stop  offset="1" style="stop-color:#F67793"/>
				</linearGradient>
				<path style="fill:url(#SVGID_00000044866299284145429140000013899385372193103273_);" d="M154.948,230.881l11.745,21.94
					c2.6,4.86,9.76,4.22,11.46-1.02l11.39-35.105l-10.14-3.38l-1.265-0.42l-0.33,0.895l-5.97,16.215c0,0-1.56-5.48-3.64-11.885
					L154.948,230.881z"/>
				
					<line style="fill:none;stroke:#CA4570;stroke-width:0.5;stroke-linecap:round;stroke-linejoin:round;stroke-miterlimit:10;" x1="171.838" y1="230.006" x2="174.215" y2="236.896"/>
				
					<linearGradient id="SVGID_00000152254043750703925270000007363643107949441681_" gradientUnits="userSpaceOnUse" x1="130.5246" y1="211.7508" x2="237.9305" y2="315.117">
					<stop  offset="0" style="stop-color:#FF7736"/>
					<stop  offset="1" style="stop-color:#F7BB5B"/>
				</linearGradient>
				<path style="fill:url(#SVGID_00000152254043750703925270000007363643107949441681_);" d="M146.303,241.081
					c1.255-9.475,2.83-19.97,2.955-20.77l0.005-0.05l-2.85-7.365C146.413,212.896,141.748,227.886,146.303,241.081z"/>
			</g>
			<g>
				<g>
					
						<linearGradient id="SVGID_00000039820176858502097840000001656450237680618681_" gradientUnits="userSpaceOnUse" x1="-117.759" y1="229.622" x2="-112.2342" y2="193.3843" gradientTransform="matrix(-0.9968 0.0794 0.0794 0.9968 6.9087 -32.1946)">
						<stop  offset="0" style="stop-color:#FFD1C2"/>
						<stop  offset="1" style="stop-color:#F67793"/>
					</linearGradient>
					<path style="fill:url(#SVGID_00000039820176858502097840000001656450237680618681_);" d="M126.548,186.29
						c0,0,12.821,3.092,12.807,2.913c-0.006-0.08,0.317-2.001,0.654-3.949c0.351-2.079,0.723-4.206,0.723-4.206
						s6.594,2.755,8.168,0.784c1.568-1.976,2.437-6.052,2.437-6.052s2.515-0.602,2.652-1.089c0.142-0.488-1.103-4.146-1.605-5.234
						c-0.508-1.093-0.041-6.492-0.854-10.721l-10.979-1.629l-10.397,1.901c0,0-1.997,8.561-1.624,13.241
						C128.902,176.928,126.548,186.29,126.548,186.29z"/>
					
						<linearGradient id="SVGID_00000057828120235573048030000004107450380047557039_" gradientUnits="userSpaceOnUse" x1="136.1548" y1="153.6548" x2="126.65" y2="262.7232">
						<stop  offset="0" style="stop-color:#FF7736"/>
						<stop  offset="1" style="stop-color:#F7BB5B"/>
					</linearGradient>
					<path style="fill:url(#SVGID_00000057828120235573048030000004107450380047557039_);" d="M142.612,191.688
						c0,0-0.535-5.017-1.604-5.525c-1.069-0.508-13.426-4.641-15.267-3.539c-1.842,1.103-2.376,6.865-2.495,7.043"/>
					
						<path style="fill:none;stroke:#CA4570;stroke-width:0.5;stroke-linecap:round;stroke-linejoin:round;stroke-miterlimit:10;" d="
						M137.479,168.287c1.164-0.718,0.131-3.97-1.875-3.337"/>
					<path style="fill:#33256D;" d="M147.131,169.16c-0.065,0.62,0.284,1.165,0.78,1.217c0.496,0.052,0.952-0.408,1.017-1.028
						c0.065-0.62-0.284-1.165-0.78-1.217C147.652,168.08,147.197,168.54,147.131,169.16z"/>
					<path style="fill:none;stroke:#33256D;stroke-width:0.5;stroke-linecap:round;stroke-miterlimit:10;" d="M150.244,166.634
						c0,0-1.069-1.822-3.76-0.445"/>
					
						<path style="fill:none;stroke:#CA4570;stroke-width:0.5;stroke-linecap:round;stroke-linejoin:round;stroke-miterlimit:10;" d="
						M147.22,177.985c0,0-1.659,0.49-3.092-1.229"/>
					<path style="fill:#CA4570;" d="M140.008,185.253c0.351-2.079,0.723-4.206,0.723-4.206c-3.331-1.209-4.406-2.919-4.406-2.919
						S136.452,183.249,140.008,185.253z"/>
				</g>
				<path style="fill:#261049;" d="M144.791,158.956l-5.125,7.235c-0.19-1.935-0.74-4.245-3.135-4.205
					c-4.285,0.075-3.59,7.29,0.24,8.295c-0.005,0.005-0.005,0.015-0.01,0.02c-6.815,16.58-0.65,23.83-7.06,33.09
					c-6.415,9.265,5.145,21.98-6.455,28.635c-11.605,6.65-31.325,4.515-28-18.06c3.325-22.575,9.98-26.525,9.625-35.84
					c-0.36-9.31,9.86-9.92,11.525-21.02c1.605-10.73,18.475-14.305,27.05-9.49c0.295,0.16,0.585,0.34,0.86,0.525
					C152.551,153.726,144.791,158.956,144.791,158.956z"/>
				<path style="fill:#261049;" d="M140.273,147.371c13.723-1.545,18.475,4.752,16.158,10.931
					c-2.317,6.178-14.139,2.555-14.139,2.555"/>
			</g>
		</g>
	</g>
</g>
</svg>
