<?xml version="1.0" encoding="utf-8"?>
<!-- Generator: Adobe Illustrator 27.5.0, SVG Export Plug-In . SVG Version: 6.00 Build 0)  -->
<svg version="1.1" xmlns="http://www.w3.org/2000/svg" xmlns:xlink="http://www.w3.org/1999/xlink" x="0px" y="0px"
	 viewBox="0 0 3710 3710" style="enable-background:new 0 0 3710 3710;" xml:space="preserve">
<g id="Background">
	<g>
		<g>
			<rect style="fill:#FFFFFF;" width="3710" height="3710"/>
		</g>
	</g>
</g>
<g id="Illustration">
	<g>
		<path style="fill:#F4F7FA;" d="M2361.424,514.718c-211.6-47.207-431.599-69.833-646.704-55.41
			c-190.651,12.783-406.759,47.673-560.179,172.648c-73.114,59.558-160.306,166.577-184.221,260.989
			c-0.003,0.011-125.886,496.951-377.648,603.44c-251.766,106.489-426.603,1923.907,1482.619,1746.425
			c0,0,1121.373-46.507,1188.893-1386.112c16.311-323.606,7.198-679.362-188.2-949.951
			c-149.734-207.354-359.526-299.551-600.6-364.062C2437.723,532.607,2399.711,523.26,2361.424,514.718z"/>
		<linearGradient id="SVGID_1_" gradientUnits="userSpaceOnUse" x1="717.6909" y1="1838.6747" x2="2855.4729" y2="1838.6747">
			<stop  offset="0" style="stop-color:#AB316D"/>
			<stop  offset="1" style="stop-color:#792D3D"/>
		</linearGradient>
		<path style="fill:url(#SVGID_1_);" d="M2775.644,1042.047L817.228,988.869h-0.005l-2.463-0.765
			c-31.719-0.873-60.48,13.106-77.938,35.866c-11.583,14.64-19.13,32.498-19.13,52.665v1.733v70.485v1450.281
			c0,51.693,43.608,92.022,96.465,90.083l1959.238-71.836c45.162-1.656,82.08-41.536,82.08-89.079V1194.453v-64.826v-1.594
			C2855.473,1080.49,2820.799,1043.289,2775.644,1042.047z"/>
		<g>
			<g>
				
					<linearGradient id="SVGID_00000003807801739000787890000003230576460467852186_" gradientUnits="userSpaceOnUse" x1="1154.5311" y1="-341.1508" x2="1954.4238" y2="3860.958" gradientTransform="matrix(-0.9622 0.2725 0.2725 0.9622 3479.6902 -547.083)">
					<stop  offset="0" style="stop-color:#FF9085"/>
					<stop  offset="1" style="stop-color:#FB6FBB"/>
				</linearGradient>
				<path style="fill:url(#SVGID_00000003807801739000787890000003230576460467852186_);" d="M2373.273,2418.728
					c-167.278,5.501-349.604-108.98-414.657-260.521c-118.274-275.561,186.067-405.448,227.954-647.705
					c34.064-197.017-70.825-392.98-29.323-589.825c36.508-173.156,182.568-326.599,359.862-355.459
					c152.882-24.885,323.439,55.56,400.787,193.186c57.625,102.532,86.41,265.999,65.412,382.597
					c-17.159,95.279-50.122,185.936-108.17,264.076c-47.226,63.573-115.06,115.531-143.461,191.458
					c-53.805,143.848,21.875,310.17,15.275,455.911c-4.612,101.85-60.655,216.738-140.308,280.38
					C2537.377,2388.168,2456.101,2416.003,2373.273,2418.728z"/>
				<g style="opacity:0.8;">
					<path style="fill:#FFFFFF;" d="M2356.071,2374.158c2.287-0.648,3.926-2.79,3.84-5.272
						c-0.07-2.016-6.712-204.778,18.208-477.782c22.986-251.816,78.29-616.595,211.229-924.365c1.156-2.682-0.077-5.794-2.758-6.951
						c-2.685-1.161-5.793,0.073-6.951,2.758c-133.512,309.099-189.014,675.124-212.067,927.753
						c-24.967,273.632-18.3,476.933-18.23,478.955c0.102,2.919,2.55,5.203,5.468,5.101
						C2355.246,2374.34,2355.67,2374.272,2356.071,2374.158z"/>
				</g>
			</g>
			<g>
				
					<linearGradient id="SVGID_00000090997594750246496910000004118315231661362573_" gradientUnits="userSpaceOnUse" x1="1036.9972" y1="958.759" x2="1456.0846" y2="3160.3682" gradientTransform="matrix(-0.9622 0.2725 0.2725 0.9622 3479.6902 -547.083)">
					<stop  offset="0" style="stop-color:#FFC444"/>
					<stop  offset="0.9964" style="stop-color:#F36F56"/>
				</linearGradient>
				<path style="fill:url(#SVGID_00000090997594750246496910000004118315231661362573_);" d="M2579.552,1523.016
					c235.208-368.909,534.33-318.744,608.237-188.745c73.189,128.738,270.119,851.715-688.066,910.384
					c-17.042,1.044-32.484-10.08-36.842-26.588C2438.929,2127.32,2383.669,1830.248,2579.552,1523.016z"/>
				<g style="opacity:0.8;">
					<g>
						<path style="fill:#FFFFFF;" d="M2492.554,2216.119c1.782-0.505,3.245-1.93,3.707-3.859
							c0.219-0.919,22.884-93.535,96.005-227.272c67.475-123.411,192.946-308.08,407.509-487.007
							c2.244-1.87,2.546-5.204,0.675-7.447c-1.87-2.244-5.203-2.547-7.447-0.675c-216.01,180.133-342.317,366.141-410.237,490.462
							c-73.688,134.877-96.567,228.549-96.79,229.479c-0.679,2.84,1.072,5.693,3.912,6.372
							C2490.8,2216.39,2491.713,2216.357,2492.554,2216.119z"/>
					</g>
					<g>
						<path style="fill:#FFFFFF;" d="M2677.638,1845.014c0.472-0.134,0.934-0.336,1.371-0.61c2.474-1.55,3.22-4.814,1.672-7.288
							c-0.927-1.48-91.387-149.682,20.054-294.751c1.78-2.315,1.344-5.635-0.972-7.414c-2.315-1.781-5.635-1.344-7.414,0.973
							c-60.617,78.908-63.021,158.113-54.363,210.663c9.369,56.86,32.746,94.572,33.737,96.15
							C2673,1844.772,2675.437,1845.637,2677.638,1845.014z"/>
					</g>
					<g>
						<path style="fill:#FFFFFF;" d="M2938.566,1735.262c33.887-9.597,71.738-28.528,110.707-63.033
							c2.185-1.936,2.389-5.278,0.453-7.465c-1.936-2.187-5.279-2.385-7.465-0.453c-138.428,122.581-262.82,43.915-264.059,43.106
							c-2.448-1.595-5.722-0.906-7.318,1.539c-1.595,2.446-0.907,5.724,1.539,7.318c1.345,0.878,33.512,21.536,83.95,26.545
							C2878.78,1745.045,2906.949,1744.216,2938.566,1735.262z"/>
					</g>
					<g>
						<path style="fill:#FFFFFF;" d="M2739.32,2040.837c33.887-9.597,71.738-28.528,110.707-63.033
							c2.186-1.936,2.389-5.278,0.453-7.465c-1.936-2.186-5.278-2.389-7.465-0.453c-138.427,122.581-262.82,43.913-264.059,43.106
							c-2.448-1.595-5.721-0.904-7.318,1.539c-1.595,2.446-0.907,5.724,1.539,7.318c1.345,0.878,33.512,21.536,83.95,26.545
							C2679.533,2050.619,2707.703,2049.791,2739.32,2040.837z"/>
					</g>
				</g>
			</g>
		</g>
		<g>
			<g>
				
					<linearGradient id="SVGID_00000034806639186881282940000000520065090118901162_" gradientUnits="userSpaceOnUse" x1="2030.9178" y1="914.1782" x2="1494.0758" y2="3171.8523">
					<stop  offset="0" style="stop-color:#FF9085"/>
					<stop  offset="1" style="stop-color:#FB6FBB"/>
				</linearGradient>
				<path style="fill:url(#SVGID_00000034806639186881282940000000520065090118901162_);" d="M2886.656,2528.302
					c0,47.543-36.344,87.423-81.506,89.079l-1957.88,71.836c-52.857,1.938-94.932-38.39-94.932-90.083V1078.368
					c0-51.693,42.147-92.416,95.004-90.962l1958.236,53.89c45.162,1.242,81.077,40.788,81.077,88.331V2528.302z"/>
				<path style="opacity:0.3;fill:#FFFFFF;" d="M2827.754,2480.177c0,44.915-34.205,82.526-76.961,83.998L904.93,2627.714
					c-49.587,1.707-90.225-36.308-90.225-84.908V1119.195c0-48.6,40.797-86.956,90.384-85.675l1845.46,47.671
					c42.755,1.104,77.205,38.407,77.205,83.322V2480.177z"/>
				
					<linearGradient id="SVGID_00000008119879317871350260000015842195705863799681_" gradientUnits="userSpaceOnUse" x1="752.3389" y1="1090.9441" x2="2886.656" y2="1090.9441">
					<stop  offset="0.0036" style="stop-color:#E38DDD"/>
					<stop  offset="1" style="stop-color:#9571F6"/>
				</linearGradient>
				<path style="fill:url(#SVGID_00000008119879317871350260000015842195705863799681_);" d="M2886.656,1128.033v66.42
					l-2134.317-45.6v-72.218c0-51.694,44.624-90.615,97.472-89.161l1957.716,53.876
					C2852.683,1042.592,2886.656,1080.49,2886.656,1128.033z"/>
				<g>
					<path style="fill:#FFFFFF;" d="M899.646,1072.692c0,19.948-16.539,35.74-36.969,35.27
						c-20.462-0.47-37.073-17.069-37.073-37.073c0-20.004,16.611-35.794,37.073-35.268
						C883.107,1036.147,899.646,1052.744,899.646,1072.692z"/>
					<path style="fill:#FFFFFF;" d="M1011.864,1075.424c0,19.864-16.399,35.59-36.656,35.124
						c-20.288-0.466-36.758-16.992-36.758-36.911s16.47-35.643,36.758-35.122C995.465,1039.036,1011.864,1055.56,1011.864,1075.424z
						"/>
					<path style="fill:#FFFFFF;" d="M1123.134,1078.133c0,19.78-16.261,35.441-36.347,34.98
						c-20.117-0.462-36.448-16.917-36.448-36.752c0-19.835,16.331-35.494,36.448-34.977
						C1106.873,1041.9,1123.134,1058.353,1123.134,1078.133z"/>
				</g>
			</g>
			<g style="opacity:0.9;">
				<polygon style="fill:#FFFFFF;" points="1421.045,2522.822 884.001,2539.423 884.001,1704.565 1421.045,1704.773 				"/>
				<polygon style="fill:#FFFFFF;" points="2789.642,1653.776 884.001,1648.907 884.001,1251.886 2789.642,1285.281 				"/>
				<polygon style="fill:#FFFFFF;" points="2789.642,2073.929 1469.553,2093.083 1469.553,1704.811 2789.642,1705.434 				"/>
				<polygon style="fill:#FFFFFF;" points="2789.642,2480.307 1469.553,2521.271 1469.553,2140.256 2789.642,2118.7 				"/>
			</g>
		</g>
		<g>
			
				<linearGradient id="SVGID_00000160893042430888757310000011233231266804299965_" gradientUnits="userSpaceOnUse" x1="3336.2925" y1="3017.7563" x2="3357.5535" y2="3288.3499" gradientTransform="matrix(1 -0.0024 0.0024 1 -794.8005 3.3687)">
				<stop  offset="0" style="stop-color:#444B8C"/>
				<stop  offset="0.9964" style="stop-color:#3E4177"/>
			</linearGradient>
			<path style="fill:url(#SVGID_00000160893042430888757310000011233231266804299965_);" d="M2590.523,3147.97
				c0,0-85.49,39.102-86.872,45.315c-1.383,6.213,55.033-2.214,78.074-1.374c23.041,0.841,41.977-6.015,39.869-15.768
				c-2.111-9.754-10.234-34.279-10.234-34.279L2590.523,3147.97z"/>
			
				<linearGradient id="SVGID_00000015350918233442361550000007222163472982232459_" gradientUnits="userSpaceOnUse" x1="3391.179" y1="3168.4048" x2="3387.3137" y2="2888.1558" gradientTransform="matrix(1 -0.0024 0.0024 1 -794.8005 3.3687)">
				<stop  offset="0" style="stop-color:#FFC444"/>
				<stop  offset="0.9964" style="stop-color:#F36F56"/>
			</linearGradient>
			<path style="fill:url(#SVGID_00000015350918233442361550000007222163472982232459_);" d="M2587.316,3116.41l5.298,38.52
				c0,0,13.56,4.79,22.648-0.934l3.782-42.271L2587.316,3116.41z"/>
			
				<linearGradient id="SVGID_00000036970364514173145040000018308558830486032519_" gradientUnits="userSpaceOnUse" x1="3738.0696" y1="2986.1934" x2="3759.3298" y2="3256.7773" gradientTransform="matrix(1 -0.0024 0.0024 1 -794.8005 3.3687)">
				<stop  offset="0" style="stop-color:#444B8C"/>
				<stop  offset="0.9964" style="stop-color:#3E4177"/>
			</linearGradient>
			<path style="fill:url(#SVGID_00000036970364514173145040000018308558830486032519_);" d="M2990.358,3116.367l9.993,15.956
				c2.795,4.463,3.638,9.841,2.315,14.938c-3.449,13.298-10.34,39.212-13.356,45.973c-4.105,9.209-59.476,14.806-59.476,14.806
				s-4.955-6.937,6.524-15.36c11.478-8.422,18.866-9.76,22.896-22.158c4.027-12.396,6.651-47.441,6.651-47.441L2990.358,3116.367z"
				/>
			
				<linearGradient id="SVGID_00000093877698817034735440000003360019586924379533_" gradientUnits="userSpaceOnUse" x1="3759.3896" y1="3163.3262" x2="3755.5242" y2="2883.0686" gradientTransform="matrix(1 -0.0024 0.0024 1 -794.8005 3.3687)">
				<stop  offset="0" style="stop-color:#FFC444"/>
				<stop  offset="0.9964" style="stop-color:#F36F56"/>
			</linearGradient>
			<path style="fill:url(#SVGID_00000093877698817034735440000003360019586924379533_);" d="M2948.826,3075.854
				c3.644,2.891,21.561,56.838,21.561,56.838s5.776,7.349,16.687-3.543c10.91-10.892,4.939-4.886,4.939-4.886l-2.179-53.097
				L2948.826,3075.854z"/>
			
				<linearGradient id="SVGID_00000064347562834646506430000013594726401171236495_" gradientUnits="userSpaceOnUse" x1="3324.2944" y1="2714.4055" x2="3531.5044" y2="2714.4055" gradientTransform="matrix(1 -0.0024 0.0024 1 -794.8005 3.3687)">
				<stop  offset="0" style="stop-color:#444B8C"/>
				<stop  offset="0.9964" style="stop-color:#3E4177"/>
			</linearGradient>
			<path style="fill:url(#SVGID_00000064347562834646506430000013594726401171236495_);" d="M2538.368,2342.38
				c-4.239,114.952-4.124,239.832,2.812,373.225c7.806,150.21,23.104,289.023,42.265,414.845c7.011,0.207,14.378,0.226,22.073-0.009
				c5.196-0.156,10.23-0.422,15.096-0.77c9.723-26.123,21.208-60.472,31.469-101.491c10.785-43.133,17.263-81.815,21.855-118.802
				c16.168-130.228-3.174-141.539,9.97-238.052c11.64-85.477,28.477-88.854,47.961-210.22
				c21.139-131.686,5.12-151.396-2.666-158.511C2696.063,2272.303,2618.441,2293.166,2538.368,2342.38z"/>
			
				<linearGradient id="SVGID_00000145742972617173118050000012053878673968191107_" gradientUnits="userSpaceOnUse" x1="3324.2939" y1="2714.4143" x2="3531.5032" y2="2714.4143" gradientTransform="matrix(1 -0.0024 0.0024 1 -794.8005 3.3687)">
				<stop  offset="0" style="stop-color:#444B8C"/>
				<stop  offset="0.9964" style="stop-color:#3E4177"/>
			</linearGradient>
			<path style="opacity:0.3;fill:url(#SVGID_00000145742972617173118050000012053878673968191107_);" d="M2729.202,2302.595
				c-31.607-28.893-103.691-11.182-179.763,33.212c87.864,94.474,97.566,155.873,87.155,195.752
				c-11.765,45.072-47.833,58.131-47.578,107.384c0.315,60.525,54.98,76.428,53.972,140.48
				c-0.666,42.354-24.671,41.971-30.214,94.295c-6.559,61.909,24.852,83.161,14.805,128.979
				c-4.322,19.711-16.733,45.484-52.191,72.087c2.607,18.799,5.277,37.408,8.059,55.666c7.009,0.205,14.376,0.226,22.071-0.01
				c5.196-0.156,10.232-0.421,15.095-0.769c9.724-26.123,21.21-60.47,31.47-101.491c10.785-43.134,17.263-81.815,21.855-118.803
				c16.167-130.227-3.174-141.539,9.97-238.052c11.64-85.477,28.477-88.856,47.96-210.221
				C2753.006,2329.418,2736.988,2309.708,2729.202,2302.595z"/>
			
				<linearGradient id="SVGID_00000026848845240689420450000009017765294169623448_" gradientUnits="userSpaceOnUse" x1="3381.8201" y1="2693.9797" x2="3798.9575" y2="2693.9797" gradientTransform="matrix(1 -0.0024 0.0024 1 -794.8005 3.3687)">
				<stop  offset="0" style="stop-color:#444B8C"/>
				<stop  offset="0.9964" style="stop-color:#3E4177"/>
			</linearGradient>
			<path style="fill:url(#SVGID_00000026848845240689420450000009017765294169623448_);" d="M2592.648,2340.319
				c75.723,110.23,157.444,247.447,230.626,411.749c55.304,124.164,95.479,240.77,125.018,344.708
				c3.968,1.825,13.326,5.463,25.27,3.855c16.29-2.194,26.031-12.619,28.577-15.529c11.741-74.588,10.276-137.73,6.121-183.294
				c-2.661-29.172-7.362-77.753-26.105-137.695c-20.994-67.143-35.324-70.885-62.674-141.909
				c-28.386-73.72-21.597-92.149-48.833-184.425c-11.189-37.908-29.902-94.313-60.718-161.763
				C2737.502,2297.449,2665.074,2318.885,2592.648,2340.319z"/>
			
				<linearGradient id="SVGID_00000031185455219833041620000012516345064886795944_" gradientUnits="userSpaceOnUse" x1="2927.5476" y1="1737.9841" x2="2457.5535" y2="2509.6167">
				<stop  offset="0" style="stop-color:#AA80F9"/>
				<stop  offset="0.9964" style="stop-color:#6165D7"/>
			</linearGradient>
			<path style="fill:url(#SVGID_00000031185455219833041620000012516345064886795944_);" d="M3105.091,1937.391
				c-0.847,23.549-14.349,36.875-33.772,62.221c-1.622,2.115-3.243,4.265-4.865,6.451c-22.422,30.106-44.875,65.958-65.146,104.948
				c-30.388,58.484-55.912,124.125-69.202,188.215c-0.177,0.74-0.353,1.516-0.494,2.292c-2.327,11.457-4.265,22.844-5.746,34.125
				c-6.839,51.857-4.794,103.22-43.501,145.841c-7.44,8.178-30.917,34.054-54.079,29.225c-27.567-5.746-25.099-48.825-61.727-66.804
				c-12.022-5.923-16.182-3.173-68.85-2.397c-32.926,0.458-66.204,0.846-101.915-3.208c-33.809-3.807-82.527-9.342-87.64-30.67
				c-2.009-8.496,3.773-16.005,8.462-23.197c20.657-31.763,17.768-54.078,28.836-101.775
				c20.694-89.084,67.122-167.909,66.522-177.146c0-0.106-0.034-0.212-0.071-0.282c0-0.106-0.036-0.177-0.071-0.247
				c-0.034-0.071-0.071-0.106-0.105-0.176c-0.036-0.071-0.107-0.106-0.177-0.141c-2.396-1.234-12.373,14.63-21.327,27.744
				c-0.706,1.022-1.41,2.045-2.186,3.067c-34.476,47.556-79.918,45.547-135.37,34.512c-17.838-3.525-36.733-8.002-56.616-12.056
				c-35.499-7.262-76.568-62.362-77.274-89.189c-0.776-28.097,52.244-13.149,101.775-45.37
				c144.113-93.773,75.652-140.8,208.802-201.717c33.031-15.123,65.429-20.764,111.962-28.907
				c19.177-3.384,37.052-5.711,53.797-7.262c41.985-3.983,86.721-4.724,111.716-2.327c16.427,1.587,33.454,5.359,50.306,10.893
				C3033.845,1819.188,3107.102,1880.704,3105.091,1937.391z"/>
			
				<linearGradient id="SVGID_00000166633924368152218750000012278949830310620051_" gradientUnits="userSpaceOnUse" x1="2452.667" y1="2110.0867" x2="2633.6543" y2="2110.0867">
				<stop  offset="0" style="stop-color:#AA80F9"/>
				<stop  offset="0.9964" style="stop-color:#6165D7"/>
			</linearGradient>
			<path style="opacity:0.3;fill:url(#SVGID_00000166633924368152218750000012278949830310620051_);" d="M2633.654,2071.5
				c-7.226,11.352-14.488,22.668-21.68,34.019c-0.034,0-0.034,0.036-0.034,0.036c0-0.107-0.036-0.212-0.036-0.318
				c-0.036-0.069-0.036-0.176-0.071-0.246s-0.071-0.105-0.105-0.176c-0.036-0.071-0.107-0.107-0.177-0.141
				c-2.396-1.234-12.373,14.63-21.327,27.744c-0.706,1.021-1.41,2.043-2.186,3.066c-34.477,47.557-79.918,45.546-135.37,34.513
				c26.262-5.5,43.255-10.751,62.715-26.439c49.53-39.906,56.967-100.646,85.77-99.906
				C2614.759,2044.004,2625.793,2057.893,2633.654,2071.5z"/>
			
				<linearGradient id="SVGID_00000146494207959025519270000011200937363117062034_" gradientUnits="userSpaceOnUse" x1="6359.188" y1="523.3315" x2="6434.6611" y2="523.3315" gradientTransform="matrix(0.6638 0.748 -0.748 0.6638 -1469.6499 -3004.134)">
				<stop  offset="0" style="stop-color:#AB316D"/>
				<stop  offset="1" style="stop-color:#792D3D"/>
			</linearGradient>
			<path style="fill:url(#SVGID_00000146494207959025519270000011200937363117062034_);" d="M2427.876,2140.717
				c0,0-31.437-13.268-48.204-27.52c-16.767-14.254-32.929-6.244-33.698,2.527c-0.769,8.768,27.486,30.056,40.063,34.4
				C2398.612,2154.467,2427.876,2140.717,2427.876,2140.717z"/>
			<g>
				<g>
					
						<linearGradient id="SVGID_00000029736646195545095280000009164034739749928609_" gradientUnits="userSpaceOnUse" x1="5152.6597" y1="1996.9335" x2="5850.6147" y2="1996.9335" gradientTransform="matrix(-0.9606 0.2778 0.2778 0.9606 7362.8628 -1205.6265)">
						<stop  offset="0.0036" style="stop-color:#26264F"/>
						<stop  offset="1" style="stop-color:#444B8C"/>
					</linearGradient>
					<path style="fill:url(#SVGID_00000029736646195545095280000009164034739749928609_);" d="M3040.577,2475.142l7.051-11.892
						c11.243-18.961,4.414-43.146-15.247-53.969l-770.869-424.347l-43.011,79.786l766.39,424.983
						C3004.435,2500.542,3029.369,2494.044,3040.577,2475.142z"/>
					
						<linearGradient id="SVGID_00000058549638734579816930000000072289258255902130_" gradientUnits="userSpaceOnUse" x1="5611.75" y1="1363.6321" x2="6554.8042" y2="1363.6321" gradientTransform="matrix(-0.9606 0.2778 0.2778 0.9606 7362.8628 -1205.6265)">
						<stop  offset="0.0036" style="stop-color:#26264F"/>
						<stop  offset="1" style="stop-color:#444B8C"/>
					</linearGradient>
					<path style="fill:url(#SVGID_00000058549638734579816930000000072289258255902130_);" d="M1669.102,2221.606
						c223.516,128.258,509.215,46.441,637.238-189.775c131.101-241.895,44.089-546.11-193.256-672.056
						c-233.066-123.677-516.037-24.073-633.313,215.374C1365.164,1809.15,1449.449,2095.565,1669.102,2221.606z M1703.295,2155.233
						c-185.59-105.868-256.558-347.544-159.27-544.583c99.191-200.893,337.025-283.33,532.097-179.125
						c198.064,105.803,270.956,360.03,162.039,562.637C2131.39,2192.776,1891.632,2262.668,1703.295,2155.233z"/>
					
						<linearGradient id="SVGID_00000135678223075991558220000004582500260739845535_" gradientUnits="userSpaceOnUse" x1="5152.6602" y1="1996.933" x2="5850.6147" y2="1996.933" gradientTransform="matrix(-0.9606 0.2778 0.2778 0.9606 7362.8628 -1205.6265)">
						<stop  offset="0.0036" style="stop-color:#26264F"/>
						<stop  offset="1" style="stop-color:#444B8C"/>
					</linearGradient>
					<path style="opacity:0.3;fill:url(#SVGID_00000135678223075991558220000004582500260739845535_);" d="M2261.511,1984.935
						l98.29,54.106c0.153,35.014,10.124,57.155,21.764,71.813c43.79,55.146,124.726,22.099,212.697,94.472
						c44.143,36.317,31.253,50.8,73.937,78.641c70.565,46.031,114.448,12.089,176.739,53.579
						c63.007,41.965,57.284,102.781,96.747,108.864c16.883,2.603,40.924-5.016,74.574-46.004l16.122,8.875
						c19.661,10.823,26.49,35.005,15.247,53.969l-7.051,11.891c-11.208,18.901-36.142,25.399-55.686,14.561l-766.39-424.982
						L2261.511,1984.935z"/>
					<path style="opacity:0.1;fill:#FFFFFF;" d="M1676.238,2185.684c194.789,111.236,442.945,39.13,553.582-166.37
						c112.94-209.777,37.471-473.112-167.742-582.601c-202.003-107.776-448.098-22.235-550.617,185.705
						C1410.976,1826.234,1484.385,2076.124,1676.238,2185.684z"/>
					
						<linearGradient id="SVGID_00000159444531015385584370000005245215730015323022_" gradientUnits="userSpaceOnUse" x1="6527.1621" y1="4094.6221" x2="6060.6284" y2="3572.2642" gradientTransform="matrix(-0.9939 -0.1107 -0.1107 0.9939 8437.6348 -1193.75)">
						<stop  offset="0.0036" style="stop-color:#26264F"/>
						<stop  offset="1" style="stop-color:#444B8C"/>
					</linearGradient>
					<path style="fill:url(#SVGID_00000159444531015385584370000005245215730015323022_);" d="M1648.316,2239.883
						c223.517,128.258,509.216,46.44,637.238-189.775c131.101-241.895,44.089-546.11-193.256-672.056
						c-233.067-123.676-516.037-24.073-633.313,215.374C1344.378,1827.427,1428.663,2113.841,1648.316,2239.883z M1682.509,2173.509
						c-185.59-105.869-256.558-347.544-159.27-544.583c99.191-200.893,337.025-283.329,532.097-179.125
						c198.064,105.803,270.956,360.03,162.039,562.636C2110.604,2211.052,1870.846,2280.944,1682.509,2173.509z"/>
					
						<linearGradient id="SVGID_00000065794262718813650850000016959194843555733169_" gradientUnits="userSpaceOnUse" x1="5664.9487" y1="1375.6495" x2="6554.5137" y2="1375.6495" gradientTransform="matrix(-0.9606 0.2778 0.2778 0.9606 7362.8628 -1205.6265)">
						<stop  offset="0.0036" style="stop-color:#26264F"/>
						<stop  offset="1" style="stop-color:#444B8C"/>
					</linearGradient>
					<path style="fill:url(#SVGID_00000065794262718813650850000016959194843555733169_);" d="M1660.384,2216.46
						c211.101,120.882,480.545,43.231,601.018-179.697c123.202-227.976,41.191-514.456-182.204-633.28
						c-219.6-116.805-486.616-23.326-597.526,202.477C1373.146,1826.911,1452.73,2097.552,1660.384,2216.46z M1682.509,2173.509
						c-185.59-105.869-256.558-347.544-159.27-544.583c99.191-200.893,337.025-283.329,532.097-179.125
						c198.064,105.803,270.956,360.03,162.039,562.636C2110.604,2211.052,1870.846,2280.944,1682.509,2173.509z"/>
				</g>
			</g>
			
				<linearGradient id="SVGID_00000168077775015895649790000013912245268408457890_" gradientUnits="userSpaceOnUse" x1="3144.9023" y1="1867.8394" x2="2667.0435" y2="2652.384">
				<stop  offset="0" style="stop-color:#AA80F9"/>
				<stop  offset="0.9964" style="stop-color:#6165D7"/>
			</linearGradient>
			<path style="fill:url(#SVGID_00000168077775015895649790000013912245268408457890_);" d="M3156.841,2337.51
				c-58.06,53.69-140.13,52.209-176.581,48.966c-4.792-11.986-9.588-23.937-14.418-35.887c0.882-0.635,1.763-1.304,2.61-1.974
				c59.716-44.948,93.031-110.906,79.67-167.381c-6.837-29.013-25.242-52.174-46.813-70.223
				c-39.201-32.856-88.91-48.684-98.498-51.716c-0.775-0.247-1.551-0.493-2.291-0.705c-43.961-13.537-59.331-4.583-74.878-21.187
				c-48.225-51.54,12.621-231.681,100.507-244.196c9.941-1.41,20.234-1.128,30.987,0.846c26.051,4.794,54.749,19.601,87.499,44.63
				c37.294,28.555,88.693,82.21,127.261,166.111C3205.527,2077.979,3253.435,2248.109,3156.841,2337.51z"/>
			
				<linearGradient id="SVGID_00000078727684627251845820000010196581797473936316_" gradientUnits="userSpaceOnUse" x1="2511.4702" y1="2249.2393" x2="3161.0979" y2="2249.2393">
				<stop  offset="0" style="stop-color:#AA80F9"/>
				<stop  offset="0.9964" style="stop-color:#6165D7"/>
			</linearGradient>
			<path style="opacity:0.3;fill:url(#SVGID_00000078727684627251845820000010196581797473936316_);" d="M3068.85,2311.494
				c-30.385,15.582-66.099,28.696-100.398,37.121c59.716-44.948,93.031-110.906,79.67-167.381
				c-6.837-29.013-25.242-52.174-46.813-70.223c-30.388,58.484-55.912,124.125-69.202,188.215c-0.177,0.74-0.353,1.516-0.494,2.292
				c-2.327,10.364-4.231,21.152-5.746,32.468c-6.839,51.822-4.794,103.185-43.501,145.805c-7.44,8.179-30.917,34.054-54.079,29.225
				c-27.567-5.746-25.099-48.825-61.727-66.804c-12.022-5.922-16.182-3.173-68.85-2.397c-32.926,0.458-66.204,0.846-101.915-3.208
				c-30.072-3.384-71.845-8.179-84.324-24.183c54.253-1.481,90.494-16.534,114.64-31.798c41.281-26.052,47.381-52.491,93.597-70.365
				c60.035-23.197,88.908,6.275,118.66-17.521c35.43-28.343,4.055-77.662,30.566-163.291c2.291-7.368,12.161-39.307,31.586-70.858
				c18.861-30.776,46.781-61.199,85.524-68.144c25.803-4.618,57.461,0.987,80.41,15.617c9.553,6.099,17.592,13.749,23.055,22.844
				c14.559,24.254-14.029,57.638,3.667,84.43c17.695,26.757,29.435,26.158,51.998,48.473
				C3196.607,2212.68,3110.593,2290.095,3068.85,2311.494z"/>
			
				<linearGradient id="SVGID_00000027587699271531355000000015838823697964829855_" gradientUnits="userSpaceOnUse" x1="-5542.2231" y1="661.2404" x2="-5525.9614" y2="569.1927" gradientTransform="matrix(-0.8553 -0.5182 -0.5182 0.8553 -1479.6936 -1003.974)">
				<stop  offset="0" style="stop-color:#FFC444"/>
				<stop  offset="0.9964" style="stop-color:#F36F56"/>
			</linearGradient>
			<path style="fill:url(#SVGID_00000027587699271531355000000015838823697964829855_);" d="M2976.254,2378.104l-7.344-20.711
				c0,0-9.106,0.381-19.982-7.418c-5.927-4.25-16.444-5.516-19.501-4.667c-3.056,0.847-14.6,0.343-1.442,6.621
				c13.157,6.276,13.054,10.94,7.57,16.093c-5.484,5.152-26.354,16.235-33.865,16.768c-7.512,0.534,6.07,12.153,13.645,13.637
				c7.576,1.482,19.999,3.359,35.367-5.69C2956.309,2389.436,2976.254,2378.104,2976.254,2378.104z"/>
			<g>
				
					<linearGradient id="SVGID_00000136390277737955445060000007690869995620779192_" gradientUnits="userSpaceOnUse" x1="3690.3271" y1="1655.0436" x2="3626.0457" y2="2063.9814" gradientTransform="matrix(-1 0 0 1 6503.4365 0)">
					<stop  offset="0" style="stop-color:#FFC444"/>
					<stop  offset="0.9964" style="stop-color:#F36F56"/>
				</linearGradient>
				<path style="fill:url(#SVGID_00000136390277737955445060000007690869995620779192_);" d="M2838.681,1705.511
					c-0.196,23.295,2.404,41.769,4.862,54.421c2.816,14.496,4.846,18.241,7.436,21.28c3.898,4.574,9.807,8.411,43.187,16.689
					c18.165,4.503,20.502,4.381,20.904,6.183c1.956,8.794-47.576,38.765-98.75,31.541c-31.319-4.42-59.815-22.288-58.066-31.672
					c1.76-9.443,33.045-4.376,42.369-21.46c6.487-11.885-0.784-28.757-9.379-42.729
					C2799.569,1724.167,2830.357,1721.107,2838.681,1705.511z"/>
				<g>
					
						<linearGradient id="SVGID_00000129917202421374204560000008944928378776435903_" gradientUnits="userSpaceOnUse" x1="3641.05" y1="1713.8716" x2="3728.5159" y2="1713.8716" gradientTransform="matrix(-1 0 0 1 6503.4365 0)">
						<stop  offset="0" style="stop-color:#40447E"/>
						<stop  offset="0.9964" style="stop-color:#3C3B6B"/>
					</linearGradient>
					<path style="fill:url(#SVGID_00000129917202421374204560000008944928378776435903_);" d="M2780.552,1714.721
						c-7.391-9.819-7.847-26.96,0.669-37.795c7.329-9.324,18.863-10.653,25.767-11.452c20.009-2.31,45.255,6.043,54.036,24.458
						c5.203,10.913-6.052,33.589-7.814,37.666c-1.997,4.609-5.615,6.191-8.962,9.676c-4.639,4.833-11.903,12.519-23.758,25.372
						c-0.921-3.793-2.322-8.488-4.547-13.577c-0.857-1.959-4.297-9.61-9.502-15.954
						C2796.014,1720.398,2787.559,1724.026,2780.552,1714.721z"/>
					
						<linearGradient id="SVGID_00000023267633997170686140000014384526044671158660_" gradientUnits="userSpaceOnUse" x1="3688.0505" y1="1710.3248" x2="3689.4182" y2="1821.1071" gradientTransform="matrix(-1 0 0 1 6503.4365 0)">
						<stop  offset="0" style="stop-color:#FFC444"/>
						<stop  offset="0.9964" style="stop-color:#F36F56"/>
					</linearGradient>
					<path style="fill:url(#SVGID_00000023267633997170686140000014384526044671158660_);" d="M2837.4,1751.837
						c0,0-13.153,21.579-39.342,19.876c-23.448-1.527-26.883-54.11-11.906-65.268c4.997-3.722,15.003-5.268,23.14-2.988
						c4.806,1.347,6.434,3.344,14.328,5.391c7.284,1.89,9.34,1.083,11.538,2.932c2.749,2.315,4.764,7.988,0.172,23.36
						c4.474-4.529,9.844-6.268,13.649-4.471c0.606,0.288,2.216,1.382,3.123,3.042
						C2855.38,1739.715,2849.895,1747.385,2837.4,1751.837z"/>
					
						<linearGradient id="SVGID_00000123404766415092395800000003079330905785499532_" gradientUnits="userSpaceOnUse" x1="3651.5186" y1="1742.9103" x2="3727.073" y2="1742.9103" gradientTransform="matrix(-1 0 0 1 6503.4365 0)">
						<stop  offset="0" style="stop-color:#40447E"/>
						<stop  offset="0.9964" style="stop-color:#3C3B6B"/>
					</linearGradient>
					<path style="fill:url(#SVGID_00000123404766415092395800000003079330905785499532_);" d="M2836.219,1708.633
						c-1.131,0.843,2.326,5.062,2.583,11.033c0.502,11.591-11.23,25.504-23.199,26.684c-7.076,0.697-9.021-3.568-20.719-4.804
						c-7.242-0.765-13.271,0.156-17.063,0.985c-3.676,12.713-0.217,25.387,8.28,31.267c9.148,6.331,20.833,2.49,25.719,0.884
						c3.269-1.075,13.741-4.495,19.215-14.099c5.703-10.008,0.106-16.041,6.649-22.81c3.3-3.415,7.635-4.893,11.855-11.503
						c1.146-1.797,1.911-3.385,2.379-4.453C2845.868,1715.405,2837.857,1707.412,2836.219,1708.633z"/>
					
						<linearGradient id="SVGID_00000150816691666175966190000016652886378736742807_" gradientUnits="userSpaceOnUse" x1="3702.333" y1="1750.1431" x2="3719.0168" y2="1750.1431" gradientTransform="matrix(-1 0 0 1 6503.4365 0)">
						<stop  offset="0" style="stop-color:#FFC444"/>
						<stop  offset="0.9964" style="stop-color:#F36F56"/>
					</linearGradient>
					<path style="fill:url(#SVGID_00000150816691666175966190000016652886378736742807_);" d="M2786.333,1747.244
						c0,0,5.064,2.646,13.815,2.154c0.426-0.025,0.895,0.101,0.95,0.321c0.201,0.83-5.413,4.552-10.586,3.099
						c-3.673-1.034-6.531-4.51-6.037-5.396C2784.686,1747.049,2785.516,1747.098,2786.333,1747.244z"/>
				</g>
			</g>
			
				<linearGradient id="SVGID_00000021120962804414740870000008283675706545290684_" gradientUnits="userSpaceOnUse" x1="2334.7275" y1="2163.781" x2="2345.3506" y2="2103.6497">
				<stop  offset="0" style="stop-color:#FFC444"/>
				<stop  offset="0.9964" style="stop-color:#F36F56"/>
			</linearGradient>
			<path style="fill:url(#SVGID_00000021120962804414740870000008283675706545290684_);" d="M2355.951,2146.548
				c0,0-43.625-8.604-40.541-23.586c3.085-14.982,3.525-26.307,14.542-17.56C2340.969,2114.148,2384.594,2140.168,2355.951,2146.548
				z"/>
		</g>
		<g>
			
				<linearGradient id="SVGID_00000083058832577474665940000010696743755480859035_" gradientUnits="userSpaceOnUse" x1="-190.3863" y1="3048.5327" x2="-171.6952" y2="3384.9758" gradientTransform="matrix(-1 0 0 1 832.1961 0)">
				<stop  offset="0" style="stop-color:#444B8C"/>
				<stop  offset="0.9964" style="stop-color:#26264F"/>
			</linearGradient>
			<path style="fill:url(#SVGID_00000083058832577474665940000010696743755480859035_);" d="M975.762,3168.167
				c0,0-2.338,18.598-0.769,24.829c1.57,6.231,55.644,10.733,73.999,8.568c18.354-2.167-10.933-20.915-22.628-24.434
				C1014.67,3173.61,975.762,3168.167,975.762,3168.167z"/>
			
				<linearGradient id="SVGID_00000072988853091347557190000018367268580113025461_" gradientUnits="userSpaceOnUse" x1="-158.5836" y1="3187.6553" x2="-147.4417" y2="2935.853" gradientTransform="matrix(-1 0 0 1 832.1961 0)">
				<stop  offset="0" style="stop-color:#FFC444"/>
				<stop  offset="0.9964" style="stop-color:#F36F56"/>
			</linearGradient>
			<path style="fill:url(#SVGID_00000072988853091347557190000018367268580113025461_);" d="M1002.982,3137.141l-5.7,37.313
				c0,0-14.534,6.533-21.52,0.077l-0.769-39.058L1002.982,3137.141z"/>
			
				<linearGradient id="SVGID_00000130608666618493502240000013233925967246191020_" gradientUnits="userSpaceOnUse" x1="147.9174" y1="3029.7419" x2="166.6079" y2="3366.1748" gradientTransform="matrix(-1 0 0 1 832.1961 0)">
				<stop  offset="0" style="stop-color:#444B8C"/>
				<stop  offset="0.9964" style="stop-color:#26264F"/>
			</linearGradient>
			<path style="fill:url(#SVGID_00000130608666618493502240000013233925967246191020_);" d="M698.147,3135.474
				c0,0,11.474,8.514,8.415,18.711c-3.058,10.196-29.831,51.053-48.911,62.649c-19.079,11.597-13.099-12.563-7.546-27.61
				c5.552-15.047,19.74-48.194,25.279-53.75C680.921,3129.919,698.147,3135.474,698.147,3135.474z"/>
			
				<linearGradient id="SVGID_00000065755242299095432730000000680137243498724753_" gradientUnits="userSpaceOnUse" x1="138.475" y1="3200.7996" x2="149.6169" y2="2948.9978" gradientTransform="matrix(-1 0 0 1 832.1961 0)">
				<stop  offset="0" style="stop-color:#FFC444"/>
				<stop  offset="0.9964" style="stop-color:#F36F56"/>
			</linearGradient>
			<path style="fill:url(#SVGID_00000065755242299095432730000000680137243498724753_);" d="M718.786,3094.48
				c-5.546,15.46-10.881,28.171-15.054,37.546c-9.232,20.74-14.277,28.523-19.992,35.271c-4.983,5.876-16.781,18.417-19.952,16.33
				c-3.221-2.117,5.411-17.364,22.047-62.016c2.416-6.481,10.046-27.13,10.046-27.13l0,0H718.786z"/>
			
				<linearGradient id="SVGID_00000051350831799533490680000006509127539884639105_" gradientUnits="userSpaceOnUse" x1="-193.5864" y1="2796.7148" x2="20.3334" y2="2763.2898" gradientTransform="matrix(-1 0 0 1 832.1961 0)">
				<stop  offset="0" style="stop-color:#444B8C"/>
				<stop  offset="0.9964" style="stop-color:#26264F"/>
			</linearGradient>
			<path style="fill:url(#SVGID_00000051350831799533490680000006509127539884639105_);" d="M1116.224,2448.48
				c3.957,38.859,7.754,99.172,2.077,172.373c-7.399,95.37-26.469,155.719-50.384,257.406
				c-14.616,62.144-34.309,153.608-52.131,267.999c-4.135,2.366-16.301,8.59-31.964,6.266c-8.77-1.302-15.329-4.789-19.202-7.294
				c-46.759-142.882-32.949-231.427-10.383-286.592c9.618-23.516,21.28-42.067,27.514-78.214
				c8.248-47.822-1.95-74.556-16.494-185.332c-10.367-78.955-8.573-91.16-1.675-103
				C991.153,2444.749,1075.483,2445.675,1116.224,2448.48z"/>
			
				<linearGradient id="SVGID_00000057123337269342189860000004829099296178026128_" gradientUnits="userSpaceOnUse" x1="-176.0807" y1="2571.8667" x2="438.938" y2="3143.4333" gradientTransform="matrix(-1 0 0 1 832.1961 0)">
				<stop  offset="0" style="stop-color:#444B8C"/>
				<stop  offset="0.9964" style="stop-color:#26264F"/>
			</linearGradient>
			<path style="fill:url(#SVGID_00000057123337269342189860000004829099296178026128_);" d="M955.275,2465.096
				c-28.645,147.931-56.759,225.628-78.034,269.574c-5.247,10.837-22.753,45.802-39.302,95.931
				c-14.651,44.372-20.757,77.014-23.883,91.379c-9.875,45.345-34.284,111.554-99.958,198.394
				c-0.819,0.481-12.017,6.815-22.723,1.169c-5.418-2.86-8.119-7.417-9.192-9.54c8.585-83.026,18.442-152.793,26.997-206.639
				c1.796-11.293,9.701-60.703,22.098-125.981c4.852-25.548,11.961-62.978,20.476-101.424
				c10.603-47.877,26.861-113.01,51.919-191.057C854.207,2479.631,904.742,2472.367,955.275,2465.096z"/>
			
				<linearGradient id="SVGID_00000091733338277255626920000002392273036161802679_" gradientUnits="userSpaceOnUse" x1="149.5228" y1="2212.8086" x2="18.6876" y2="2027.4586" gradientTransform="matrix(-1 0 0 1 832.1961 0)">
				<stop  offset="0" style="stop-color:#444B8C"/>
				<stop  offset="0.9964" style="stop-color:#26264F"/>
			</linearGradient>
			<path style="fill:url(#SVGID_00000091733338277255626920000002392273036161802679_);" d="M979.678,1879.968
				c16.245-15.016,47.324-32.326,62.912-72.568c4.693-12.113,21.316-55.032-3.206-87.862c-14.554-19.488-41.59-32.721-65.418-28.036
				c-20.363,4.004-23.547,18.185-58.148,46.727c-13.469,11.11-35.117,28.967-59.211,38.896c-41.279,17.012-66.08,1.004-107.522,2.83
				c-50.912,2.245-110.055,30.658-138.55,71.977c-50.576,73.333,22.688,147.725-32.709,233.635
				c-18.153,28.146-27.098,21.836-70.091,76.321c-43.05,54.557-64.575,81.832-60.745,115.26
				c5.316,46.392,55.285,90.709,102.34,93.72c45.966,2.946,75.186-33.22,98.586-17.4c16.656,11.256,7.132,33.153,24.823,59.467
				c22.803,33.926,67.623,40.686,74.862,41.775c67.187,10.135,157.778-68.649,196.253-161.987
				C1013.234,2124.409,891.359,1961.606,979.678,1879.968z"/>
			
				<linearGradient id="SVGID_00000180363185346912591150000016670039903246818493_" gradientUnits="userSpaceOnUse" x1="802.6121" y1="2627.3347" x2="976.5254" y2="1793.0182">
				<stop  offset="0" style="stop-color:#FFC444"/>
				<stop  offset="0.9964" style="stop-color:#F36F56"/>
			</linearGradient>
			<path style="fill:url(#SVGID_00000180363185346912591150000016670039903246818493_);" d="M1255.367,1926.695
				c0.456-46.982-106.268-84.528-155.101-96.624c-75.962-18.819-136.791-7.003-151.565-3.876
				c-94.734,20.073-153.734,76.918-175.94,100.811c18.184,11.84,68.363,47.968,93.215,116.507
				c7.733,21.325,30.575,94.227-2.093,162.51c-18.823,39.346-52.122,68.885-77.411,91.324
				c-37.932,33.651-57.577,38.823-70.294,68.97c-13.849,32.831,0.106,48.838-17.092,71.314
				c-18.47,24.136-40.11,12.917-71.417,37.327c-32.07,25-20.657,45.577-49.842,73.206c-42.407,40.143-98.624,27.105-101.242,45.169
				c-2.253,15.538,37.702,36.62,71.648,45.169c67.225,16.933,125.86-11.487,143.296-20.248c48.275-24.252,39.936-39.95,76.741-58.44
				c61.63-30.957,103.747,3.493,244.118,7.04c76.014,1.923,114.45,2.354,135.508-23.364c19.23-23.492,9.121-49.259-2.419-160.308
				c-5.493-52.854-7.474-106.018-11.522-158.999c-11.45-149.874-11.8-163.063-1.635-183.787
				C1168.734,1966.169,1254.957,1968.859,1255.367,1926.695z"/>
			<g style="opacity:0.3;">
				
					<linearGradient id="SVGID_00000181769130739806161690000000409016051818045878_" gradientUnits="userSpaceOnUse" x1="689.0709" y1="2603.667" x2="862.9847" y2="1769.348">
					<stop  offset="0" style="stop-color:#FFC444"/>
					<stop  offset="0.9964" style="stop-color:#F36F56"/>
				</linearGradient>
				<path style="fill:url(#SVGID_00000181769130739806161690000000409016051818045878_);" d="M577.826,2548.164
					c29.185-27.629,17.772-48.206,49.842-73.206c31.307-24.41,52.947-13.191,71.417-37.327
					c17.198-22.476,3.243-38.483,17.092-71.314c12.717-30.147,32.361-35.319,70.294-68.97
					c25.289-22.439,58.588-51.978,77.411-91.324c32.669-68.284,9.826-141.185,2.093-162.51
					c-24.851-68.539-75.031-104.667-93.215-116.507c1.751-1.887,3.815-4.035,6.023-6.298
					c119.806,16.464,189.658,85.69,198.297,106.189c19.969,47.384-11.644,64.791-12.461,201.449
					c-0.389,65.319,6.656,91.111-14.536,118.375c-24.24,31.181-52.172,21.532-87.224,62.303
					c-26.932,31.321-22.619,51.18-47.766,64.377c-27.041,14.188-44.263-2.349-74.763,4.156
					c-50.952,10.866-61.845,69.616-95.53,101.759c-25.472,24.305-72.568,41.299-165.447,23.06c-2.148-3.128-3.186-6.182-2.77-9.042
					C479.202,2575.27,535.419,2588.307,577.826,2548.164z"/>
			</g>
			
				<linearGradient id="SVGID_00000124844125695869536270000009569221562999494583_" gradientUnits="userSpaceOnUse" x1="695.3328" y1="2604.9719" x2="869.2464" y2="1770.6543">
				<stop  offset="0" style="stop-color:#FFC444"/>
				<stop  offset="0.9964" style="stop-color:#F36F56"/>
			</linearGradient>
			<path style="fill:url(#SVGID_00000124844125695869536270000009569221562999494583_);" d="M940.739,2063.761
				c12.736,27.044-45.786,90.035-110.831,119.944c-13.252,6.097-108.423,49.854-150.84,7.777
				c-35.049-34.772-12.428-106.67-4.352-132.338c39.653-126.042,161.434-190.158,212.47-213.283
				c38.088,95.236,15.657,137.674,6.827,150.926c-9.224,13.841-34.964,42.918-62.303,68.533
				c-19.23,18.015-31.205,26.783-29.594,29.594c2.003,3.498,24.544-3.109,112.096-45.724
				C924.361,2050.832,936.387,2054.525,940.739,2063.761z"/>
			
				<linearGradient id="SVGID_00000178182923583536382650000000822349260348658587_" gradientUnits="userSpaceOnUse" x1="-475.23" y1="2046.257" x2="-76.8411" y2="2046.257" gradientTransform="matrix(-1 0 0 1 832.1961 0)">
				<stop  offset="0" style="stop-color:#AA80F9"/>
				<stop  offset="0.9964" style="stop-color:#6165D7"/>
			</linearGradient>
			<path style="fill:url(#SVGID_00000178182923583536382650000000822349260348658587_);" d="M1307.073,1908.383l-42.958,213.935
				c-1.377,6.856-6.69,12.24-13.527,13.707l-320.313,68.742c-11.479,2.463-22.094-6.817-21.184-18.521l16.905-217.578
				c0.587-7.551,5.936-13.866,13.29-15.68c50.81-12.54,246.382-59.505,349.53-65.607
				C1300.339,1886.698,1309.345,1897.068,1307.073,1908.383z"/>
			
				<linearGradient id="SVGID_00000003070378606379320630000015340921345994355841_" gradientUnits="userSpaceOnUse" x1="-197.4781" y1="1871.7754" x2="33.1542" y2="1609.946" gradientTransform="matrix(-1 0 0 1 832.1961 0)">
				<stop  offset="0" style="stop-color:#FFC444"/>
				<stop  offset="0.9964" style="stop-color:#F36F56"/>
			</linearGradient>
			<path style="fill:url(#SVGID_00000003070378606379320630000015340921345994355841_);" d="M987.587,1752.138
				c0,0-6.042,48.302-23.869,59.37c-17.829,11.061-46.648,25.518-49.823,29.442c-3.175,3.919,110.44,16.135,166.744-12.277l0,0
				c-18.555-3.87-23.6-5.293-23.6-5.293c-5.035-1.424-14.429-4.071-23.847-9.438c-6.41-3.65-16.741-10.781-26.217-24.246
				l0.207-26.745L987.587,1752.138z"/>
			
				<linearGradient id="SVGID_00000108993394218394094280000012861069599182192288_" gradientUnits="userSpaceOnUse" x1="2181.3503" y1="4961.3208" x2="2422.011" y2="5160.7573" gradientTransform="matrix(-0.8633 0.5047 0.5047 0.8633 -848.4135 -259.5109)">
				<stop  offset="0" style="stop-color:#FFC444"/>
				<stop  offset="0.9964" style="stop-color:#F36F56"/>
			</linearGradient>
			<path style="fill:url(#SVGID_00000108993394218394094280000012861069599182192288_);" d="M984.875,1769.245
				c0,0,11.623,15.954,29.853,9.305c16.322-5.952,6.58-48.109-6.366-52.917c-4.318-1.604-12.249-0.895-17.549,2.412
				c-3.728,2.326-13.684,14.694-7.977,28.553c-4.123-1.195-7.753-0.11-8.661,1.933c-1.154,2.589,2.338,6.117,3.129,6.916
				C980.044,1768.217,983.351,1768.992,984.875,1769.245z"/>
			
				<linearGradient id="SVGID_00000053528547134876662800000009622513873885482425_" gradientUnits="userSpaceOnUse" x1="-475.23" y1="2044.7161" x2="-110.5586" y2="2044.7161" gradientTransform="matrix(-1 0 0 1 832.1961 0)">
				<stop  offset="0" style="stop-color:#AA80F9"/>
				<stop  offset="0.9964" style="stop-color:#6165D7"/>
			</linearGradient>
			<path style="opacity:0.3;fill:url(#SVGID_00000053528547134876662800000009622513873885482425_);" d="M1018.617,2093.355
				c34.401-9.699,62.931,14.388,90.339-4.673c28.075-19.524,9.752-52.873,38.939-85.666c31.207-35.064,70.798-17.888,99.684-49.842
				c10.722-11.865,20.369-31.195,20.518-64.153c7.237-0.699,14.168-1.253,20.721-1.642c11.52-0.682,20.527,9.692,18.256,21.002
				l-42.959,213.935c-1.376,6.857-6.689,12.241-13.526,13.708l-307.834,66.062C964.49,2125.832,993.494,2100.436,1018.617,2093.355z
				"/>
			
				<linearGradient id="SVGID_00000137090494810759048650000017867093144884327320_" gradientUnits="userSpaceOnUse" x1="-352.017" y1="2056.7683" x2="-111.3571" y2="2256.2043" gradientTransform="matrix(-1 0 0 1 832.1961 0)">
				<stop  offset="0" style="stop-color:#FFC444"/>
				<stop  offset="0.9964" style="stop-color:#F36F56"/>
			</linearGradient>
			<path style="fill:url(#SVGID_00000137090494810759048650000017867093144884327320_);" d="M1286.687,2022.194
				c0,0,20.433-18.886,22.656-40.824c2.223-21.939-13.197-39.495-28.135-43.969c-14.938-4.474-22.911,2.125-12.883,23.727
				C1278.354,1982.73,1294.262,1996.752,1286.687,2022.194z"/>
		</g>
		<g>
			<g>
				
					<linearGradient id="SVGID_00000074443646049495923110000006746501636564380337_" gradientUnits="userSpaceOnUse" x1="1796.4636" y1="1475.2771" x2="1791.7633" y2="2321.345">
					<stop  offset="0.0036" style="stop-color:#26264F"/>
					<stop  offset="1" style="stop-color:#444B8C"/>
				</linearGradient>
				<path style="fill:url(#SVGID_00000074443646049495923110000006746501636564380337_);" d="M1991.092,1911.222l-21.995-4.306
					c0.087-10.136-0.683-20.275-2.323-30.3l21.198-7.397c5.714-1.994,8.726-8.319,6.725-14.129l-12.537-36.402
					c-2.009-5.831-8.283-8.948-14.017-6.956l-21.291,7.394c-4.886-8.82-10.604-17.28-17.077-25.312l14.776-17.328
					c3.968-4.652,3.433-11.731-1.194-15.815l-29.004-25.589c-4.648-4.101-11.644-3.644-15.622,1.021l-14.821,17.38
					c-8.809-5.398-17.947-9.983-27.334-13.681l4.137-22.649c1.116-6.107-2.88-12.057-8.927-13.287l-37.884-7.71
					c-6.07-1.235-11.893,2.73-13.002,8.855l-4.108,22.682c-10.207-0.253-20.408,0.399-30.487,1.926l-7.721-21.899
					c-2.089-5.929-8.513-9.119-14.347-7.121l-36.524,12.508c-5.848,2.001-8.879,8.437-6.77,14.37l7.708,21.692
					c-8.863,4.907-17.337,10.688-25.36,17.246l-17.399-15.091c-4.762-4.131-11.88-3.668-15.893,1.039l-25.098,29.43
					c-4.012,4.706-3.392,11.86,1.383,15.977l17.305,14.92c-5.303,8.988-9.752,18.319-13.292,27.905l-22.124-4.33
					c-6.142-1.203-12.001,2.786-13.083,8.911l-6.759,38.248c-1.08,6.109,3.022,12.022,9.158,13.207l21.999,4.248
					c-0.028,10.39,0.866,20.771,2.649,31.022l-20.913,7.263c-5.845,2.03-8.858,8.426-6.728,14.281l13.292,36.549
					c2.121,5.834,8.566,8.911,14.392,6.878l20.692-7.221c5.108,8.945,11.086,17.494,17.828,25.583l-14.172,16.62
					c-3.979,4.666-3.37,11.698,1.358,15.705l29.501,25.006c4.708,3.99,11.739,3.451,15.705-1.2l14.131-16.571
					c9.012,5.317,18.338,9.801,27.901,13.362l-3.869,21.366c-1.089,6.008,2.918,11.784,8.947,12.902l37.626,6.979
					c6.006,1.114,11.759-2.839,12.854-8.831l3.922-21.467c10.211,0.089,20.403-0.705,30.454-2.394l7.328,20.62
					c2.04,5.738,8.334,8.745,14.061,6.72l35.767-12.654c5.713-2.021,8.706-8.306,6.684-14.041l-7.299-20.705
					c8.702-4.943,17.026-10.724,24.896-17.275l16.697,14.397c4.594,3.961,11.507,3.432,15.44-1.181l24.598-28.846
					c3.935-4.613,3.41-11.573-1.173-15.548l-16.79-14.562c5.165-8.814,9.527-17.952,13.004-27.34l21.753,4.2
					c5.934,1.146,11.653-2.782,12.773-8.775l7.017-37.519C2000.936,1918.197,1997.032,1912.385,1991.092,1911.222z
					 M1880.507,1977.923c-39.902,46.792-110.397,52.094-157.713,11.624c-47.602-40.716-53.701-112.252-13.36-159.558
					c40.34-47.306,111.486-52.047,158.647-10.816C1914.96,1860.156,1920.408,1931.131,1880.507,1977.923z"/>
				
					<linearGradient id="SVGID_00000047042339517205409130000006473296334783290765_" gradientUnits="userSpaceOnUse" x1="2023.3906" y1="1476.5378" x2="2018.6904" y2="2322.6047">
					<stop  offset="0.0036" style="stop-color:#26264F"/>
					<stop  offset="1" style="stop-color:#444B8C"/>
				</linearGradient>
				<path style="fill:url(#SVGID_00000047042339517205409130000006473296334783290765_);" d="M2131.462,1616.822l-12.246-2.42
					c-0.089-5.486-0.654-10.977-1.699-16.408l11.639-3.921c3.139-1.057,4.719-4.468,3.531-7.619l-7.443-19.732
					c-1.193-3.159-4.708-4.866-7.854-3.81l-11.682,3.921c-2.823-4.784-6.099-9.374-9.787-13.735l7.938-9.308
					c2.131-2.499,1.741-6.323-0.875-8.543l-16.376-13.903c-2.623-2.227-6.481-2.003-8.618,0.502l-7.954,9.328
					c-4.937-2.94-10.042-5.442-15.272-7.466l1.985-12.2c0.535-3.288-1.748-6.507-5.099-7.188l-20.995-4.265
					c-3.363-0.683-6.521,1.436-7.053,4.731l-1.974,12.209c-5.628-0.167-11.242,0.152-16.777,0.944l-4.529-11.817
					c-1.227-3.199-4.804-4.936-7.991-3.877l-19.948,6.624c-3.192,1.06-4.78,4.515-3.546,7.715l4.511,11.705
					c-4.818,2.614-9.409,5.701-13.743,9.206l-9.758-8.183c-2.668-2.239-6.577-2.012-8.726,0.509l-13.441,15.761
					c-2.151,2.521-1.723,6.375,0.953,8.609l9.696,8.098c-2.807,4.824-5.143,9.837-6.974,14.99l-12.218-2.414
					c-3.392-0.67-6.564,1.458-7.086,4.754l-3.259,20.59c-0.522,3.29,1.805,6.494,5.193,7.157l12.151,2.378
					c0.111,5.605,0.728,11.211,1.833,16.751l-11.421,3.833c-3.192,1.071-4.773,4.51-3.531,7.679l7.753,19.793
					c1.238,3.161,4.823,4.852,8.007,3.78l11.31-3.81c2.922,4.857,6.32,9.504,10.135,13.908l-7.607,8.921
					c-2.137,2.505-1.715,6.311,0.94,8.5l16.573,13.671c2.646,2.183,6.518,1.926,8.65-0.573l7.59-8.901
					c5.041,2.922,10.246,5.395,15.569,7.369l-1.866,11.553c-0.526,3.25,1.76,6.398,5.104,7.035l20.882,3.972
					c3.335,0.635,6.466-1.479,6.993-4.722l1.891-11.616c5.648,0.099,11.274-0.282,16.81-1.148l4.323,11.217
					c1.204,3.122,4.728,4.785,7.871,3.715l19.637-6.685c3.138-1.068,4.711-4.463,3.515-7.584l-4.318-11.264
					c4.752-2.639,9.284-5.733,13.556-9.247l9.442,7.886c2.6,2.171,6.424,1.917,8.541-0.567l13.244-15.53
					c2.117-2.484,1.731-6.26-0.864-8.437l-9.503-7.969c2.743-4.753,5.036-9.686,6.834-14.757l12.114,2.37
					c3.306,0.647,6.421-1.456,6.96-4.7l3.372-20.297C2137.016,1620.639,2134.772,1617.476,2131.462,1616.822z M2071.129,1652.472
					c-21.457,25.162-60.355,27.707-86.987,5.594c-26.751-22.211-30.99-60.853-9.359-86.22c21.632-25.366,60.799-27.685,87.377-5.269
					C2088.619,1588.895,2092.587,1627.311,2071.129,1652.472z"/>
			</g>
			<g>
				
					<linearGradient id="SVGID_00000124873615995960583650000013231050858702965129_" gradientUnits="userSpaceOnUse" x1="1799.125" y1="1470.0551" x2="1794.4247" y2="2316.1228">
					<stop  offset="0" style="stop-color:#AA80F9"/>
					<stop  offset="0.9964" style="stop-color:#6165D7"/>
				</linearGradient>
				<path style="fill:url(#SVGID_00000124873615995960583650000013231050858702965129_);" d="M1993.753,1906l-21.995-4.306
					c0.087-10.136-0.683-20.275-2.323-30.3l21.198-7.397c5.714-1.994,8.726-8.319,6.725-14.129l-12.537-36.402
					c-2.009-5.831-8.283-8.948-14.017-6.956l-21.291,7.394c-4.886-8.82-10.604-17.28-17.077-25.312l14.776-17.328
					c3.968-4.652,3.433-11.731-1.194-15.815l-29.004-25.589c-4.648-4.1-11.644-3.644-15.622,1.021l-14.821,17.38
					c-8.809-5.398-17.947-9.983-27.334-13.681l4.137-22.649c1.116-6.107-2.88-12.057-8.927-13.287l-37.884-7.71
					c-6.07-1.235-11.893,2.729-13.002,8.855l-4.108,22.682c-10.207-0.253-20.408,0.399-30.487,1.927l-7.721-21.899
					c-2.09-5.929-8.513-9.119-14.347-7.121l-36.524,12.508c-5.848,2.001-8.879,8.437-6.77,14.37l7.708,21.692
					c-8.863,4.907-17.337,10.688-25.36,17.246l-17.399-15.091c-4.762-4.131-11.88-3.668-15.893,1.039l-25.098,29.43
					c-4.012,4.706-3.392,11.86,1.383,15.977l17.305,14.92c-5.304,8.988-9.752,18.319-13.292,27.905l-22.124-4.33
					c-6.142-1.203-12.001,2.786-13.083,8.911l-6.758,38.248c-1.08,6.109,3.022,12.022,9.158,13.207l21.999,4.248
					c-0.028,10.39,0.866,20.771,2.649,31.022l-20.913,7.263c-5.845,2.03-8.858,8.426-6.728,14.281l13.292,36.549
					c2.122,5.834,8.566,8.911,14.392,6.878l20.692-7.221c5.108,8.945,11.086,17.494,17.828,25.583l-14.172,16.62
					c-3.979,4.666-3.37,11.698,1.358,15.705l29.501,25.006c4.708,3.99,11.739,3.452,15.705-1.2l14.131-16.571
					c9.012,5.317,18.338,9.801,27.901,13.362l-3.869,21.366c-1.089,6.008,2.918,11.785,8.947,12.902l37.626,6.979
					c6.006,1.113,11.76-2.839,12.854-8.831l3.922-21.467c10.211,0.089,20.403-0.705,30.454-2.394l7.328,20.62
					c2.04,5.738,8.334,8.745,14.061,6.72l35.767-12.654c5.713-2.021,8.706-8.306,6.684-14.041l-7.299-20.705
					c8.702-4.943,17.026-10.724,24.896-17.275l16.697,14.397c4.594,3.961,11.507,3.432,15.44-1.181l24.598-28.846
					c3.935-4.613,3.41-11.573-1.173-15.548l-16.79-14.562c5.165-8.814,9.527-17.952,13.004-27.34l21.753,4.201
					c5.934,1.146,11.653-2.782,12.773-8.775l7.017-37.519C2003.598,1912.975,1999.694,1907.163,1993.753,1906z M1883.168,1972.701
					c-39.902,46.791-110.397,52.094-157.713,11.623c-47.601-40.716-53.701-112.252-13.36-159.558
					c40.34-47.306,111.486-52.047,158.647-10.816C1917.622,1854.934,1923.07,1925.909,1883.168,1972.701z"/>
				
					<linearGradient id="SVGID_00000013898576541438062080000012972126014529082536_" gradientUnits="userSpaceOnUse" x1="2026.0521" y1="1471.3157" x2="2021.3518" y2="2317.3826">
					<stop  offset="0" style="stop-color:#AA80F9"/>
					<stop  offset="0.9964" style="stop-color:#6165D7"/>
				</linearGradient>
				<path style="fill:url(#SVGID_00000013898576541438062080000012972126014529082536_);" d="M2134.124,1611.599l-12.245-2.42
					c-0.089-5.486-0.654-10.976-1.699-16.408l11.639-3.921c3.139-1.057,4.719-4.468,3.531-7.619l-7.443-19.732
					c-1.193-3.159-4.708-4.866-7.854-3.81l-11.682,3.921c-2.822-4.784-6.099-9.374-9.786-13.735l7.937-9.308
					c2.131-2.499,1.741-6.323-0.875-8.543l-16.376-13.903c-2.623-2.227-6.481-2.003-8.618,0.502l-7.954,9.328
					c-4.937-2.94-10.042-5.442-15.272-7.466l1.985-12.2c0.534-3.288-1.748-6.507-5.1-7.188l-20.995-4.265
					c-3.363-0.683-6.521,1.436-7.053,4.731l-1.974,12.209c-5.628-0.167-11.242,0.152-16.777,0.944l-4.529-11.817
					c-1.227-3.199-4.804-4.936-7.991-3.877l-19.948,6.624c-3.192,1.06-4.78,4.515-3.546,7.715l4.511,11.705
					c-4.818,2.614-9.409,5.701-13.744,9.206l-9.757-8.183c-2.668-2.239-6.577-2.012-8.726,0.509l-13.441,15.761
					c-2.151,2.521-1.723,6.375,0.952,8.609l9.696,8.098c-2.807,4.824-5.143,9.837-6.974,14.99l-12.218-2.414
					c-3.392-0.671-6.564,1.458-7.086,4.754l-3.259,20.589c-0.522,3.29,1.805,6.494,5.192,7.157l12.151,2.378
					c0.111,5.605,0.728,11.211,1.833,16.751l-11.421,3.833c-3.192,1.071-4.773,4.51-3.531,7.679l7.753,19.793
					c1.238,3.161,4.823,4.852,8.007,3.78l11.31-3.81c2.923,4.857,6.32,9.504,10.135,13.908l-7.607,8.921
					c-2.137,2.505-1.715,6.311,0.94,8.5l16.573,13.671c2.646,2.183,6.518,1.926,8.65-0.573l7.59-8.902
					c5.041,2.922,10.246,5.395,15.569,7.369l-1.866,11.553c-0.526,3.25,1.76,6.398,5.104,7.035l20.882,3.971
					c3.335,0.635,6.466-1.479,6.993-4.722l1.891-11.616c5.648,0.099,11.274-0.282,16.81-1.148l4.323,11.217
					c1.204,3.122,4.728,4.785,7.871,3.715l19.637-6.685c3.138-1.068,4.711-4.463,3.515-7.584l-4.318-11.264
					c4.752-2.639,9.284-5.733,13.556-9.247l9.442,7.886c2.6,2.171,6.424,1.917,8.541-0.566l13.244-15.53
					c2.117-2.484,1.731-6.26-0.864-8.437l-9.503-7.969c2.743-4.753,5.036-9.686,6.833-14.757l12.114,2.37
					c3.306,0.647,6.421-1.456,6.96-4.7l3.372-20.297C2139.677,1615.417,2137.434,1612.253,2134.124,1611.599z M2073.791,1647.25
					c-21.458,25.162-60.355,27.707-86.987,5.594c-26.751-22.211-30.99-60.853-9.359-86.22c21.632-25.366,60.799-27.685,87.377-5.269
					C2091.28,1583.672,2095.248,1622.089,2073.791,1647.25z"/>
			</g>
		</g>
	</g>
</g>
</svg>
